<svg xmlns="http://www.w3.org/2000/svg" xmlns:xlink="http://www.w3.org/1999/xlink" contentStyleType="text/css" height="1748.4375px" preserveAspectRatio="none" style="width:2314px;height:1748px;background:#FFFFFF;" version="1.1" viewBox="0 0 2314 1748" width="2314.0625px" zoomAndPan="magnify"><defs/><g><!--class USERS--><g id="elem_USERS"><rect codeLine="8" fill="#F1F1F1" height="253.2471" id="USERS" rx="3.9063" ry="3.9063" style="stroke:#181818;stroke-width:0.78125;" width="325" x="496.875" y="341.3906"/><ellipse cx="616.0156" cy="366.3906" fill="#ADD1B2" rx="17.1875" ry="17.1875" style="stroke:#181818;stroke-width:1.5625;"/><path d="M622.4365,375.7656 L610.376,375.7656 L610.376,356.4053 L622.4365,356.4053 L622.4365,359.7744 L614.209,359.7744 L614.209,363.9492 L621.6553,363.9492 L621.6553,367.3184 L614.209,367.3184 L614.209,372.3965 L622.4365,372.3965 L622.4365,375.7656 Z " fill="#000000"/><text fill="#000000" font-family="sans-serif" font-size="21.875" lengthAdjust="spacing" textLength="73.4375" x="648.0469" y="373.9636">USERS</text><line style="stroke:#181818;stroke-width:0.78125;" x1="498.4375" x2="820.3125" y1="391.3906" y2="391.3906"/><text fill="#000000" font-family="sans-serif" font-size="21.875" lengthAdjust="spacing" textLength="207.8125" x="506.25" y="417.9455">*id : INTEGER &#171;PK&#187;</text><line style="stroke:#181818;stroke-width:1.5625;" x1="498.4375" x2="820.3125" y1="429.3545" y2="429.3545"/><text fill="#000000" font-family="sans-serif" font-size="21.875" lengthAdjust="spacing" textLength="278.125" x="506.25" y="455.9094">username        : VARCHAR</text><text fill="#000000" font-family="sans-serif" font-size="21.875" lengthAdjust="spacing" textLength="306.25" x="506.25" y="481.3732">password_hash   : VARCHAR</text><text fill="#000000" font-family="sans-serif" font-size="21.875" lengthAdjust="spacing" textLength="265.625" x="506.25" y="506.8371">nombre          : VARCHAR</text><text fill="#000000" font-family="sans-serif" font-size="21.875" lengthAdjust="spacing" textLength="243.75" x="506.25" y="532.301">email           : VARCHAR</text><text fill="#000000" font-family="sans-serif" font-size="21.875" lengthAdjust="spacing" textLength="262.5" x="506.25" y="557.7648">enabled         : BOOLEAN</text><text fill="#000000" font-family="sans-serif" font-size="21.875" lengthAdjust="spacing" textLength="276.5625" x="506.25" y="583.2287">created_at      : DATETIME</text></g><!--class ROLES--><g id="elem_ROLES"><rect codeLine="19" fill="#F1F1F1" height="151.3916" id="ROLES" rx="3.9063" ry="3.9063" style="stroke:#181818;stroke-width:0.78125;" width="264.0625" x="38.2813" y="392.3125"/><ellipse cx="127.7344" cy="417.3125" fill="#ADD1B2" rx="17.1875" ry="17.1875" style="stroke:#181818;stroke-width:1.5625;"/><path d="M134.1553,426.6875 L122.0947,426.6875 L122.0947,407.3271 L134.1553,407.3271 L134.1553,410.6963 L125.9277,410.6963 L125.9277,414.8711 L133.374,414.8711 L133.374,418.2402 L125.9277,418.2402 L125.9277,423.3184 L134.1553,423.3184 L134.1553,426.6875 Z " fill="#000000"/><text fill="#000000" font-family="sans-serif" font-size="21.875" lengthAdjust="spacing" textLength="71.875" x="159.7656" y="424.8854">ROLES</text><line style="stroke:#181818;stroke-width:0.78125;" x1="39.8438" x2="300.7813" y1="442.3125" y2="442.3125"/><text fill="#000000" font-family="sans-serif" font-size="21.875" lengthAdjust="spacing" textLength="207.8125" x="47.6563" y="468.8674">*id : INTEGER &#171;PK&#187;</text><line style="stroke:#181818;stroke-width:1.5625;" x1="39.8438" x2="300.7813" y1="480.2764" y2="480.2764"/><text fill="#000000" font-family="sans-serif" font-size="21.875" lengthAdjust="spacing" textLength="229.6875" x="47.6563" y="506.8312">name        : VARCHAR</text><text fill="#000000" font-family="sans-serif" font-size="21.875" lengthAdjust="spacing" textLength="245.3125" x="47.6563" y="532.2951">description : VARCHAR</text></g><!--class USER_ROLES--><g id="elem_USER_ROLES"><rect codeLine="26" fill="#F1F1F1" height="125.9277" id="USER_ROLES" rx="3.9063" ry="3.9063" style="stroke:#181818;stroke-width:0.78125;" width="318.75" x="10.9375" y="786.4219"/><ellipse cx="92.5781" cy="811.4219" fill="#ADD1B2" rx="17.1875" ry="17.1875" style="stroke:#181818;stroke-width:1.5625;"/><path d="M98.999,820.7969 L86.9385,820.7969 L86.9385,801.4365 L98.999,801.4365 L98.999,804.8057 L90.7715,804.8057 L90.7715,808.9805 L98.2178,808.9805 L98.2178,812.3496 L90.7715,812.3496 L90.7715,817.4277 L98.999,817.4277 L98.999,820.7969 Z " fill="#000000"/><text fill="#000000" font-family="sans-serif" font-size="21.875" lengthAdjust="spacing" textLength="142.1875" x="124.6094" y="818.9948">USER_ROLES</text><line style="stroke:#181818;stroke-width:0.78125;" x1="12.5" x2="328.125" y1="836.4219" y2="836.4219"/><text fill="#000000" font-family="sans-serif" font-size="21.875" lengthAdjust="spacing" textLength="300" x="20.3125" y="862.9767">*user_id : INTEGER &#171;PK,FK&#187;</text><text fill="#000000" font-family="sans-serif" font-size="21.875" lengthAdjust="spacing" textLength="292.1875" x="20.3125" y="888.4406">*role_id : INTEGER &#171;PK,FK&#187;</text><line style="stroke:#181818;stroke-width:0.78125;" x1="12.5" x2="328.125" y1="899.8496" y2="899.8496"/></g><!--class ESTACION--><g id="elem_ESTACION"><rect codeLine="31" fill="#F1F1F1" height="202.3193" id="ESTACION" rx="3.9063" ry="3.9063" style="stroke:#181818;stroke-width:0.78125;" width="264.0625" x="1533.5938" y="10.9375"/><ellipse cx="1604.2969" cy="35.9375" fill="#ADD1B2" rx="17.1875" ry="17.1875" style="stroke:#181818;stroke-width:1.5625;"/><path d="M1610.7178,45.3125 L1598.6572,45.3125 L1598.6572,25.9521 L1610.7178,25.9521 L1610.7178,29.3213 L1602.4902,29.3213 L1602.4902,33.4961 L1609.9365,33.4961 L1609.9365,36.8652 L1602.4902,36.8652 L1602.4902,41.9434 L1610.7178,41.9434 L1610.7178,45.3125 Z " fill="#000000"/><text fill="#000000" font-family="sans-serif" font-size="21.875" lengthAdjust="spacing" textLength="109.375" x="1636.3281" y="43.5104">ESTACION</text><line style="stroke:#181818;stroke-width:0.78125;" x1="1535.1563" x2="1796.0938" y1="60.9375" y2="60.9375"/><text fill="#000000" font-family="sans-serif" font-size="21.875" lengthAdjust="spacing" textLength="207.8125" x="1542.9688" y="87.4924">*id : INTEGER &#171;PK&#187;</text><line style="stroke:#181818;stroke-width:1.5625;" x1="1535.1563" x2="1796.0938" y1="98.9014" y2="98.9014"/><text fill="#000000" font-family="sans-serif" font-size="21.875" lengthAdjust="spacing" textLength="234.375" x="1542.9688" y="125.4562">nombre     : VARCHAR</text><text fill="#000000" font-family="sans-serif" font-size="21.875" lengthAdjust="spacing" textLength="234.375" x="1542.9688" y="150.9201">ubicacion  : VARCHAR</text><text fill="#000000" font-family="sans-serif" font-size="21.875" lengthAdjust="spacing" textLength="225" x="1542.9688" y="176.384">estado     : VARCHAR</text><text fill="#000000" font-family="sans-serif" font-size="21.875" lengthAdjust="spacing" textLength="245.3125" x="1542.9688" y="201.8478">created_at : DATETIME</text></g><!--class TANQUE--><g id="elem_TANQUE"><rect codeLine="40" fill="#F1F1F1" height="227.7832" id="TANQUE" rx="3.9063" ry="3.9063" style="stroke:#181818;stroke-width:0.78125;" width="317.1875" x="1507.0313" y="354.125"/><ellipse cx="1613.6719" cy="379.125" fill="#ADD1B2" rx="17.1875" ry="17.1875" style="stroke:#181818;stroke-width:1.5625;"/><path d="M1620.0928,388.5 L1608.0322,388.5 L1608.0322,369.1396 L1620.0928,369.1396 L1620.0928,372.5088 L1611.8652,372.5088 L1611.8652,376.6836 L1619.3115,376.6836 L1619.3115,380.0527 L1611.8652,380.0527 L1611.8652,385.1309 L1620.0928,385.1309 L1620.0928,388.5 Z " fill="#000000"/><text fill="#000000" font-family="sans-serif" font-size="21.875" lengthAdjust="spacing" textLength="90.625" x="1645.7031" y="386.6979">TANQUE</text><line style="stroke:#181818;stroke-width:0.78125;" x1="1508.5938" x2="1822.6563" y1="404.125" y2="404.125"/><text fill="#000000" font-family="sans-serif" font-size="21.875" lengthAdjust="spacing" textLength="207.8125" x="1516.4063" y="430.6799">*id : INTEGER &#171;PK&#187;</text><line style="stroke:#181818;stroke-width:1.5625;" x1="1508.5938" x2="1822.6563" y1="442.0889" y2="442.0889"/><text fill="#000000" font-family="sans-serif" font-size="21.875" lengthAdjust="spacing" textLength="298.4375" x="1516.4063" y="468.6437">estacion_id : INTEGER &#171;FK&#187;</text><text fill="#000000" font-family="sans-serif" font-size="21.875" lengthAdjust="spacing" textLength="229.6875" x="1516.4063" y="494.1076">codigo      : VARCHAR</text><text fill="#000000" font-family="sans-serif" font-size="21.875" lengthAdjust="spacing" textLength="235.9375" x="1516.4063" y="519.5715">especie     : VARCHAR</text><text fill="#000000" font-family="sans-serif" font-size="21.875" lengthAdjust="spacing" textLength="237.5" x="1516.4063" y="545.0353">capacidad   : INTEGER</text><text fill="#000000" font-family="sans-serif" font-size="21.875" lengthAdjust="spacing" textLength="231.25" x="1516.4063" y="570.4992">estado      : VARCHAR</text></g><!--class LOTE--><g id="elem_LOTE"><rect codeLine="50" fill="#F1F1F1" height="253.2471" id="LOTE" rx="3.9063" ry="3.9063" style="stroke:#181818;stroke-width:0.78125;" width="675" x="1628.125" y="722.7656"/><ellipse cx="1930.8594" cy="747.7656" fill="#ADD1B2" rx="17.1875" ry="17.1875" style="stroke:#181818;stroke-width:1.5625;"/><path d="M1937.2803,757.1406 L1925.2197,757.1406 L1925.2197,737.7803 L1937.2803,737.7803 L1937.2803,741.1494 L1929.0527,741.1494 L1929.0527,745.3242 L1936.499,745.3242 L1936.499,748.6934 L1929.0527,748.6934 L1929.0527,753.7715 L1937.2803,753.7715 L1937.2803,757.1406 Z " fill="#000000"/><text fill="#000000" font-family="sans-serif" font-size="21.875" lengthAdjust="spacing" textLength="56.25" x="1962.8906" y="755.3386">LOTE</text><line style="stroke:#181818;stroke-width:0.78125;" x1="1629.6875" x2="2301.5625" y1="772.7656" y2="772.7656"/><text fill="#000000" font-family="sans-serif" font-size="21.875" lengthAdjust="spacing" textLength="207.8125" x="1637.5" y="799.3205">*id : INTEGER &#171;PK&#187;</text><line style="stroke:#181818;stroke-width:1.5625;" x1="1629.6875" x2="2301.5625" y1="810.7295" y2="810.7295"/><text fill="#000000" font-family="sans-serif" font-size="21.875" lengthAdjust="spacing" textLength="307.8125" x="1637.5" y="837.2844">tanque_id     : INTEGER &#171;FK&#187;</text><text fill="#000000" font-family="sans-serif" font-size="21.875" lengthAdjust="spacing" textLength="242.1875" x="1637.5" y="862.7482">codigo        : VARCHAR</text><text fill="#000000" font-family="sans-serif" font-size="21.875" lengthAdjust="spacing" textLength="248.4375" x="1637.5" y="888.2121">especie       : VARCHAR</text><text fill="#000000" font-family="sans-serif" font-size="21.875" lengthAdjust="spacing" textLength="239.0625" x="1637.5" y="913.676">cantidad      : INTEGER</text><text fill="#000000" font-family="sans-serif" font-size="21.875" lengthAdjust="spacing" textLength="656.25" x="1637.5" y="939.1398">estado        : VARCHAR  ' (ej. BORRADOR, ACTIVO, CERRADO)</text><text fill="#000000" font-family="sans-serif" font-size="21.875" lengthAdjust="spacing" textLength="287.5" x="1637.5" y="964.6037">fecha_creacion: DATETIME</text></g><!--class MUESTREO--><g id="elem_MUESTREO"><rect codeLine="61" fill="#F1F1F1" height="253.2471" id="MUESTREO" rx="3.9063" ry="3.9063" style="stroke:#181818;stroke-width:0.78125;" width="693.75" x="137.5" y="1104.125"/><ellipse cx="416.0156" cy="1129.125" fill="#ADD1B2" rx="17.1875" ry="17.1875" style="stroke:#181818;stroke-width:1.5625;"/><path d="M422.4365,1138.5 L410.376,1138.5 L410.376,1119.1396 L422.4365,1119.1396 L422.4365,1122.5088 L414.209,1122.5088 L414.209,1126.6836 L421.6553,1126.6836 L421.6553,1130.0527 L414.209,1130.0527 L414.209,1135.1309 L422.4365,1135.1309 L422.4365,1138.5 Z " fill="#000000"/><text fill="#000000" font-family="sans-serif" font-size="21.875" lengthAdjust="spacing" textLength="123.4375" x="448.0469" y="1136.6979">MUESTREO</text><line style="stroke:#181818;stroke-width:0.78125;" x1="139.0625" x2="829.6875" y1="1154.125" y2="1154.125"/><text fill="#000000" font-family="sans-serif" font-size="21.875" lengthAdjust="spacing" textLength="207.8125" x="146.875" y="1180.6799">*id : INTEGER &#171;PK&#187;</text><line style="stroke:#181818;stroke-width:1.5625;" x1="139.0625" x2="829.6875" y1="1192.0889" y2="1192.0889"/><text fill="#000000" font-family="sans-serif" font-size="21.875" lengthAdjust="spacing" textLength="284.375" x="146.875" y="1218.6437">lote_id       : INTEGER &#171;FK&#187;</text><text fill="#000000" font-family="sans-serif" font-size="21.875" lengthAdjust="spacing" textLength="240.625" x="146.875" y="1244.1076">fecha         : DATETIME</text><text fill="#000000" font-family="sans-serif" font-size="21.875" lengthAdjust="spacing" textLength="675" x="146.875" y="1269.5715">responsable_id: INTEGER &#171;FK&#187;  ' referencia a USERS (operario)</text><text fill="#000000" font-family="sans-serif" font-size="21.875" lengthAdjust="spacing" textLength="234.375" x="146.875" y="1295.0353">observaciones : TEXT</text><text fill="#000000" font-family="sans-serif" font-size="21.875" lengthAdjust="spacing" textLength="260.9375" x="146.875" y="1320.4992">resultado_ia  : VARCHAR</text><text fill="#000000" font-family="sans-serif" font-size="21.875" lengthAdjust="spacing" textLength="639.0625" x="146.875" y="1345.9631">aptitud       : VARCHAR         ' Apto / Reproceso / Descartado</text></g><!--class FOTO--><g id="elem_FOTO"><rect codeLine="72" fill="#F1F1F1" height="253.2471" id="FOTO" rx="3.9063" ry="3.9063" style="stroke:#181818;stroke-width:0.78125;" width="509.375" x="229.6875" y="1485.5"/><ellipse cx="447.2656" cy="1510.5" fill="#ADD1B2" rx="17.1875" ry="17.1875" style="stroke:#181818;stroke-width:1.5625;"/><path d="M453.6865,1519.875 L441.626,1519.875 L441.626,1500.5146 L453.6865,1500.5146 L453.6865,1503.8838 L445.459,1503.8838 L445.459,1508.0586 L452.9053,1508.0586 L452.9053,1511.4277 L445.459,1511.4277 L445.459,1516.5059 L453.6865,1516.5059 L453.6865,1519.875 Z " fill="#000000"/><text fill="#000000" font-family="sans-serif" font-size="21.875" lengthAdjust="spacing" textLength="60.9375" x="479.2969" y="1518.0729">FOTO</text><line style="stroke:#181818;stroke-width:0.78125;" x1="231.25" x2="737.5" y1="1535.5" y2="1535.5"/><text fill="#000000" font-family="sans-serif" font-size="21.875" lengthAdjust="spacing" textLength="207.8125" x="239.0625" y="1562.0549">*id : INTEGER &#171;PK&#187;</text><line style="stroke:#181818;stroke-width:1.5625;" x1="231.25" x2="737.5" y1="1573.4639" y2="1573.4639"/><text fill="#000000" font-family="sans-serif" font-size="21.875" lengthAdjust="spacing" textLength="310.9375" x="239.0625" y="1600.0187">muestreo_id : INTEGER &#171;FK&#187;</text><text fill="#000000" font-family="sans-serif" font-size="21.875" lengthAdjust="spacing" textLength="210.9375" x="239.0625" y="1625.4826">ruta        : VARCHAR</text><text fill="#000000" font-family="sans-serif" font-size="21.875" lengthAdjust="spacing" textLength="490.625" x="239.0625" y="1650.9465">parte       : VARCHAR        ' cabeza, filete, piel...</text><text fill="#000000" font-family="sans-serif" font-size="21.875" lengthAdjust="spacing" textLength="248.4375" x="239.0625" y="1676.4103">resultado_ia: VARCHAR</text><text fill="#000000" font-family="sans-serif" font-size="21.875" lengthAdjust="spacing" textLength="226.5625" x="239.0625" y="1701.8742">qc_ok       : BOOLEAN</text><text fill="#000000" font-family="sans-serif" font-size="21.875" lengthAdjust="spacing" textLength="264.0625" x="239.0625" y="1727.3381">tomada_en   : DATETIME</text></g><!--class BITACORA--><g id="elem_BITACORA"><rect codeLine="83" fill="#F1F1F1" height="253.2471" id="BITACORA" rx="3.9063" ry="3.9063" style="stroke:#181818;stroke-width:0.78125;" width="603.125" x="496.875" y="722.7656"/><ellipse cx="736.3281" cy="747.7656" fill="#ADD1B2" rx="17.1875" ry="17.1875" style="stroke:#181818;stroke-width:1.5625;"/><path d="M742.749,757.1406 L730.6885,757.1406 L730.6885,737.7803 L742.749,737.7803 L742.749,741.1494 L734.5215,741.1494 L734.5215,745.3242 L741.9678,745.3242 L741.9678,748.6934 L734.5215,748.6934 L734.5215,753.7715 L742.749,753.7715 L742.749,757.1406 Z " fill="#000000"/><text fill="#000000" font-family="sans-serif" font-size="21.875" lengthAdjust="spacing" textLength="110.9375" x="768.3594" y="755.3386">BITACORA</text><line style="stroke:#181818;stroke-width:0.78125;" x1="498.4375" x2="1098.4375" y1="772.7656" y2="772.7656"/><text fill="#000000" font-family="sans-serif" font-size="21.875" lengthAdjust="spacing" textLength="207.8125" x="506.25" y="799.3205">*id : INTEGER &#171;PK&#187;</text><line style="stroke:#181818;stroke-width:1.5625;" x1="498.4375" x2="1098.4375" y1="810.7295" y2="810.7295"/><text fill="#000000" font-family="sans-serif" font-size="21.875" lengthAdjust="spacing" textLength="298.4375" x="506.25" y="837.2844">usuario_id   : INTEGER &#171;FK&#187;</text><text fill="#000000" font-family="sans-serif" font-size="21.875" lengthAdjust="spacing" textLength="237.5" x="506.25" y="862.7482">entidad      : VARCHAR</text><text fill="#000000" font-family="sans-serif" font-size="21.875" lengthAdjust="spacing" textLength="239.0625" x="506.25" y="888.2121">entidad_id   : INTEGER</text><text fill="#000000" font-family="sans-serif" font-size="21.875" lengthAdjust="spacing" textLength="584.375" x="506.25" y="913.676">accion       : VARCHAR       ' crear, actualizar, cerrar, etc.</text><text fill="#000000" font-family="sans-serif" font-size="21.875" lengthAdjust="spacing" textLength="179.6875" x="506.25" y="939.1398">detalle      : TEXT</text><text fill="#000000" font-family="sans-serif" font-size="21.875" lengthAdjust="spacing" textLength="262.5" x="506.25" y="964.6037">fecha_hora   : DATETIME</text></g><!--class TANQUE_LIMPIEZA--><g id="elem_TANQUE_LIMPIEZA"><rect codeLine="95" fill="#F1F1F1" height="202.3193" id="TANQUE_LIMPIEZA" rx="3.9063" ry="3.9063" style="stroke:#181818;stroke-width:0.78125;" width="420.3125" x="1153.9063" y="748.2187"/><ellipse cx="1258.2031" cy="773.2187" fill="#ADD1B2" rx="17.1875" ry="17.1875" style="stroke:#181818;stroke-width:1.5625;"/><path d="M1264.624,782.5937 L1252.5635,782.5937 L1252.5635,763.2334 L1264.624,763.2334 L1264.624,766.6025 L1256.3965,766.6025 L1256.3965,770.7773 L1263.8428,770.7773 L1263.8428,774.1465 L1256.3965,774.1465 L1256.3965,779.2246 L1264.624,779.2246 L1264.624,782.5937 Z " fill="#000000"/><text fill="#000000" font-family="sans-serif" font-size="21.875" lengthAdjust="spacing" textLength="198.4375" x="1290.2344" y="780.7917">TANQUE_LIMPIEZA</text><line style="stroke:#181818;stroke-width:0.78125;" x1="1155.4688" x2="1572.6563" y1="798.2187" y2="798.2187"/><text fill="#000000" font-family="sans-serif" font-size="21.875" lengthAdjust="spacing" textLength="207.8125" x="1163.2813" y="824.7736">*id : INTEGER &#171;PK&#187;</text><line style="stroke:#181818;stroke-width:1.5625;" x1="1155.4688" x2="1572.6563" y1="836.1826" y2="836.1826"/><text fill="#000000" font-family="sans-serif" font-size="21.875" lengthAdjust="spacing" textLength="289.0625" x="1163.2813" y="862.7375">tanque_id  : INTEGER &#171;FK&#187;</text><text fill="#000000" font-family="sans-serif" font-size="21.875" lengthAdjust="spacing" textLength="221.875" x="1163.2813" y="888.2014">fecha      : DATETIME</text><text fill="#000000" font-family="sans-serif" font-size="21.875" lengthAdjust="spacing" textLength="401.5625" x="1163.2813" y="913.6652">responsable: INTEGER &#171;FK&#187;  ' USERS</text><text fill="#000000" font-family="sans-serif" font-size="21.875" lengthAdjust="spacing" textLength="168.75" x="1163.2813" y="939.1291">notas      : TEXT</text></g><!--link USERS to USER_ROLES--><g id="link_USERS_USER_ROLES"><path codeLine="109" d="M486.1407,576.4643 C451.9532,599.105 427.0937,616.875 395.3125,641.5156 C337.3125,686.4844 296.3831,723.5971 252.5237,766.1752 " fill="none" id="USERS-USER_ROLES" style="stroke:#181818;stroke-width:1.5625;"/><line style="stroke:#181818;stroke-width:1.5625;" x1="487.9007" x2="494.8025" y1="567.8025" y2="578.2243"/><line style="stroke:#181818;stroke-width:1.5625;" x1="483.9925" x2="490.8943" y1="570.3907" y2="580.8125"/><line style="stroke:#181818;stroke-width:1.5625;" x1="486.1407" x2="496.5625" y1="576.4643" y2="569.5625"/><line style="stroke:#181818;stroke-width:1.5625;" x1="241.3126" x2="238.8739" y1="777.0588" y2="792.4923"/><line style="stroke:#181818;stroke-width:1.5625;" x1="241.3126" x2="225.8136" y1="777.0588" y2="779.039"/><line style="stroke:#181818;stroke-width:1.5625;" x1="241.3126" x2="232.3437" y1="777.0588" y2="785.7656"/><ellipse cx="248.0393" cy="770.5286" fill="none" rx="6.25" ry="6.25" style="stroke:#181818;stroke-width:1.5625;"/><text fill="#000000" font-family="sans-serif" font-size="20.3125" lengthAdjust="spacing" textLength="0" x="396.875" y="643.0781">1 usuario</text><text fill="#000000" font-family="sans-serif" font-size="20.3125" lengthAdjust="spacing" textLength="0" x="396.875" y="658.7031">0..* roles</text></g><!--link ROLES to USER_ROLES--><g id="link_ROLES_USER_ROLES"><path codeLine="110" d="M170.3125,556.7969 C170.3125,627.4219 170.3125,691.5 170.3125,757.625 " fill="none" id="ROLES-USER_ROLES" style="stroke:#181818;stroke-width:1.5625;"/><line style="stroke:#181818;stroke-width:1.5625;" x1="164.0625" x2="176.5625" y1="550.5469" y2="550.5469"/><line style="stroke:#181818;stroke-width:1.5625;" x1="164.0625" x2="176.5625" y1="555.2344" y2="555.2344"/><line style="stroke:#181818;stroke-width:1.5625;" x1="170.3125" x2="170.3125" y1="556.7969" y2="544.2969"/><line style="stroke:#181818;stroke-width:1.5625;" x1="170.3125" x2="179.6875" y1="773.25" y2="785.75"/><line style="stroke:#181818;stroke-width:1.5625;" x1="170.3125" x2="160.9375" y1="773.25" y2="785.75"/><line style="stroke:#181818;stroke-width:1.5625;" x1="170.3125" x2="170.3125" y1="773.25" y2="785.75"/><ellipse cx="170.3125" cy="763.875" fill="none" rx="6.25" ry="6.25" style="stroke:#181818;stroke-width:1.5625;"/><text fill="#000000" font-family="sans-serif" font-size="20.3125" lengthAdjust="spacing" textLength="0" x="171.875" y="643.0781">1 rol</text><text fill="#000000" font-family="sans-serif" font-size="20.3125" lengthAdjust="spacing" textLength="0" x="171.875" y="658.7031">0..* usuarios</text></g><!--link ESTACION to TANQUE--><g id="link_ESTACION_TANQUE"><path codeLine="113" d="M1665.625,226.3125 C1665.625,269.9063 1665.625,280.5625 1665.625,325.5 " fill="none" id="ESTACION-TANQUE" style="stroke:#181818;stroke-width:1.5625;"/><line style="stroke:#181818;stroke-width:1.5625;" x1="1659.375" x2="1671.875" y1="220.0625" y2="220.0625"/><line style="stroke:#181818;stroke-width:1.5625;" x1="1659.375" x2="1671.875" y1="224.75" y2="224.75"/><line style="stroke:#181818;stroke-width:1.5625;" x1="1665.625" x2="1665.625" y1="226.3125" y2="213.8125"/><line style="stroke:#181818;stroke-width:1.5625;" x1="1665.625" x2="1675" y1="341.125" y2="353.625"/><line style="stroke:#181818;stroke-width:1.5625;" x1="1665.625" x2="1656.25" y1="341.125" y2="353.625"/><line style="stroke:#181818;stroke-width:1.5625;" x1="1665.625" x2="1665.625" y1="341.125" y2="353.625"/><ellipse cx="1665.625" cy="331.75" fill="none" rx="6.25" ry="6.25" style="stroke:#181818;stroke-width:1.5625;"/><text fill="#000000" font-family="sans-serif" font-size="20.3125" lengthAdjust="spacing" textLength="0" x="1667.1875" y="261.7031">1 estaci&#243;n</text><text fill="#000000" font-family="sans-serif" font-size="20.3125" lengthAdjust="spacing" textLength="0" x="1667.1875" y="277.3281">0..* tanques</text></g><!--link TANQUE to LOTE--><g id="link_TANQUE_LOTE"><path codeLine="114" d="M1763.0023,592.3402 C1797.8773,636.309 1812.7453,655.0553 1848.5109,700.1647 " fill="none" id="TANQUE-LOTE" style="stroke:#181818;stroke-width:1.5625;"/><line style="stroke:#181818;stroke-width:1.5625;" x1="1754.2216" x2="1764.015" y1="591.3275" y2="583.5596"/><line style="stroke:#181818;stroke-width:1.5625;" x1="1757.1346" x2="1766.928" y1="595" y2="587.2321"/><line style="stroke:#181818;stroke-width:1.5625;" x1="1763.0023" x2="1755.2344" y1="592.3402" y2="582.5469"/><line style="stroke:#181818;stroke-width:1.5625;" x1="1858.2184" x2="1873.3305" y1="712.4083" y2="716.3786"/><line style="stroke:#181818;stroke-width:1.5625;" x1="1858.2184" x2="1858.6382" y1="712.4083" y2="728.0276"/><line style="stroke:#181818;stroke-width:1.5625;" x1="1858.2184" x2="1865.9844" y1="712.4083" y2="722.2031"/><ellipse cx="1852.3939" cy="705.0621" fill="none" rx="6.25" ry="6.25" style="stroke:#181818;stroke-width:1.5625;"/><text fill="#000000" font-family="sans-serif" font-size="20.3125" lengthAdjust="spacing" textLength="0" x="1826.1875" y="643.0781">1 tanque</text><text fill="#000000" font-family="sans-serif" font-size="20.3125" lengthAdjust="spacing" textLength="0" x="1826.1875" y="658.7031">0..* lotes</text></g><!--link LOTE to MUESTREO--><g id="link_LOTE_MUESTREO"><path codeLine="115" d="M1615.3777,972.0621 C1606.7058,974.6403 1610.0781,973.5781 1601.5625,976 C1346.1719,1048.5781 1080.8596,1108.5649 859.0939,1154.8618 " fill="none" id="LOTE-MUESTREO" style="stroke:#181818;stroke-width:1.5625;"/><line style="stroke:#181818;stroke-width:1.5625;" x1="1619.5875" x2="1623.1496" y1="964.2902" y2="976.2719"/><line style="stroke:#181818;stroke-width:1.5625;" x1="1615.0943" x2="1618.6564" y1="965.626" y2="977.6077"/><line style="stroke:#181818;stroke-width:1.5625;" x1="1615.3777" x2="1627.3594" y1="972.0621" y2="968.5"/><line style="stroke:#181818;stroke-width:1.5625;" x1="843.7987" x2="833.4784" y1="1158.0549" y2="1169.7865"/><line style="stroke:#181818;stroke-width:1.5625;" x1="843.7987" x2="829.6466" y1="1158.0549" y2="1151.4322"/><line style="stroke:#181818;stroke-width:1.5625;" x1="843.7987" x2="831.5625" y1="1158.0549" y2="1160.6094"/><ellipse cx="852.9758" cy="1156.139" fill="none" rx="6.25" ry="6.25" style="stroke:#181818;stroke-width:1.5625;"/><text fill="#000000" font-family="sans-serif" font-size="20.3125" lengthAdjust="spacing" textLength="0" x="1422.1875" y="1024.4375">1 lote</text><text fill="#000000" font-family="sans-serif" font-size="20.3125" lengthAdjust="spacing" textLength="0" x="1422.1875" y="1040.0625">0..* muestreos</text></g><!--link MUESTREO to FOTO--><g id="link_MUESTREO_FOTO"><path codeLine="116" d="M484.375,1370.25 C484.375,1411.0937 484.375,1415.8281 484.375,1456.7031 " fill="none" id="MUESTREO-FOTO" style="stroke:#181818;stroke-width:1.5625;"/><line style="stroke:#181818;stroke-width:1.5625;" x1="478.125" x2="490.625" y1="1364" y2="1364"/><line style="stroke:#181818;stroke-width:1.5625;" x1="478.125" x2="490.625" y1="1368.6875" y2="1368.6875"/><line style="stroke:#181818;stroke-width:1.5625;" x1="484.375" x2="484.375" y1="1370.25" y2="1357.75"/><line style="stroke:#181818;stroke-width:1.5625;" x1="484.375" x2="493.75" y1="1472.3281" y2="1484.8281"/><line style="stroke:#181818;stroke-width:1.5625;" x1="484.375" x2="475" y1="1472.3281" y2="1484.8281"/><line style="stroke:#181818;stroke-width:1.5625;" x1="484.375" x2="484.375" y1="1472.3281" y2="1484.8281"/><ellipse cx="484.375" cy="1462.9531" fill="none" rx="6.25" ry="6.25" style="stroke:#181818;stroke-width:1.5625;"/><text fill="#000000" font-family="sans-serif" font-size="20.3125" lengthAdjust="spacing" textLength="0" x="485.9375" y="1405.8125">1 muestreo</text><text fill="#000000" font-family="sans-serif" font-size="20.3125" lengthAdjust="spacing" textLength="0" x="485.9375" y="1421.4375">0..* fotos</text></g><!--link USERS to MUESTREO--><g id="link_USERS_MUESTREO"><path codeLine="119" d="M531.6082,604.6817 C502.3113,642.8536 482.5938,677 467.1875,722.7656 C425.3125,847.2031 433.3603,970.9507 451.2978,1075.6539 " fill="none" id="USERS-MUESTREO" style="stroke:#181818;stroke-width:1.5625;"/><line style="stroke:#181818;stroke-width:1.5625;" x1="530.4554" x2="540.3715" y1="595.9184" y2="603.529"/><line style="stroke:#181818;stroke-width:1.5625;" x1="527.6014" x2="537.5175" y1="599.6369" y2="607.2475"/><line style="stroke:#181818;stroke-width:1.5625;" x1="531.6082" x2="539.2188" y1="604.6817" y2="594.7656"/><line style="stroke:#181818;stroke-width:1.5625;" x1="453.9362" x2="465.2873" y1="1091.0545" y2="1101.792"/><line style="stroke:#181818;stroke-width:1.5625;" x1="453.9362" x2="446.8065" y1="1091.0545" y2="1104.958"/><line style="stroke:#181818;stroke-width:1.5625;" x1="453.9362" x2="456.0469" y1="1091.0545" y2="1103.375"/><ellipse cx="452.3531" cy="1081.8141" fill="none" rx="6.25" ry="6.25" style="stroke:#181818;stroke-width:1.5625;"/><text fill="#000000" font-family="sans-serif" font-size="20.3125" lengthAdjust="spacing" textLength="0" x="468.75" y="833.75">1 usuario</text><text fill="#000000" font-family="sans-serif" font-size="20.3125" lengthAdjust="spacing" textLength="0" x="468.75" y="849.375">0..* muestreos</text></g><!--link USERS to BITACORA--><g id="link_USERS_BITACORA"><path codeLine="124" d="M709.8001,606.7314 C724.8313,647.5907 727.4837,654.8052 742.515,695.6958 " fill="none" id="USERS-BITACORA" style="stroke:#181818;stroke-width:1.5625;"/><line style="stroke:#181818;stroke-width:1.5625;" x1="701.7765" x2="713.5079" y1="603.0235" y2="598.7078"/><line style="stroke:#181818;stroke-width:1.5625;" x1="703.3949" x2="715.1263" y1="607.4228" y2="603.1071"/><line style="stroke:#181818;stroke-width:1.5625;" x1="709.8001" x2="705.4844" y1="606.7314" y2="595"/><line style="stroke:#181818;stroke-width:1.5625;" x1="747.906" x2="761.0181" y1="710.3613" y2="718.8592"/><line style="stroke:#181818;stroke-width:1.5625;" x1="747.906" x2="743.4194" y1="710.3613" y2="725.3283"/><line style="stroke:#181818;stroke-width:1.5625;" x1="747.906" x2="752.2188" y1="710.3613" y2="722.0938"/><ellipse cx="744.6714" cy="701.562" fill="none" rx="6.25" ry="6.25" style="stroke:#181818;stroke-width:1.5625;"/><text fill="#000000" font-family="sans-serif" font-size="20.3125" lengthAdjust="spacing" textLength="0" x="734.6406" y="643.0781">1 usuario</text><text fill="#000000" font-family="sans-serif" font-size="20.3125" lengthAdjust="spacing" textLength="0" x="734.6406" y="658.7031">0..* registros</text></g><!--link TANQUE to TANQUE_LIMPIEZA--><g id="link_TANQUE_TANQUE_LIMPIEZA"><path codeLine="128" d="M1567.7705,592.3211 C1525.9424,644.7898 1501.9576,674.8704 1461.4732,725.636 " fill="none" id="TANQUE-TANQUE_LIMPIEZA" style="stroke:#181818;stroke-width:1.5625;"/><line style="stroke:#181818;stroke-width:1.5625;" x1="1566.7794" x2="1576.5536" y1="583.538" y2="591.33"/><line style="stroke:#181818;stroke-width:1.5625;" x1="1563.8574" x2="1573.6316" y1="587.2033" y2="594.9953"/><line style="stroke:#181818;stroke-width:1.5625;" x1="1567.7705" x2="1575.5625" y1="592.3211" y2="582.5469"/><line style="stroke:#181818;stroke-width:1.5625;" x1="1451.7311" x2="1451.2672" y1="737.8521" y2="753.4702"/><line style="stroke:#181818;stroke-width:1.5625;" x1="1451.7311" x2="1436.6078" y1="737.8521" y2="741.7798"/><line style="stroke:#181818;stroke-width:1.5625;" x1="1451.7311" x2="1443.9375" y1="737.8521" y2="747.625"/><ellipse cx="1457.5764" cy="730.5225" fill="none" rx="6.25" ry="6.25" style="stroke:#181818;stroke-width:1.5625;"/><text fill="#000000" font-family="sans-serif" font-size="20.3125" lengthAdjust="spacing" textLength="0" x="1525.4531" y="643.0781">1 tanque</text><text fill="#000000" font-family="sans-serif" font-size="20.3125" lengthAdjust="spacing" textLength="0" x="1525.4531" y="658.7031">0..* limpiezas</text></g><!--link USERS to TANQUE_LIMPIEZA--><g id="link_USERS_TANQUE_LIMPIEZA"><path codeLine="129" d="M833.3884,562.9747 C939.4822,619.9278 1042.3919,675.1502 1152.8763,734.4627 " fill="none" id="USERS-TANQUE_LIMPIEZA" style="stroke:#181818;stroke-width:1.5625;"/><line style="stroke:#181818;stroke-width:1.5625;" x1="824.9256" x2="830.8378" y1="565.5253" y2="554.5119"/><line style="stroke:#181818;stroke-width:1.5625;" x1="829.0556" x2="834.9679" y1="567.7424" y2="556.729"/><line style="stroke:#181818;stroke-width:1.5625;" x1="833.3884" x2="822.375" y1="562.9747" y2="557.0625"/><line style="stroke:#181818;stroke-width:1.5625;" x1="1166.6429" x2="1182.0906" y1="741.8532" y2="739.5056"/><line style="stroke:#181818;stroke-width:1.5625;" x1="1166.6429" x2="1173.2219" y1="741.8532" y2="756.0256"/><line style="stroke:#181818;stroke-width:1.5625;" x1="1166.6429" x2="1177.6563" y1="741.8532" y2="747.7656"/><ellipse cx="1158.3829" cy="737.4189" fill="none" rx="6.25" ry="6.25" style="stroke:#181818;stroke-width:1.5625;"/><text fill="#000000" font-family="sans-serif" font-size="20.3125" lengthAdjust="spacing" textLength="0" x="1034.4063" y="643.0781">1 usuario</text><text fill="#000000" font-family="sans-serif" font-size="20.3125" lengthAdjust="spacing" textLength="0" x="1034.4063" y="658.7031">0..* limpiezas</text></g><!--SRC=[bLRBRjj65DtpAowqaPtAghFenaW3C1RT2fN5bAA3eYX0ZCYnDGt5OMQ62Up47vDb5btr4_nZlVCWHKgabN8X3UU-ptrHlcT5IGJPGbOoUFdJkIURcpGdKlfA2RQk59sdl5Yn1mhddZU6duSVf0RBU3xpPy7g2AT72yNKFOnkLa6q6W6HO4xmsGDu0Io32vWlu-2N889Nhzx-zlertf-TuKybgIZ8be9xBk2T7rt-waT8Az7jJrnaoOR8pHwjuDkrQAIwDBebB8S1Ma7MESrQj3TXk0Zy9T9IGOcYMK9KJPlvSH3FhmFlSHTYXEmsH7Cw7k9GU1cLgM2bOhnetJzsmKnsvdQlpgR6BZamFBcojb-0u3aTehVC1AlOlvo7IsEaVlcEi7OPQ4TLhLbAKXrJ5tUfICOFk5kGzwCT-ylVRmBZcZqUTqoRqWxiX-vmINd6xdXFPSYIfkmme9IKg2uZcRbtwheHzQTl4SRMSNquxhOYnOVAv0lQbleT7tPzttbqnlh-ZFij6O0ndD2_fzWMKUJFmcW2_cKyVnTEu38mDwSeV4lJ3KbqyZJG_Pcxli5QYeBGG52_78SXvwe1eHS6OxlLlurj0850y4Bg3aSL-x8wD45lgQ15oWWGDw9EU4a54OphmFWQU-gZYOfAL1u7VyHMSPLhl18Kx01Ci7zLbHt2w9un-ANYy2D4j1GyfLAVPzZvH6XzRS2kmjY2fG_7WTfMc491-K2PYqgH_g4g51roTum5iwOFP0AtBAUAJg1aD9zEftiOj1L-I1F-lcUQAhub6KbeCJX9tynnreIHRuAkNxvdPLGwNRP8UYAdtP9lptv3s1FKIKpjmEe5PMo6b9WWbwf8pXxqEQL2w7-gqgaPvOhaEQqLkAgnNRBXWXn0W4qMbjeeoKyXne8bg0DojaMy7n0DVB7p0Ak5VaJ7kTmRYSbYVlrs7lpfjsPZS_U_fitpFJRKO7tTPHhAh0Q5FhN1U3p-hH452xDvZdzie25R0XBkpPAJdctbBr_EplZdzgAyWD7Bkc3-AiwdKxiLvSYpz049v77SJXO5zEUGsonKJXo0UD032__gTiJZBTVfQZQfi-7Mbz5lLzJJluMpufIDFCS4jP1P7M25B9EJC5P7dgCt_CsSDHAQoV4txesyXiV9c743jPMQqScPM4pmrxK6s61ru5_9HGDFDm5TBxhmjnn1fLTQlHiLLcD3XvDxee5w-Wf4uAShETK2VfKnnSNJFwHhiXaVVHcdTmnrQfFZ7MDh5TGJuuVsYBYZnTCtWHypskp2TUQkCMMhCrtMEedUzM9Fyke-7xaWdXNj1hEJ_Gy0]--></g></svg>