<?xml version="1.0" encoding="utf-8"?>
<!-- Generator: Adobe Illustrator 22.1.0, SVG Export Plug-In . SVG Version: 6.00 Build 0)  -->
<svg version="1.1" id="Capa_1" xmlns="http://www.w3.org/2000/svg" xmlns:xlink="http://www.w3.org/1999/xlink" x="0px" y="0px"
	 viewBox="0 0 1592.2 1465.6" style="enable-background:new 0 0 1592.2 1465.6;" xml:space="preserve">
<style type="text/css">
	.st0{fill:#FFD3CC;stroke:#181818;stroke-width:1.5625;}
	.st1{fill:#EB937F;stroke:#181818;stroke-width:1.5625;}
	.st2{fill:none;}
	.st3{font-family:'ArialMT';}
	.st4{font-size:21.8843px;}
	.st5{fill:none;stroke:#181818;stroke-width:0.7813;}
	.st6{fill:#DEFFE0;stroke:#181818;stroke-width:1.5625;}
	.st7{fill:#ADD1B2;stroke:#181818;stroke-width:1.5625;}
	.st8{letter-spacing:5;}
	.st9{letter-spacing:10;}
	.st10{letter-spacing:11;}
	.st11{letter-spacing:14;}
	.st12{letter-spacing:13;}
	.st13{letter-spacing:12;}
	.st14{letter-spacing:7;}
	.st15{letter-spacing:9;}
	.st16{letter-spacing:8;}
	.st17{fill:none;stroke:#181818;stroke-width:1.5625;}
	.st18{font-size:20.3212px;}
	.st19{fill:none;stroke:#181818;stroke-width:1.5625;stroke-dasharray:7,7;}
	.st20{fill:#181818;stroke:#181818;stroke-width:1.5625;}
</style>
<g id="elem_LoteEstado">
	<path id="LoteEstado" class="st0" d="M64.8,38.7h164.1c2.2,0,3.9,1.7,3.9,3.9v143.6c0,2.2-1.7,3.9-3.9,3.9H64.8
		c-2.2,0-3.9-1.7-3.9-3.9V42.6C60.9,40.4,62.7,38.7,64.8,38.7z"/>
	<ellipse class="st1" cx="84.4" cy="63.7" rx="17.2" ry="17.2"/>
	<path d="M90.8,73.1H78.7V53.7h12.1v3.4h-8.2v4.2H90v3.4h-7.4v5.1h8.2C90.8,69.8,90.8,73.1,90.8,73.1z"/>
	<rect x="106.3" y="52.5" class="st2" width="121.9" height="25.9"/>
	<text transform="matrix(0.9997 0 0 1 106.2568 71.2686)" class="st3 st4">LoteEstad</text>
	<text transform="matrix(0.9997 0 0 1 216.0239 71.2686)" class="st3 st4">o</text>
	<line class="st5" x1="62.5" y1="88.7" x2="231.3" y2="88.7"/>
	<rect x="70.3" y="96.5" class="st2" width="128.1" height="25.9"/>
	<text transform="matrix(0.9997 0 0 1 70.3149 115.269)" class="st3 st4">BORRADO</text>
	<text transform="matrix(0.9997 0 0 1 182.6812 115.269)" class="st3 st4">R</text>
	<text transform="matrix(0.9997 0 0 1 70.3145 140.7446)" class="st3 st4">ACTIVO</text>
	<text transform="matrix(0.9997 0 0 1 70.3145 166.2192)" class="st3 st4">CERRADO</text>
	<line class="st5" x1="62.5" y1="177.6" x2="231.3" y2="177.6"/>
</g>
<g id="elem_FotoEstado">
	<path id="FotoEstado" class="st0" d="M252.2,38.7h165.6c2.2,0,3.9,1.7,3.9,3.9v143.6c0,2.2-1.7,3.9-3.9,3.9H252.2
		c-2.2,0-3.9-1.7-3.9-3.9V42.6C248.3,40.4,250.1,38.7,252.2,38.7z"/>
	
		<ellipse transform="matrix(0.2298 -0.9732 0.9732 0.2298 147.2802 313.4965)" class="st1" cx="271.7" cy="63.7" rx="17.2" ry="17.2"/>
	<path d="M278.2,73.1h-12.1V53.7h12.1v3.4H270v4.2h7.4v3.4H270v5.1h8.2V73.1z"/>
	<rect x="293.6" y="52.5" class="st2" width="123.5" height="25.9"/>
	<text transform="matrix(0.9997 0 0 1 293.6274 71.2686)" class="st3 st4">FotoEstad</text>
	<text transform="matrix(0.9997 0 0 1 404.8936 71.2686)" class="st3 st4">o</text>
	<line class="st5" x1="249.9" y1="88.7" x2="420.2" y2="88.7"/>
	<text transform="matrix(0.9997 0 0 1 257.6851 115.2695)" class="st3 st4">PENDIENTE</text>
	<text transform="matrix(0.9997 0 0 1 257.6851 140.7446)" class="st3 st4">PROCESADA</text>
	<rect x="257.7" y="147.4" class="st2" width="136" height="25.9"/>
	<text transform="matrix(0.9997 0 0 1 257.6855 166.2188)" class="st3 st4">RECHAZAD</text>
	<text transform="matrix(0.9997 0 0 1 379.0488 166.2188)" class="st3 st4">A</text>
	<line class="st5" x1="249.9" y1="177.6" x2="420.2" y2="177.6"/>
</g>
<g id="elem_PartePez">
	<path id="PartePez" class="st0" d="M67.9,204.9h160.4c2.5,0,4.5,1.7,4.5,3.9v169.1c0,2.2-2,3.9-4.5,3.9H67.9
		c-2.5,0-4.5-1.7-4.5-3.9V208.8C63.4,206.6,65.5,204.9,67.9,204.9z"/>
	<ellipse class="st1" cx="86.9" cy="229.9" rx="17.2" ry="17.2"/>
	<path d="M93.3,239.3H81.2v-19.4h12.1v3.4h-8.2v4.2h7.4v3.4h-7.4v5.1h8.2C93.3,236,93.3,239.3,93.3,239.3z"/>
	<rect x="108.8" y="218.7" class="st2" width="96.9" height="25.9"/>
	<text transform="matrix(0.9997 0 0 1 108.7583 237.4756)" class="st3 st4">PartePe</text>
	<text transform="matrix(0.9997 0 0 1 194.7324 237.4756)" class="st3 st4">z</text>
	<line class="st5" x1="63.4" y1="254.9" x2="232.8" y2="254.9"/>
	<rect x="72.8" y="262.7" class="st2" width="89.1" height="25.9"/>
	<text transform="matrix(0.9997 0 0 1 72.8164 281.4766)" class="st3 st4">CABEZ</text>
	<text transform="matrix(0.9997 0 0 1 147.2939 281.4766)" class="st3 st4">A</text>
	<text transform="matrix(0.9997 0 0 1 72.8159 306.9512)" class="st3 st4">FILETE</text>
	<text transform="matrix(0.9997 0 0 1 72.8159 332.4268)" class="st3 st4">PIEL</text>
	<text transform="matrix(0.9997 0 0 1 72.8159 357.9014)" class="st3 st4">VISCERAS</text>
	<line class="st5" x1="63.4" y1="369.3" x2="232.8" y2="369.3"/>
</g>
<g id="elem_Estacion">
	<path id="Estacion" class="st6" d="M490.4,35.9H706c2.2,0,3.9,1.7,3.9,3.9V209c0,2.2-1.7,3.9-3.9,3.9H490.4c-2.2,0-3.9-1.7-3.9-3.9
		V39.9C486.5,37.7,488.2,35.9,490.4,35.9z"/>
	<ellipse class="st7" cx="546.5" cy="61" rx="17.2" ry="17.2"/>
	<path d="M551.1,69.8c-0.6,0.3-1.2,0.5-1.9,0.7s-1.4,0.2-2.1,0.2c-2.6,0-4.6-0.9-6-2.6s-2.1-4.2-2.1-7.5s0.7-5.7,2.1-7.5
		c1.4-1.7,3.4-2.6,6-2.6c0.7,0,1.4,0.1,2.1,0.2c0.7,0.2,1.3,0.4,1.9,0.7v4.2c-0.7-0.6-1.3-1-1.9-1.3c-0.6-0.3-1.3-0.4-1.9-0.4
		c-1.4,0-2.5,0.6-3.2,1.7c-0.7,1.1-1.1,2.8-1.1,4.9s0.4,3.8,1.1,5c0.7,1.1,1.8,1.7,3.2,1.7c0.7,0,1.3-0.1,1.9-0.4
		c0.6-0.3,1.3-0.7,1.9-1.3V69.8z"/>
	<rect x="576.5" y="49.7" class="st2" width="92.2" height="25.9"/>
	<text transform="matrix(0.9997 0 0 1 576.4717 68.5288)" class="st3 st4">Estacio</text>
	<text transform="matrix(0.9997 0 0 1 656.5479 68.5288)" class="st3 st4">n</text>
	<line class="st5" x1="488" y1="86" x2="708.4" y2="86"/>
	<rect x="495.8" y="93.7" class="st2" width="84.4" height="25.9"/>
	<text transform="matrix(0.9997 0 0 1 495.8369 112.5293)" class="st3 st4">+id</text>
	<text transform="matrix(0.9997 0 0 1 525.6279 112.5293)" class="st3 st4 st8"> </text>
	<text transform="matrix(0.9997 0 0 1 538.3242 112.5293)" class="st3 st4">:</text>
	<text transform="matrix(0.9997 0 0 1 544.4219 112.5293)" class="st3 st4 st8"> </text>
	<text transform="matrix(0.9997 0 0 1 557.1182 112.5293)" class="st3 st4">int</text>
	<rect x="495.8" y="119.2" class="st2" width="186" height="25.9"/>
	<text transform="matrix(0.9997 0 0 1 495.8369 138.0044)" class="st3 st4">+nombre</text>
	<text transform="matrix(0.9997 0 0 1 582.8105 138.0044)" class="st3 st4 st9"> </text>
	<text transform="matrix(0.9997 0 0 1 600.7051 138.0044)" class="st3 st4">:</text>
	<text transform="matrix(0.9997 0 0 1 606.8037 138.0044)" class="st3 st4 st9"> </text>
	<text transform="matrix(0.9997 0 0 1 624.5977 138.0044)" class="st3 st4">String</text>
	<rect x="495.8" y="144.7" class="st2" width="204.7" height="25.9"/>
	<text transform="matrix(0.9997 0 0 1 495.8369 163.479)" class="st3 st4">+ubicacion</text>
	<text transform="matrix(0.9997 0 0 1 601.0049 163.479)" class="st3 st4 st10"> </text>
	<text transform="matrix(0.9997 0 0 1 619.2002 163.479)" class="st3 st4">:</text>
	<text transform="matrix(0.9997 0 0 1 625.2979 163.479)" class="st3 st4 st10"> </text>
	<text transform="matrix(0.9997 0 0 1 643.3926 163.479)" class="st3 st4">String</text>
	<rect x="495.8" y="170.2" class="st2" width="176.6" height="25.9"/>
	<text transform="matrix(0.9997 0 0 1 495.8369 188.9536)" class="st3 st4">+estado</text>
	<text transform="matrix(0.9997 0 0 1 574.3135 188.9536)" class="st3 st4 st9"> </text>
	<text transform="matrix(0.9997 0 0 1 591.708 188.9536)" class="st3 st4">:</text>
	<text transform="matrix(0.9997 0 0 1 597.8066 188.9536)" class="st3 st4 st9"> </text>
	<text transform="matrix(0.9997 0 0 1 615.3008 188.9536)" class="st3 st4">String</text>
	<line class="st5" x1="488" y1="200.4" x2="708.4" y2="200.4"/>
</g>
<g id="elem_Tanque">
	<path id="Tanque" class="st6" d="M460.7,320.9h275c2.2,0,3.9,1.7,3.9,3.9v169.1c0,2.2-1.7,3.9-3.9,3.9h-275c-2.2,0-3.9-1.7-3.9-3.9
		V324.8C456.8,322.6,458.5,320.9,460.7,320.9z"/>
	<ellipse class="st7" cx="550.1" cy="345.9" rx="17.2" ry="17.2"/>
	<path d="M554.8,354.7c-0.6,0.3-1.2,0.5-1.9,0.7s-1.4,0.2-2.1,0.2c-2.6,0-4.6-0.9-6-2.6s-2.1-4.2-2.1-7.5s0.7-5.7,2.1-7.5
		c1.4-1.7,3.4-2.6,6-2.6c0.7,0,1.4,0.1,2.1,0.2c0.7,0.2,1.3,0.4,1.9,0.7v4.2c-0.7-0.6-1.3-1-1.9-1.3c-0.6-0.3-1.3-0.4-1.9-0.4
		c-1.4,0-2.5,0.6-3.2,1.7s-1.1,2.8-1.1,4.9c0,2.2,0.4,3.8,1.1,5c0.7,1.1,1.8,1.7,3.2,1.7c0.7,0,1.3-0.1,1.9-0.4
		c0.6-0.3,1.3-0.7,1.9-1.3V354.7z"/>
	<rect x="582.2" y="334.7" class="st2" width="82.8" height="25.9"/>
	<text transform="matrix(0.9997 0 0 1 582.1758 353.4756)" class="st3 st4">Tanqu</text>
	<text transform="matrix(0.9997 0 0 1 652.8545 353.4756)" class="st3 st4">e</text>
	<line class="st5" x1="458.3" y1="370.9" x2="738.1" y2="370.9"/>
	<rect x="466.1" y="378.7" class="st2" width="84.4" height="25.9"/>
	<text transform="matrix(0.9997 0 0 1 466.1465 397.4766)" class="st3 st4">+id</text>
	<text transform="matrix(0.9997 0 0 1 495.9375 397.4766)" class="st3 st4 st8"> </text>
	<text transform="matrix(0.9997 0 0 1 508.6338 397.4766)" class="st3 st4">:</text>
	<text transform="matrix(0.9997 0 0 1 514.7314 397.4766)" class="st3 st4 st8"> </text>
	<text transform="matrix(0.9997 0 0 1 527.4277 397.4766)" class="st3 st4">int</text>
	<rect x="466.1" y="404.2" class="st2" width="186" height="25.9"/>
	<text transform="matrix(0.9997 0 0 1 466.1465 422.9512)" class="st3 st4">+nombre</text>
	<text transform="matrix(0.9997 0 0 1 553.1201 422.9512)" class="st3 st4 st9"> </text>
	<text transform="matrix(0.9997 0 0 1 571.0146 422.9512)" class="st3 st4">:</text>
	<text transform="matrix(0.9997 0 0 1 577.1133 422.9512)" class="st3 st4 st9"> </text>
	<text transform="matrix(0.9997 0 0 1 594.9082 422.9512)" class="st3 st4">String</text>
	<rect x="466.1" y="429.6" class="st2" width="264.1" height="25.9"/>
	<text transform="matrix(0.9997 0 0 1 466.1465 448.4258)" class="st3 st4">+volumenLitros</text>
	<text transform="matrix(0.9997 0 0 1 615.1016 448.4258)" class="st3 st4 st11"> </text>
	<text transform="matrix(0.9997 0 0 1 636.7949 448.4258)" class="st3 st4">:</text>
	<text transform="matrix(0.9997 0 0 1 642.8936 448.4258)" class="st3 st4 st11"> </text>
	<text transform="matrix(0.9997 0 0 1 664.5869 448.4258)" class="st3 st4">double</text>
	<rect x="466.1" y="455.1" class="st2" width="259.4" height="25.9"/>
	<text transform="matrix(0.9997 0 0 1 466.1465 473.9004)" class="st3 st4">+observaciones</text>
	<text transform="matrix(0.9997 0 0 1 620 473.9004)" class="st3 st4 st11"> </text>
	<text transform="matrix(0.9997 0 0 1 641.1934 473.9004)" class="st3 st4">:</text>
	<text transform="matrix(0.9997 0 0 1 647.1924 473.9004)" class="st3 st4 st11"> </text>
	<text transform="matrix(0.9997 0 0 1 668.3857 473.9004)" class="st3 st4">String</text>
	<line class="st5" x1="458.3" y1="485.3" x2="738.1" y2="485.3"/>
</g>
<g id="elem_Lote">
	<path id="Lote" class="st6" d="M940.4,648.6h246.9c2.2,0,3.9,1.7,3.9,3.9v143.6c0,2.2-1.7,3.9-3.9,3.9H940.4
		c-2.2,0-3.9-1.7-3.9-3.9V652.5C936.5,650.3,938.3,648.6,940.4,648.6z"/>
	
		<ellipse transform="matrix(0.1602 -0.9871 0.9871 0.1602 203.3014 1586.1521)" class="st7" cx="1033.8" cy="673.6" rx="17.2" ry="17.2"/>
	<path d="M1038.4,682.4c-0.6,0.3-1.2,0.5-1.9,0.7c-0.7,0.2-1.4,0.2-2.1,0.2c-2.6,0-4.6-0.9-6-2.6c-1.4-1.7-2.1-4.2-2.1-7.5
		s0.7-5.7,2.1-7.5c1.4-1.7,3.4-2.6,6-2.6c0.7,0,1.4,0.1,2.1,0.2c0.7,0.2,1.3,0.4,1.9,0.7v4.2c-0.7-0.6-1.3-1-1.9-1.3
		s-1.3-0.4-1.9-0.4c-1.4,0-2.5,0.6-3.2,1.7c-0.7,1.1-1.1,2.8-1.1,4.9c0,2.2,0.4,3.8,1.1,5c0.7,1.1,1.8,1.7,3.2,1.7
		c0.7,0,1.3-0.1,1.9-0.4c0.6-0.3,1.3-0.7,1.9-1.3V682.4z"/>
	<rect x="1065.8" y="662.4" class="st2" width="46.9" height="25.9"/>
	<text transform="matrix(0.9997 0 0 1 1065.8262 681.1777)" class="st3 st4">Lot</text>
	<text transform="matrix(0.9997 0 0 1 1100.5156 681.1777)" class="st3 st4">e</text>
	<line class="st5" x1="938.1" y1="698.6" x2="1189.7" y2="698.6"/>
	<rect x="945.9" y="706.4" class="st2" width="84.4" height="25.9"/>
	<text transform="matrix(0.9997 0 0 1 945.8906 725.1787)" class="st3 st4">+id</text>
	<text transform="matrix(0.9997 0 0 1 975.6816 725.1787)" class="st3 st4 st8"> </text>
	<text transform="matrix(0.9997 0 0 1 988.3779 725.1787)" class="st3 st4">:</text>
	<text transform="matrix(0.9997 0 0 1 994.4756 725.1787)" class="st3 st4 st8"> </text>
	<text transform="matrix(0.9997 0 0 1 1007.1719 725.1787)" class="st3 st4">int</text>
	<rect x="945.9" y="731.9" class="st2" width="186" height="25.9"/>
	<text transform="matrix(0.9997 0 0 1 945.8906 750.6533)" class="st3 st4">+nombre</text>
	<text transform="matrix(0.9997 0 0 1 1032.8643 750.6533)" class="st3 st4 st9"> </text>
	<text transform="matrix(0.9997 0 0 1 1050.7588 750.6533)" class="st3 st4">:</text>
	<text transform="matrix(0.9997 0 0 1 1056.8574 750.6533)" class="st3 st4 st9"> </text>
	<text transform="matrix(0.9997 0 0 1 1074.6523 750.6533)" class="st3 st4">String</text>
	<rect x="945.9" y="757.3" class="st2" width="236" height="25.9"/>
	<text transform="matrix(0.9997 0 0 1 945.8906 776.1279)" class="st3 st4">+estado</text>
	<text transform="matrix(0.9997 0 0 1 1024.3672 776.1279)" class="st3 st4 st12"> </text>
	<text transform="matrix(0.9997 0 0 1 1044.7607 776.1279)" class="st3 st4">:</text>
	<text transform="matrix(0.9997 0 0 1 1050.7588 776.1279)" class="st3 st4 st12"> </text>
	<text transform="matrix(0.9997 0 0 1 1071.1533 776.1279)" class="st3 st4">LoteEstado</text>
	<line class="st5" x1="938.1" y1="787.5" x2="1189.7" y2="787.5"/>
</g>
<g id="elem_Muestreo">
	<path id="Muestreo" class="st6" d="M1044.3,925.3h270.3c2.2,0,3.9,1.7,3.9,3.9v143.6c0,2.2-1.7,3.9-3.9,3.9h-270.3
		c-2.2,0-3.9-1.7-3.9-3.9V929.2C1040.4,927.1,1042.2,925.3,1044.3,925.3z"/>
	<ellipse class="st7" cx="1121.3" cy="950.3" rx="17.2" ry="17.2"/>
	<path d="M1125.9,959.1c-0.6,0.3-1.2,0.5-1.9,0.7c-0.7,0.2-1.4,0.2-2.1,0.2c-2.6,0-4.6-0.9-6-2.6c-1.4-1.7-2.1-4.2-2.1-7.5
		s0.7-5.7,2.1-7.5c1.4-1.7,3.4-2.6,6-2.6c0.7,0,1.4,0.1,2.1,0.2c0.7,0.2,1.3,0.4,1.9,0.7v4.2c-0.7-0.6-1.3-1-1.9-1.3
		s-1.3-0.4-1.9-0.4c-1.4,0-2.5,0.6-3.2,1.7c-0.7,1.1-1.1,2.8-1.1,4.9s0.4,3.8,1.1,5c0.7,1.1,1.8,1.7,3.2,1.7c0.7,0,1.3-0.1,1.9-0.4
		c0.6-0.3,1.3-0.7,1.9-1.3V959.1z"/>
	<rect x="1153.3" y="939.1" class="st2" width="103.1" height="25.9"/>
	<text transform="matrix(0.9997 0 0 1 1153.3369 957.9053)" class="st3 st4">Muestre</text>
	<text transform="matrix(0.9997 0 0 1 1244.3096 957.9053)" class="st3 st4">o</text>
	<line class="st5" x1="1042" y1="975.3" x2="1317" y2="975.3"/>
	<rect x="1049.8" y="983.1" class="st2" width="84.4" height="25.9"/>
	<text transform="matrix(0.9997 0 0 1 1049.8086 1001.9063)" class="st3 st4">+id</text>
	<text transform="matrix(0.9997 0 0 1 1079.5996 1001.9063)" class="st3 st4 st8"> </text>
	<text transform="matrix(0.9997 0 0 1 1092.2959 1001.9063)" class="st3 st4">:</text>
	<text transform="matrix(0.9997 0 0 1 1098.3936 1001.9063)" class="st3 st4 st8"> </text>
	<text transform="matrix(0.9997 0 0 1 1111.0898 1001.9063)" class="st3 st4">int</text>
	<rect x="1049.8" y="1008.6" class="st2" width="253.2" height="25.9"/>
	<text transform="matrix(0.9997 0 0 1 1049.8086 1027.3809)" class="st3 st4">+fechaHora</text>
	<text transform="matrix(0.9997 0 0 1 1163.4746 1027.3809)" class="st3 st4 st13"> </text>
	<text transform="matrix(0.9997 0 0 1 1182.7686 1027.3809)" class="st3 st4">:</text>
	<text transform="matrix(0.9997 0 0 1 1188.8672 1027.3809)" class="st3 st4 st13"> </text>
	<text transform="matrix(0.9997 0 0 1 1208.1611 1027.3809)" class="st3 st4">DateTime</text>
	<rect x="1049.8" y="1034.1" class="st2" width="259.4" height="25.9"/>
	<text transform="matrix(0.9997 0 0 1 1049.8086 1052.8555)" class="st3 st4">+observaciones</text>
	<text transform="matrix(0.9997 0 0 1 1203.6621 1052.8555)" class="st3 st4 st11"> </text>
	<text transform="matrix(0.9997 0 0 1 1224.8555 1052.8555)" class="st3 st4">:</text>
	<text transform="matrix(0.9997 0 0 1 1230.8545 1052.8555)" class="st3 st4 st11"> </text>
	<text transform="matrix(0.9997 0 0 1 1252.0479 1052.8555)" class="st3 st4">String</text>
	<line class="st5" x1="1042" y1="1064.3" x2="1317" y2="1064.3"/>
</g>
<g id="elem_Foto">
	<path id="Foto" class="st6" d="M1162.3,1172.1h256.3c2.2,0,3.9,1.7,3.9,3.9v271c0,2.2-1.7,3.9-3.9,3.9h-256.3
		c-2.2,0-3.9-1.7-3.9-3.9v-271C1158.4,1173.9,1160.2,1172.1,1162.3,1172.1z"/>
	<ellipse class="st7" cx="1259.6" cy="1197.1" rx="17.2" ry="17.2"/>
	<path d="M1264.2,1206c-0.6,0.3-1.2,0.5-1.9,0.7c-0.7,0.2-1.4,0.2-2.1,0.2c-2.6,0-4.6-0.9-6-2.6s-2.1-4.2-2.1-7.5s0.7-5.7,2.1-7.5
		c1.4-1.7,3.4-2.6,6-2.6c0.7,0,1.4,0.1,2.1,0.2c0.7,0.2,1.3,0.4,1.9,0.7v4.2c-0.7-0.6-1.3-1-1.9-1.3s-1.3-0.4-1.9-0.4
		c-1.4,0-2.5,0.6-3.2,1.7s-1.1,2.8-1.1,4.9c0,2.2,0.4,3.8,1.1,5c0.7,1.1,1.8,1.7,3.2,1.7c0.7,0,1.3-0.1,1.9-0.4s1.3-0.7,1.9-1.3
		V1206z"/>
	<rect x="1291.6" y="1185.9" class="st2" width="48.4" height="25.9"/>
	<text transform="matrix(0.9997 0 0 1 1291.6338 1204.7139)" class="st3 st4">Fot</text>
	<text transform="matrix(0.9997 0 0 1 1327.9229 1204.7139)" class="st3 st4">o</text>
	<line class="st5" x1="1160" y1="1222.1" x2="1420.9" y2="1222.1"/>
	<rect x="1167.8" y="1229.9" class="st2" width="84.4" height="25.9"/>
	<text transform="matrix(0.9997 0 0 1 1167.791 1248.7148)" class="st3 st4">+id</text>
	<text transform="matrix(0.9997 0 0 1 1197.582 1248.7148)" class="st3 st4 st8"> </text>
	<text transform="matrix(0.9997 0 0 1 1210.2783 1248.7148)" class="st3 st4">:</text>
	<text transform="matrix(0.9997 0 0 1 1216.376 1248.7148)" class="st3 st4 st8"> </text>
	<text transform="matrix(0.9997 0 0 1 1229.0723 1248.7148)" class="st3 st4">int</text>
	<rect x="1167.8" y="1255.4" class="st2" width="143.8" height="25.9"/>
	<text transform="matrix(0.9997 0 0 1 1167.791 1274.1895)" class="st3 st4">+ruta</text>
	<text transform="matrix(0.9997 0 0 1 1218.2754 1274.1895)" class="st3 st4 st14"> </text>
	<text transform="matrix(0.9997 0 0 1 1233.2715 1274.1895)" class="st3 st4">:</text>
	<text transform="matrix(0.9997 0 0 1 1239.3691 1274.1895)" class="st3 st4 st14"> </text>
	<text transform="matrix(0.9997 0 0 1 1254.3652 1274.1895)" class="st3 st4">String</text>
	<rect x="1167.8" y="1280.9" class="st2" width="192.2" height="25.9"/>
	<text transform="matrix(0.9997 0 0 1 1167.791 1299.6641)" class="st3 st4">+parte</text>
	<text transform="matrix(0.9997 0 0 1 1230.4717 1299.6641)" class="st3 st4 st15"> </text>
	<text transform="matrix(0.9997 0 0 1 1247.167 1299.6641)" class="st3 st4">:</text>
	<text transform="matrix(0.9997 0 0 1 1253.2656 1299.6641)" class="st3 st4 st15"> </text>
	<text transform="matrix(0.9997 0 0 1 1270.0605 1299.6641)" class="st3 st4">PartePez</text>
	<rect x="1167.8" y="1306.4" class="st2" width="237.5" height="25.9"/>
	<text transform="matrix(0.9997 0 0 1 1167.791 1325.1387)" class="st3 st4">+estado</text>
	<text transform="matrix(0.9997 0 0 1 1246.2676 1325.1387)" class="st3 st4 st12"> </text>
	<text transform="matrix(0.9997 0 0 1 1266.7617 1325.1387)" class="st3 st4">:</text>
	<text transform="matrix(0.9997 0 0 1 1272.8594 1325.1387)" class="st3 st4 st12"> </text>
	<text transform="matrix(0.9997 0 0 1 1293.4531 1325.1387)" class="st3 st4">FotoEstado</text>
	<rect x="1167.8" y="1331.8" class="st2" width="168.8" height="25.9"/>
	<text transform="matrix(0.9997 0 0 1 1167.791 1350.6133)" class="st3 st4">+labelIa</text>
	<text transform="matrix(0.9997 0 0 1 1245.0674 1350.6133)" class="st3 st4 st14"> </text>
	<text transform="matrix(0.9997 0 0 1 1259.1631 1350.6133)" class="st3 st4">:</text>
	<text transform="matrix(0.9997 0 0 1 1265.2617 1350.6133)" class="st3 st4 st14"> </text>
	<text transform="matrix(0.9997 0 0 1 1279.457 1350.6133)" class="st3 st4">String</text>
	<rect x="1167.8" y="1357.3" class="st2" width="245.3" height="25.9"/>
	<text transform="matrix(0.9997 0 0 1 1167.791 1376.0879)" class="st3 st4">+probabilidad</text>
	<text transform="matrix(0.9997 0 0 1 1299.751 1376.0879)" class="st3 st4 st12"> </text>
	<text transform="matrix(0.9997 0 0 1 1320.5449 1376.0879)" class="st3 st4">:</text>
	<text transform="matrix(0.9997 0 0 1 1326.6436 1376.0879)" class="st3 st4 st12"> </text>
	<text transform="matrix(0.9997 0 0 1 1347.4375 1376.0879)" class="st3 st4">double</text>
	<rect x="1167.8" y="1382.8" class="st2" width="245.3" height="25.9"/>
	<text transform="matrix(0.9997 0 0 1 1167.791 1401.5625)" class="st3 st4">+mensajeError</text>
	<text transform="matrix(0.9997 0 0 1 1311.8477 1401.5625)" class="st3 st4 st10"> </text>
	<text transform="matrix(0.9997 0 0 1 1330.8418 1401.5625)" class="st3 st4">:</text>
	<text transform="matrix(0.9997 0 0 1 1336.9404 1401.5625)" class="st3 st4 st10"> </text>
	<text transform="matrix(0.9997 0 0 1 1355.9346 1401.5625)" class="st3 st4">String</text>
	<rect x="1167.8" y="1408.3" class="st2" width="182.8" height="25.9"/>
	<text transform="matrix(0.9997 0 0 1 1167.791 1427.0371)" class="st3 st4">+qcOk</text>
	<text transform="matrix(0.9997 0 0 1 1231.6719 1427.0371)" class="st3 st4 st9"> </text>
	<text transform="matrix(0.9997 0 0 1 1249.166 1427.0371)" class="st3 st4">:</text>
	<text transform="matrix(0.9997 0 0 1 1255.2646 1427.0371)" class="st3 st4 st9"> </text>
	<text transform="matrix(0.9997 0 0 1 1272.7598 1427.0371)" class="st3 st4">boolean</text>
	<line class="st5" x1="1160" y1="1438.5" x2="1420.9" y2="1438.5"/>
</g>
<g id="elem_Usuario">
	<path id="Usuario" class="st6" d="M963.9,18.7h221.9c2.2,0,3.9,1.7,3.9,3.9v143.6c0,2.2-1.7,3.9-3.9,3.9H963.9
		c-2.2,0-3.9-1.7-3.9-3.9V22.6C960,20.4,961.7,18.7,963.9,18.7z"/>
	
		<ellipse transform="matrix(0.2076 -0.9782 0.9782 0.2076 771.6101 1039.9403)" class="st7" cx="1027.7" cy="43.7" rx="17.2" ry="17.2"/>
	<path d="M1032.3,52.5c-0.6,0.3-1.2,0.5-1.9,0.7c-0.7,0.2-1.4,0.2-2.1,0.2c-2.6,0-4.6-0.9-6-2.6c-1.4-1.7-2.1-4.2-2.1-7.5
		s0.7-5.7,2.1-7.5c1.4-1.7,3.4-2.6,6-2.6c0.7,0,1.4,0.1,2.1,0.2c0.7,0.2,1.3,0.4,1.9,0.7v4.2c-0.7-0.6-1.3-1-1.9-1.3
		s-1.3-0.4-1.9-0.4c-1.4,0-2.5,0.6-3.2,1.7c-0.7,1.1-1.1,2.8-1.1,4.9c0,2.2,0.4,3.8,1.1,5c0.7,1.1,1.8,1.7,3.2,1.7
		c0.7,0,1.3-0.1,1.9-0.4c0.6-0.3,1.3-0.7,1.9-1.3V52.5z"/>
	<rect x="1059.4" y="32.5" class="st2" width="81.3" height="25.9"/>
	<text transform="matrix(0.9997 0 0 1 1059.4189 51.2686)" class="st3 st4">Usuari</text>
	<text transform="matrix(0.9997 0 0 1 1128.498 51.2686)" class="st3 st4">o</text>
	<line class="st5" x1="961.5" y1="68.7" x2="1188.1" y2="68.7"/>
	<rect x="969.3" y="76.5" class="st2" width="84.4" height="25.9"/>
	<text transform="matrix(0.9997 0 0 1 969.3311 95.269)" class="st3 st4">+id</text>
	<text transform="matrix(0.9997 0 0 1 999.1221 95.269)" class="st3 st4 st8"> </text>
	<text transform="matrix(0.9997 0 0 1 1011.8184 95.269)" class="st3 st4">:</text>
	<text transform="matrix(0.9997 0 0 1 1017.916 95.269)" class="st3 st4 st8"> </text>
	<text transform="matrix(0.9997 0 0 1 1030.6123 95.269)" class="st3 st4">int</text>
	<rect x="969.3" y="102" class="st2" width="211" height="25.9"/>
	<text transform="matrix(0.9997 0 0 1 969.3311 120.7441)" class="st3 st4">+username</text>
	<text transform="matrix(0.9997 0 0 1 1079.3984 120.7441)" class="st3 st4 st10"> </text>
	<text transform="matrix(0.9997 0 0 1 1098.1924 120.7441)" class="st3 st4">:</text>
	<text transform="matrix(0.9997 0 0 1 1104.291 120.7441)" class="st3 st4 st10"> </text>
	<text transform="matrix(0.9997 0 0 1 1123.1846 120.7441)" class="st3 st4">String</text>
	<rect x="969.3" y="127.4" class="st2" width="189.1" height="25.9"/>
	<text transform="matrix(0.9997 0 0 1 969.3311 146.2188)" class="st3 st4">+activo</text>
	<text transform="matrix(0.9997 0 0 1 1039.21 146.2188)" class="st3 st4 st9"> </text>
	<text transform="matrix(0.9997 0 0 1 1056.9043 146.2188)" class="st3 st4">:</text>
	<text transform="matrix(0.9997 0 0 1 1062.9023 146.2188)" class="st3 st4 st9"> </text>
	<text transform="matrix(0.9997 0 0 1 1080.5977 146.2188)" class="st3 st4">boolean</text>
	<line class="st5" x1="961.5" y1="157.6" x2="1188.1" y2="157.6"/>
</g>
<g id="elem_Rol">
	<path id="Rol" class="st6" d="M910.7,346.4h196.9c2.2,0,3.9,1.7,3.9,3.9v118.2c0,2.2-1.7,3.9-3.9,3.9H910.7c-2.2,0-3.9-1.7-3.9-3.9
		V350.3C906.8,348.1,908.6,346.4,910.7,346.4z"/>
	<ellipse class="st7" cx="985.3" cy="371.4" rx="17.2" ry="17.2"/>
	<path d="M990,380.2c-0.6,0.3-1.2,0.5-1.9,0.7s-1.4,0.2-2.1,0.2c-2.6,0-4.6-0.9-6-2.6s-2.1-4.2-2.1-7.5s0.7-5.7,2.1-7.5
		c1.4-1.7,3.4-2.6,6-2.6c0.7,0,1.4,0.1,2.1,0.2c0.7,0.2,1.3,0.4,1.9,0.7v4.2c-0.7-0.6-1.3-1-1.9-1.3c-0.6-0.3-1.3-0.4-1.9-0.4
		c-1.4,0-2.5,0.6-3.2,1.7s-1.1,2.8-1.1,4.9c0,2.2,0.4,3.8,1.1,5c0.7,1.1,1.8,1.7,3.2,1.7c0.7,0,1.3-0.1,1.9-0.4
		c0.6-0.3,1.3-0.7,1.9-1.3V380.2z"/>
	<rect x="1017.4" y="360.2" class="st2" width="34.4" height="25.9"/>
	<text transform="matrix(0.9997 0 0 1 1017.3828 378.9551)" class="st3 st4">Ro</text>
	<text transform="matrix(0.9997 0 0 1 1046.874 378.9551)" class="st3 st4">l</text>
	<line class="st5" x1="908.4" y1="396.4" x2="1110" y2="396.4"/>
	<rect x="916.2" y="404.2" class="st2" width="84.4" height="25.9"/>
	<text transform="matrix(0.9997 0 0 1 916.1992 422.9561)" class="st3 st4">+id</text>
	<text transform="matrix(0.9997 0 0 1 945.9902 422.9561)" class="st3 st4 st8"> </text>
	<text transform="matrix(0.9997 0 0 1 958.6865 422.9561)" class="st3 st4">:</text>
	<text transform="matrix(0.9997 0 0 1 964.7842 422.9561)" class="st3 st4 st8"> </text>
	<text transform="matrix(0.9997 0 0 1 977.4805 422.9561)" class="st3 st4">int</text>
	<rect x="916.2" y="429.7" class="st2" width="186" height="25.9"/>
	<text transform="matrix(0.9997 0 0 1 916.1992 448.4307)" class="st3 st4">+nombre</text>
	<text transform="matrix(0.9997 0 0 1 1003.1729 448.4307)" class="st3 st4 st9"> </text>
	<text transform="matrix(0.9997 0 0 1 1021.0674 448.4307)" class="st3 st4">:</text>
	<text transform="matrix(0.9997 0 0 1 1027.166 448.4307)" class="st3 st4 st9"> </text>
	<text transform="matrix(0.9997 0 0 1 1044.9609 448.4307)" class="st3 st4">String</text>
	<line class="st5" x1="908.4" y1="459.8" x2="1110" y2="459.8"/>
</g>
<g id="elem_RegistroBitacora">
	<path id="RegistroBitacora" class="st6" d="M1169.4,295.4h264.1c2.2,0,3.9,1.7,3.9,3.9v220.1c0,2.2-1.7,3.9-3.9,3.9h-264.1
		c-2.2,0-3.9-1.7-3.9-3.9V299.3C1165.4,297.2,1167.2,295.4,1169.4,295.4z"/>
	<ellipse class="st7" cx="1208.6" cy="320.4" rx="17.2" ry="17.2"/>
	<path d="M1213.2,329.3c-0.6,0.3-1.2,0.5-1.9,0.7c-0.7,0.2-1.4,0.2-2.1,0.2c-2.6,0-4.6-0.9-6-2.6s-2.1-4.2-2.1-7.5s0.7-5.7,2.1-7.5
		c1.4-1.7,3.4-2.6,6-2.6c0.7,0,1.4,0.1,2.1,0.2c0.7,0.2,1.3,0.4,1.9,0.7v4.2c-0.7-0.6-1.3-1-1.9-1.3s-1.3-0.4-1.9-0.4
		c-1.4,0-2.5,0.6-3.2,1.7s-1.1,2.8-1.1,4.9c0,2.2,0.4,3.8,1.1,5c0.7,1.1,1.8,1.7,3.2,1.7c0.7,0,1.3-0.1,1.9-0.4s1.3-0.7,1.9-1.3
		V329.3z"/>
	<rect x="1234.8" y="309.2" class="st2" width="178.1" height="25.9"/>
	<text transform="matrix(0.9997 0 0 1 1234.8301 328.0117)" class="st3 st4">RegistroBitacor</text>
	<text transform="matrix(0.9997 0 0 1 1400.7803 328.0117)" class="st3 st4">a</text>
	<line class="st5" x1="1167" y1="345.4" x2="1435.8" y2="345.4"/>
	<rect x="1174.8" y="353.2" class="st2" width="84.4" height="25.9"/>
	<text transform="matrix(0.9997 0 0 1 1174.8232 372.0127)" class="st3 st4">+id</text>
	<text transform="matrix(0.9997 0 0 1 1204.6143 372.0127)" class="st3 st4 st8"> </text>
	<text transform="matrix(0.9997 0 0 1 1217.3105 372.0127)" class="st3 st4">:</text>
	<text transform="matrix(0.9997 0 0 1 1223.4082 372.0127)" class="st3 st4 st8"> </text>
	<text transform="matrix(0.9997 0 0 1 1236.1045 372.0127)" class="st3 st4">int</text>
	<rect x="1174.8" y="378.7" class="st2" width="171.9" height="25.9"/>
	<text transform="matrix(0.9997 0 0 1 1174.8232 397.4873)" class="st3 st4">+accion</text>
	<text transform="matrix(0.9997 0 0 1 1250.8008 397.4873)" class="st3 st4 st15"> </text>
	<text transform="matrix(0.9997 0 0 1 1267.1953 397.4873)" class="st3 st4">:</text>
	<text transform="matrix(0.9997 0 0 1 1273.1934 397.4873)" class="st3 st4 st15"> </text>
	<text transform="matrix(0.9997 0 0 1 1289.5889 397.4873)" class="st3 st4">String</text>
	<rect x="1174.8" y="404.2" class="st2" width="182.8" height="25.9"/>
	<text transform="matrix(0.9997 0 0 1 1174.8232 422.9619)" class="st3 st4">+entidad</text>
	<text transform="matrix(0.9997 0 0 1 1259.3975 422.9619)" class="st3 st4 st9"> </text>
	<text transform="matrix(0.9997 0 0 1 1276.8926 422.9619)" class="st3 st4">:</text>
	<text transform="matrix(0.9997 0 0 1 1282.9902 422.9619)" class="st3 st4 st9"> </text>
	<text transform="matrix(0.9997 0 0 1 1300.4854 422.9619)" class="st3 st4">String</text>
	<rect x="1174.8" y="429.7" class="st2" width="165.6" height="25.9"/>
	<text transform="matrix(0.9997 0 0 1 1174.8232 448.4365)" class="st3 st4">+entidadId</text>
	<text transform="matrix(0.9997 0 0 1 1277.5918 448.4365)" class="st3 st4 st15"> </text>
	<text transform="matrix(0.9997 0 0 1 1294.4873 448.4365)" class="st3 st4">:</text>
	<text transform="matrix(0.9997 0 0 1 1300.4854 448.4365)" class="st3 st4 st15"> </text>
	<text transform="matrix(0.9997 0 0 1 1317.3809 448.4365)" class="st3 st4">int</text>
	<rect x="1174.8" y="455.1" class="st2" width="253.2" height="25.9"/>
	<text transform="matrix(0.9997 0 0 1 1174.8232 473.9111)" class="st3 st4">+fechaHora</text>
	<text transform="matrix(0.9997 0 0 1 1288.4893 473.9111)" class="st3 st4 st13"> </text>
	<text transform="matrix(0.9997 0 0 1 1307.7832 473.9111)" class="st3 st4">:</text>
	<text transform="matrix(0.9997 0 0 1 1313.8809 473.9111)" class="st3 st4 st13"> </text>
	<text transform="matrix(0.9997 0 0 1 1333.1758 473.9111)" class="st3 st4">DateTime</text>
	<rect x="1174.8" y="480.6" class="st2" width="173.5" height="25.9"/>
	<text transform="matrix(0.9997 0 0 1 1174.8232 499.3857)" class="st3 st4">+detalle</text>
	<text transform="matrix(0.9997 0 0 1 1252.0996 499.3857)" class="st3 st4 st15"> </text>
	<text transform="matrix(0.9997 0 0 1 1268.5947 499.3857)" class="st3 st4">:</text>
	<text transform="matrix(0.9997 0 0 1 1274.5928 499.3857)" class="st3 st4 st15"> </text>
	<text transform="matrix(0.9997 0 0 1 1291.0879 499.3857)" class="st3 st4">String</text>
	<line class="st5" x1="1167" y1="510.8" x2="1435.8" y2="510.8"/>
</g>
<g id="elem_LimpiezaTanque">
	<path id="LimpiezaTanque" class="st6" d="M584.1,635.9H831c2.2,0,3.9,1.7,3.9,3.9v169.1c0,2.2-1.7,3.9-3.9,3.9H584.1
		c-2.2,0-3.9-1.7-3.9-3.9V639.8C580.2,637.6,582,635.9,584.1,635.9z"/>
	<ellipse class="st7" cx="616.3" cy="660.9" rx="17.2" ry="17.2"/>
	<path d="M621,669.7c-0.6,0.3-1.2,0.5-1.9,0.7s-1.4,0.2-2.1,0.2c-2.6,0-4.6-0.9-6-2.6c-1.4-1.7-2.1-4.2-2.1-7.5s0.7-5.7,2.1-7.5
		c1.4-1.7,3.4-2.6,6-2.6c0.7,0,1.4,0.1,2.1,0.2c0.7,0.2,1.3,0.4,1.9,0.7v4.2c-0.7-0.6-1.3-1-1.9-1.3c-0.6-0.3-1.3-0.4-1.9-0.4
		c-1.4,0-2.5,0.6-3.2,1.7c-0.7,1.1-1.1,2.8-1.1,4.9c0,2.2,0.4,3.8,1.1,5c0.7,1.1,1.8,1.7,3.2,1.7c0.7,0,1.3-0.1,1.9-0.4
		c0.6-0.3,1.3-0.7,1.9-1.3V669.7z"/>
	<rect x="641" y="649.7" class="st2" width="176.6" height="25.9"/>
	<text transform="matrix(0.9997 0 0 1 641.0107 668.4385)" class="st3 st4">LimpiezaTanqu</text>
	<text transform="matrix(0.9997 0 0 1 805.4609 668.4385)" class="st3 st4">e</text>
	<line class="st5" x1="581.8" y1="685.9" x2="833.4" y2="685.9"/>
	<rect x="589.6" y="693.7" class="st2" width="84.4" height="25.9"/>
	<text transform="matrix(0.9997 0 0 1 589.5986 712.4385)" class="st3 st4">+id</text>
	<text transform="matrix(0.9997 0 0 1 619.3896 712.4385)" class="st3 st4 st8"> </text>
	<text transform="matrix(0.9997 0 0 1 632.0859 712.4385)" class="st3 st4">:</text>
	<text transform="matrix(0.9997 0 0 1 638.1836 712.4385)" class="st3 st4 st8"> </text>
	<text transform="matrix(0.9997 0 0 1 650.8799 712.4385)" class="st3 st4">int</text>
	<rect x="589.6" y="719.1" class="st2" width="150" height="25.9"/>
	<text transform="matrix(0.9997 0 0 1 589.5986 737.9131)" class="st3 st4">+fecha</text>
	<text transform="matrix(0.9997 0 0 1 655.8789 737.9131)" class="st3 st4 st16"> </text>
	<text transform="matrix(0.9997 0 0 1 671.5742 737.9131)" class="st3 st4">:</text>
	<text transform="matrix(0.9997 0 0 1 677.6719 737.9131)" class="st3 st4 st16"> </text>
	<text transform="matrix(0.9997 0 0 1 693.3672 737.9131)" class="st3 st4">Date</text>
	<rect x="589.6" y="744.6" class="st2" width="226.6" height="25.9"/>
	<text transform="matrix(0.9997 0 0 1 589.5986 763.3887)" class="st3 st4">+descripcion</text>
	<text transform="matrix(0.9997 0 0 1 713.0615 763.3887)" class="st3 st4 st13"> </text>
	<text transform="matrix(0.9997 0 0 1 732.9551 763.3887)" class="st3 st4">:</text>
	<text transform="matrix(0.9997 0 0 1 739.0537 763.3887)" class="st3 st4 st13"> </text>
	<text transform="matrix(0.9997 0 0 1 759.0479 763.3887)" class="st3 st4">String</text>
	<rect x="589.6" y="770.1" class="st2" width="236" height="25.9"/>
	<text transform="matrix(0.9997 0 0 1 589.5986 788.8633)" class="st3 st4">+responsable</text>
	<text transform="matrix(0.9997 0 0 1 721.5586 788.8633)" class="st3 st4 st12"> </text>
	<text transform="matrix(0.9997 0 0 1 741.9531 788.8633)" class="st3 st4">:</text>
	<text transform="matrix(0.9997 0 0 1 748.0508 788.8633)" class="st3 st4 st12"> </text>
	<text transform="matrix(0.9997 0 0 1 768.4443 788.8633)" class="st3 st4">String</text>
	<line class="st5" x1="581.8" y1="800.3" x2="833.4" y2="800.3"/>
</g>
<g id="link_Estacion_Tanque">
	<path id="Estacion-Tanque" class="st17" d="M598.2,213.2c0,42.9,0,64.4,0,107.3"/>
	<text transform="matrix(0.9997 0 0 1 577.4404 236.2368)" class="st3 st18">1</text>
	<text transform="matrix(0.9997 0 0 1 557.4404 307.7871)" class="st3 st18">0..*</text>
</g>
<g id="link_Tanque_Lote">
	<path id="Tanque-Lote" class="st17" d="M728.5,498.2c70.5,47.2,156.6,104.9,224,150"/>
	<text transform="matrix(0.9997 0 0 1 710.7842 522.1992)" class="st3 st18">1</text>
	<text transform="matrix(0.9997 0 0 1 944.7637 629.4268)" class="st3 st18">0..*</text>
</g>
<g id="link_Lote_Muestreo">
	<path id="Lote-Muestreo" class="st17" d="M1095.5,800.6c16.3,38.6,36.2,85.6,52.5,124.2"/>
	<text transform="matrix(0.9997 0 0 1 1076.7178 828.6406)" class="st3 st18">1</text>
	<text transform="matrix(0.9997 0 0 1 1153.1934 904.0605)" class="st3 st18">0..*</text>
</g>
<g id="link_Muestreo_Foto">
	<path id="Muestreo-Foto" class="st17" d="M1206.5,1077.4c10.3,28.4,22.3,61.8,34,94.3"/>
	<text transform="matrix(0.9997 0 0 1 1187.7627 1107.415)" class="st3 st18">1</text>
	<text transform="matrix(0.9997 0 0 1 1254.7822 1162.916)" class="st3 st18">0..*</text>
</g>
<g id="link_Usuario_Rol">
	<path id="Usuario-Rol" class="st17" d="M1059.1,170.7l0.3,175.7"/>
	<text transform="matrix(0.9997 0 0 1 1069.4805 231.3354)" class="st3 st18">roles</text>
	<text transform="matrix(0.9997 0 0 1 1067.0908 196.6533)" class="st3 st18">1</text>
	<text transform="matrix(0.9997 0 0 1 1024.4746 327.0166)" class="st3 st18">0..*</text>
</g>
<g id="link_Rol_Usuario">
	<path id="Rol-Usuario" class="st17" d="M1012.2,345.8l28-175"/>
	<text transform="matrix(0.9997 0 0 1 941.4941 275.3354)" class="st3 st18">usuarios</text>
	<text transform="matrix(0.9997 0 0 1 990.4111 327.0791)" class="st3 st18">1</text>
	<text transform="matrix(0.9997 0 0 1 1000.415 196.7939)" class="st3 st18">0..*</text>
</g>
<g id="link_Usuario_Muestreo">
	<path id="Usuario-Muestreo" class="st17" d="M1190.1,120.3c92.3,26.2,215.9,77.9,275.4,175.2c137.1,224,58.6,371.4-96.9,583
		c-13.6,18.5-31,35-49.7,49.3"/>
	<text transform="matrix(0.9997 0 0 1 1452.7559 571.7617)" class="st3 st18">realiza</text>
	<text transform="matrix(0.9997 0 0 1 1200.0596 107.499)" class="st3 st18">1</text>
	<text transform="matrix(0.9997 0 0 1 1286.9023 910.9219)" class="st3 st18">0..*</text>
</g>
<g id="link_Usuario_RegistroBitacora">
	<path id="Usuario-RegistroBitacora" class="st17" d="M1129.1,170.7c27,37.1,60.1,82.8,90.1,124.1"/>
	<text transform="matrix(0.9997 0 0 1 1182.8711 231.3354)" class="st3 st18">genera</text>
	<text transform="matrix(0.9997 0 0 1 1118.3311 195.6533)" class="st3 st18">1</text>
	<text transform="matrix(0.9997 0 0 1 1227.4668 285.9482)" class="st3 st18">0..*</text>
</g>
<g id="link_RegistroBitacora_Lote">
	<path id="RegistroBitacora-to-Lote" class="st19" d="M1215.3,523.9c-31.5,41.3-60.6,79.5-88.9,116.6"/>
	<polygon class="st20" points="1120.8,648 1134.3,640.6 1125.5,641.8 1124.3,633.1 	"/>
	<text transform="matrix(0.9997 0 0 1 1200.0732 571.7617)" class="st3 st18">sobre</text>
</g>
<g id="link_RegistroBitacora_Muestreo">
	<path id="RegistroBitacora-to-Muestreo" class="st19" d="M1278.2,524c-16.5,80.5-39.4,191.3-59.6,288.8
		c-7.6,36.8-14.3,68.5-21.4,102.6"/>
	<polygon class="st20" points="1195.2,924.6 1204.2,912.1 1196.8,916.9 1192,909.5 	"/>
	<text transform="matrix(0.9997 0 0 1 1255.6299 716.4951)" class="st3 st18">sobre</text>
</g>
<g id="link_RegistroBitacora_Foto">
	<path id="RegistroBitacora-to-Foto" class="st19" d="M1321.2,523.7c20.4,132.7,46.4,359.4,24,553c-3.6,31-7.7,54.7-14.7,85.6"/>
	<polygon class="st20" points="1328.5,1171.6 1337.6,1159.2 1330.2,1163.9 1325.4,1156.5 	"/>
	<text transform="matrix(0.9997 0 0 1 1358.9229 772.2295)" class="st3 st18">sobre</text>
</g>
<g id="link_Tanque_LimpiezaTanque">
	<path id="Tanque-LimpiezaTanque" class="st17" d="M628.8,498.2c15,42.9,33.1,94.4,48.2,137.3"/>
	<text transform="matrix(0.9997 0 0 1 609.0537 527.1992)" class="st3 st18">1</text>
	<text transform="matrix(0.9997 0 0 1 627.2158 624.7344)" class="st3 st18">0..*</text>
</g>
<g id="link_Usuario_LimpiezaTanque">
	<path id="Usuario-LimpiezaTanque" class="st17" d="M985.5,170.8L730.8,635.1"/>
	<text transform="matrix(0.9997 0 0 1 804.1738 325.4463)" class="st3 st18">registra</text>
	<text transform="matrix(0.9997 0 0 1 782.6797 349.8467)" class="st3 st18">(opcional)</text>
	<text transform="matrix(0.9997 0 0 1 950.7676 198.8408)" class="st3 st18">1</text>
	<text transform="matrix(0.9997 0 0 1 756.0029 626.3594)" class="st3 st18">0..*</text>
</g>
</svg>
