<?xml version="1.0" encoding="utf-8"?>
<!-- Generator: Adobe Illustrator 22.1.0, SVG Export Plug-In . SVG Version: 6.00 Build 0)  -->
<svg version="1.1" id="Capa_1" xmlns="http://www.w3.org/2000/svg" xmlns:xlink="http://www.w3.org/1999/xlink" x="0px" y="0px"
	 viewBox="0 0 3709.8 725.9" style="enable-background:new 0 0 3709.8 725.9;" xml:space="preserve">
<style type="text/css">
	.st0{fill:#DF88FF;}
	.st1{fill:none;stroke:#7700A8;stroke-width:2;stroke-linecap:round;stroke-linejoin:round;stroke-dasharray:11.9155,6.9507;}
	.st2{fill:none;}
	.st3{font-family:'CenturyGothic';}
	.st4{font-size:14px;}
	
		.st5{fill:#ECBDFF;stroke:#7700A8;stroke-width:2;stroke-linecap:round;stroke-linejoin:round;stroke-miterlimit:10;stroke-dasharray:12,7;}
	.st6{enable-background:new    ;}
	
		.st7{fill:#F6FFC0;stroke:#CEB500;stroke-width:2;stroke-linecap:round;stroke-linejoin:round;stroke-miterlimit:10;stroke-dasharray:12,7;}
	.st8{letter-spacing:8;}
	
		.st9{fill:#F3D9FF;stroke:#7700A8;stroke-width:2;stroke-linecap:round;stroke-linejoin:round;stroke-miterlimit:10;stroke-dasharray:12,7;}
	.st10{letter-spacing:9;}
	.st11{letter-spacing:10;}
	.st12{letter-spacing:7;}
	.st13{letter-spacing:4;}
	.st14{fill:#9CFFA3;stroke:#619B64;stroke-width:2;stroke-dasharray:12,7;}
	.st15{fill:#F1F1F1;stroke:#181818;stroke-width:0.5;}
	.st16{fill:#DF88FF;stroke:#7700A8;stroke-width:2;stroke-linecap:round;stroke-linejoin:round;stroke-miterlimit:10;}
	.st17{fill:none;stroke:#181818;stroke-width:0.5;}
	.st18{fill:#ECBDFF;stroke:#7700A8;stroke-width:2;stroke-linecap:round;stroke-linejoin:round;stroke-miterlimit:10;}
	.st19{letter-spacing:5;}
	.st20{fill:#ADD1B2;stroke:#181818;}
	.st21{fill:none;stroke:#181818;}
	.st22{letter-spacing:3;}
	.st23{letter-spacing:2;}
	.st24{letter-spacing:1;}
	
		.st25{fill:#88E0FF;stroke:#0F7ABC;stroke-width:2;stroke-linecap:round;stroke-linejoin:round;stroke-miterlimit:10;stroke-dasharray:12,7;}
	.st26{font-size:12px;}
	.st27{fill:#88E0FF;stroke:#0F7ABC;stroke-width:2;stroke-linecap:round;stroke-linejoin:round;stroke-miterlimit:10;}
	.st28{fill:#B4A7E5;stroke:#181818;}
	.st29{fill:#F3D9FF;stroke:#7700A8;stroke-width:2;stroke-linecap:round;stroke-linejoin:round;stroke-miterlimit:10;}
	.st30{fill:#9CFFA3;stroke:#619B64;stroke-width:2;}
	.st31{fill:none;stroke:#CEB500;stroke-width:2;stroke-linecap:round;stroke-linejoin:round;stroke-miterlimit:10;}
	.st32{fill:#CEB500;stroke:#CEB500;stroke-width:2;stroke-linecap:round;stroke-linejoin:round;stroke-miterlimit:10;}
	.st33{fill:#CEB500;}
	.st34{font-size:13px;}
	
		.st35{fill:none;stroke:#CEB500;stroke-width:2;stroke-linecap:round;stroke-linejoin:round;stroke-miterlimit:10;stroke-dasharray:12,7;}
	.st36{font-size:15px;}
	
		.st37{fill:#DF88FF;stroke:#7700A8;stroke-width:2;stroke-linecap:round;stroke-linejoin:round;stroke-miterlimit:10;stroke-dasharray:12,7;}
	.st38{fill:#7700A8;stroke:#7700A8;stroke-width:2;stroke-linecap:round;stroke-linejoin:round;stroke-miterlimit:10;}
	
		.st39{fill:none;stroke:#7700A8;stroke-width:2;stroke-linecap:round;stroke-linejoin:round;stroke-miterlimit:10;stroke-dasharray:12,7;}
	.st40{fill:none;stroke:#619B64;stroke-width:2;stroke-linecap:round;stroke-linejoin:round;stroke-dasharray:12,7;}
	.st41{fill:#619B64;stroke:#619B64;stroke-width:2;stroke-linecap:round;stroke-linejoin:round;}
	.st42{fill:#9CFFA3;stroke:#619B64;stroke-width:2;stroke-linecap:round;stroke-linejoin:round;stroke-dasharray:12,7;}
</style>
<g>
	<path class="st0" d="M1150.3,42h150c11,0,20,8.9,20,20v107.9c0,11-8.9,20-20,20h-150c-11,0-20-8.9-20-20V62
		C1130.3,50.9,1139.2,42,1150.3,42z"/>
	<path class="st1" d="M1150.3,42h150c11,0,20,8.9,20,20v107.9c0,11-8.9,20-20,20h-150c-11,0-20-8.9-20-20V62
		C1130.3,50.9,1139.2,42,1150.3,42z"/>
</g>
<rect x="1177.8" y="45" class="st2" width="95" height="17.3"/>
<text transform="matrix(1 0 0 1 1184.739 62.9853)" class="st3 st4">API Desktop</text>
<path class="st5" d="M887.3,295.9h720c11,0,20,8.9,20,20v107.9c0,11-8.9,20-20,20h-720c-11,0-20-8.9-20-20V315.9
	C867.3,304.8,876.2,295.9,887.3,295.9z"/>
<rect x="1203.8" y="298.9" class="st2" width="87" height="17.3"/>
<text transform="matrix(1 0 0 1 1203.8242 314.9154)" class="st6"><tspan x="0" y="0" class="st3 st4">Applicatio</tspan><tspan x="80.3" y="0" class="st3 st4">n</tspan></text>
<path class="st7" d="M2217.8,42.1h1430c11,0,20,8.9,20,20v601.8c0,11-8.9,20-20,20h-1430c-11,0-20-8.9-20-20V62.1
	C2197.8,51,2206.8,42.1,2217.8,42.1z"/>
<rect x="2869.3" y="40.1" class="st2" width="127" height="17.3"/>
<text transform="matrix(1 0 0 1 2869.3271 61.0951)" class="st3 st4">Domain :: Model</text>
<text transform="matrix(1 0 0 1 2920.6272 61.0951)" class="st3 st4 st8"> </text>
<text transform="matrix(1 0 0 1 2942.9272 61.0951)" class="st3 st4 st8"> </text>
<path class="st9" d="M699.3,567.9h362c11,0,20,8.9,20,20v75.3c0,11-8.9,20-20,20h-362c-11,0-20-8.9-20-20v-75.3
	C679.3,576.8,688.2,567.9,699.3,567.9z"/>
<rect x="810.8" y="570.8" class="st2" width="139" height="17.3"/>
<text transform="matrix(1 0 0 1 810.8 588.8451)" class="st3 st4">Domain :: Service</text>
<text transform="matrix(1 0 0 1 885.7001 588.8451)" class="st3 st4 st10"> </text>
<path class="st9" d="M1155.3,487.1h699c11,0,20,8.9,20,20v156.8c0,11-8.9,20-20,20h-699c-11,0-20-8.9-20-20V507.1
	C1135.3,496,1144.2,487.1,1155.3,487.1z"/>
<rect x="1422.3" y="490.1" class="st2" width="165" height="17.3"/>
<text transform="matrix(1 0 0 1 1422.3 502.1049)" class="st3 st4">Domain :: Repository</text>
<text transform="matrix(1 0 0 1 1473.6001 502.1049)" class="st3 st4 st11"> </text>
<text transform="matrix(1 0 0 1 1498.6001 502.1049)" class="st3 st4 st11"> </text>
<path class="st9" d="M1930.3,567.9h200c11,0,20,8.9,20,20v75.3c0,11-8.9,20-20,20h-200c-11,0-20-8.9-20-20v-75.3
	C1910.3,576.8,1919.2,567.9,1930.3,567.9z"/>
<rect x="1975.8" y="570.8" class="st2" width="109" height="17.3"/>
<text transform="matrix(1 0 0 1 1984.7593 587.8451)" class="st3 st4">Infra :: Config</text>
<text transform="matrix(1 0 0 1 2015.0593 587.8451)" class="st3 st4 st12"> </text>
<text transform="matrix(1 0 0 1 2036.9592 587.8451)" class="st3 st4 st12"> </text>
<path class="st5" d="M1926.3,297.6h181c11,0,20,8.9,20,20v75.3c0,11-8.9,20-20,20h-181c-11,0-20-8.9-20-20v-75.3
	C1906.3,306.6,1915.2,297.6,1926.3,297.6z"/>
<text transform="matrix(1 0 0 1 1936.625 318.6347)" class="st3 st4">Infra::Persistence(JDBC)</text>
<text transform="matrix(1 0 0 1 1966.925 318.6347)" class="st3 st4 st8"> </text>
<text transform="matrix(1 0 0 1 1989.425 318.6347)" class="st3 st4 st8"> </text>
<text transform="matrix(1 0 0 1 2081.125 318.6347)" class="st3 st4 st8"> </text>
<path class="st5" d="M1679.8,298h168c11,0,20,8.9,20,20v75.3c0,11-8.9,20-20,20h-168c-11,0-20-8.9-20-20V318
	C1659.8,306.9,1668.7,298,1679.8,298z"/>
<rect x="1726.8" y="301" class="st2" width="74" height="17.3"/>
<text transform="matrix(1 0 0 1 1726.8 317.9847)" class="st3 st4">Infra :: IO</text>
<text transform="matrix(1 0 0 1 1757.1001 317.9847)" class="st3 st4 st13"> </text>
<text transform="matrix(1 0 0 1 1776.2 317.9847)" class="st3 st4 st13"> </text>
<path class="st14" d="M60,296.8h747c9.9,0,18,8,18,18v97.3c0,9.9-8,18-18,18H627.5c-9.9,0-18,8-18,18v215.4c0,9.9-8,18-18,18H60
	c-9.9,0-18-8-18-18V314.7C42,304.8,50,296.8,60,296.8z"/>
<rect x="397" y="306.8" class="st2" width="73" height="17.3"/>
<text transform="matrix(1 0 0 1 397 318.765)" class="st3 st4">Infra :: AI</text>
<text transform="matrix(1 0 0 1 427.3 318.765)" class="st3 st4 st13"> </text>
<text transform="matrix(1 0 0 1 446.3 318.765)" class="st3 st4 st13"> </text>
<g id="elem_UIController">
	<path id="UIController" class="st15" d="M1149.3,77h152c1.4,0,2.5,1.1,2.5,2.5v91.9c0,1.4-1.1,2.5-2.5,2.5h-152
		c-1.4,0-2.5-1.1-2.5-2.5V79.5C1146.8,78.1,1147.9,77,1149.3,77z"/>
	<ellipse class="st16" cx="1182.1" cy="93" rx="11" ry="11"/>
	<path d="M1185,98.6c-0.4,0.2-0.8,0.3-1.2,0.4c-0.4,0.1-0.9,0.2-1.3,0.2c-1.7,0-2.9-0.5-3.8-1.6s-1.3-2.7-1.3-4.8
		c0-2.1,0.4-3.7,1.3-4.8c0.9-1.1,2.2-1.7,3.8-1.7c0.5,0,0.9,0.1,1.3,0.2s0.8,0.3,1.2,0.5v2.7c-0.4-0.4-0.8-0.7-1.2-0.8
		c-0.4-0.2-0.8-0.3-1.2-0.3c-0.9,0-1.6,0.4-2,1.1c-0.5,0.7-0.7,1.8-0.7,3.2c0,1.4,0.2,2.5,0.7,3.2s1.1,1.1,2,1.1
		c0.4,0,0.8-0.1,1.2-0.3c0.4-0.2,0.8-0.5,1.2-0.9V98.6z"/>
	<rect x="1200.6" y="85.8" class="st2" width="80" height="16.6"/>
	<text transform="matrix(1 0 0 1 1200.55 97.8373)" class="st3 st4">UIControlle</text>
	<text transform="matrix(1 0 0 1 1275.8501 97.8373)" class="st3 st4">r</text>
	<line class="st17" x1="1147.8" y1="109" x2="1302.8" y2="109"/>
	<line class="st17" x1="1147.8" y1="117" x2="1302.8" y2="117"/>
	<rect x="1152.8" y="122" class="st2" width="145" height="16.6"/>
	<text transform="matrix(1 0 0 1 1152.8 133.9857)" class="st3 st4">+registrarMuestreo( )</text>
	<rect x="1152.8" y="138.3" class="st2" width="93" height="16.6"/>
	<text transform="matrix(1 0 0 1 1152.8 150.2826)" class="st3 st4">+tomarFoto( )</text>
	<rect x="1152.8" y="154.6" class="st2" width="101" height="16.6"/>
	<text transform="matrix(1 0 0 1 1152.8 166.5795)" class="st3 st4">+evaluarLote( )</text>
</g>
<g id="elem_RegistrarMuestreoConFoto">
	<path id="RegistrarMuestreoConFoto" class="st15" d="M1223.8,330.9h385c1.4,0,2.5,1.1,2.5,2.5v91.9c0,1.4-1.1,2.5-2.5,2.5h-385
		c-1.4,0-2.5-1.1-2.5-2.5v-91.9C1221.3,332,1222.4,330.9,1223.8,330.9z"/>
	<ellipse class="st18" cx="1318.6" cy="346.9" rx="11" ry="11"/>
	<path d="M1321.5,352.6c-0.4,0.2-0.8,0.3-1.2,0.4c-0.4,0.1-0.9,0.2-1.3,0.2c-1.7,0-2.9-0.5-3.8-1.6s-1.3-2.7-1.3-4.8
		c0-2.1,0.4-3.7,1.3-4.8c0.9-1.1,2.2-1.7,3.8-1.7c0.5,0,0.9,0.1,1.3,0.2s0.8,0.3,1.2,0.5v2.7c-0.4-0.4-0.8-0.7-1.2-0.8
		c-0.4-0.2-0.8-0.3-1.2-0.3c-0.9,0-1.6,0.4-2,1.1c-0.5,0.7-0.7,1.8-0.7,3.2c0,1.4,0.2,2.5,0.7,3.2s1.1,1.1,2,1.1
		c0.4,0,0.8-0.1,1.2-0.3c0.4-0.2,0.8-0.5,1.2-0.9V352.6z"/>
	<rect x="1339.1" y="339.8" class="st2" width="187" height="16.6"/>
	<text transform="matrix(1 0 0 1 1339.05 351.768)" class="st3 st4">RegistrarMuestreoConFoto</text>
	<line class="st17" x1="1222.3" y1="362.9" x2="1610.3" y2="362.9"/>
	<rect x="1227.3" y="367.9" class="st2" width="156" height="16.6"/>
	<text transform="matrix(1 0 0 1 1227.3 379.9164)" class="st3 st4">-lotes:LoteRepository</text>
	<text transform="matrix(1 0 0 1 1261.5 379.9164)" class="st3 st4 st12"> </text>
	<text transform="matrix(1 0 0 1 1277.3 379.9164)" class="st3 st4 st12"> </text>
	<rect x="1227.3" y="384.2" class="st2" width="138" height="16.6"/>
	<text transform="matrix(1 0 0 1 1227.3 396.2133)" class="st3 st4">-fotos:FotoStorage</text>
	<text transform="matrix(1 0 0 1 1262.3 396.2133)" class="st3 st4 st12"> </text>
	<text transform="matrix(1 0 0 1 1277.2001 396.2133)" class="st3 st4 st12"> </text>
	<line class="st17" x1="1222.3" y1="403.5" x2="1610.3" y2="403.5"/>
	<rect x="1227.3" y="408.5" class="st2" width="378" height="16.6"/>
	<text transform="matrix(1 0 0 1 1227.3 420.5102)" class="st3 st4">+ejecutar(loteId:UUID,m:Muestreo,img:byte[]):void</text>
	<text transform="matrix(1 0 0 1 1328.1001 420.5102)" class="st3 st4 st13"> </text>
	<text transform="matrix(1 0 0 1 1400.7001 420.5102)" class="st3 st4 st13"> </text>
	<text transform="matrix(1 0 0 1 1472.4001 420.5102)" class="st3 st4 st13"> </text>
	<text transform="matrix(1 0 0 1 1508.4001 420.5102)" class="st3 st4 st13"> </text>
	<text transform="matrix(1 0 0 1 1556.8 420.5102)" class="st3 st4 st13"> </text>
	<text transform="matrix(1 0 0 1 1570.1001 420.5102)" class="st3 st4 st13"> </text>
</g>
<g id="elem_EvaluarLoteService">
	<path id="EvaluarLoteService" class="st15" d="M885.3,330.9h298c1.4,0,2.5,1.1,2.5,2.5v91.9c0,1.4-1.1,2.5-2.5,2.5h-298
		c-1.4,0-2.5-1.1-2.5-2.5v-91.9C882.8,332,883.9,330.9,885.3,330.9z"/>
	<ellipse class="st18" cx="965.6" cy="346.9" rx="11" ry="11"/>
	<path d="M968.5,352.6c-0.4,0.2-0.8,0.3-1.2,0.4c-0.4,0.1-0.9,0.2-1.3,0.2c-1.7,0-2.9-0.5-3.8-1.6s-1.3-2.7-1.3-4.8
		c0-2.1,0.4-3.7,1.3-4.8c0.9-1.1,2.2-1.7,3.8-1.7c0.5,0,0.9,0.1,1.3,0.2s0.8,0.3,1.2,0.5v2.7c-0.4-0.4-0.8-0.7-1.2-0.8
		c-0.4-0.2-0.8-0.3-1.2-0.3c-0.9,0-1.6,0.4-2,1.1c-0.5,0.7-0.7,1.8-0.7,3.2c0,1.4,0.2,2.5,0.7,3.2s1.1,1.1,2,1.1
		c0.4,0,0.8-0.1,1.2-0.3c0.4-0.2,0.8-0.5,1.2-0.9V352.6z"/>
	<rect x="986.1" y="339.8" class="st2" width="129" height="16.6"/>
	<text transform="matrix(1 0 0 1 986.05 351.768)" class="st3 st4">EvaluarLoteService</text>
	<line class="st17" x1="883.8" y1="362.9" x2="1184.8" y2="362.9"/>
	<rect x="888.8" y="367.9" class="st2" width="156" height="16.6"/>
	<text transform="matrix(1 0 0 1 888.8 379.9164)" class="st3 st4">-lotes:LoteRepository</text>
	<text transform="matrix(1 0 0 1 923 379.9164)" class="st3 st4 st12"> </text>
	<text transform="matrix(1 0 0 1 938.8 379.9164)" class="st3 st4 st12"> </text>
	<rect x="888.8" y="384.2" class="st2" width="175" height="16.6"/>
	<text transform="matrix(1 0 0 1 888.8 396.2133)" class="st3 st4">-regla:ReglaClasificacion</text>
	<text transform="matrix(1 0 0 1 924.6001 396.2133)" class="st3 st4 st19"> </text>
	<text transform="matrix(1 0 0 1 938.6001 396.2133)" class="st3 st4 st19"> </text>
	<line class="st17" x1="883.8" y1="403.5" x2="1184.8" y2="403.5"/>
	<rect x="888.8" y="408.5" class="st2" width="291" height="16.6"/>
	<text transform="matrix(1 0 0 1 888.8 420.5102)" class="st3 st4">+ejecutar(loteId:UUID):ResultadoAptitud</text>
	<text transform="matrix(1 0 0 1 989.6001 420.5102)" class="st3 st4 st8"> </text>
	<text transform="matrix(1 0 0 1 1042.1001 420.5102)" class="st3 st4 st8"> </text>
	<text transform="matrix(1 0 0 1 1059.6001 420.5102)" class="st3 st4 st8"> </text>
</g>
<g id="elem_Lote">
	<path id="Lote" class="st15" d="M2754.3,72.1h305c1.4,0,2.5,1.1,2.5,2.5v189.7c0,1.4-1.1,2.5-2.5,2.5h-305c-1.4,0-2.5-1.1-2.5-2.5
		V74.6C2751.8,73.2,2752.9,72.1,2754.3,72.1z"/>
	<ellipse class="st20" cx="2887.6" cy="88.1" rx="11" ry="11"/>
	<path d="M2890.5,93.7c-0.4,0.2-0.8,0.3-1.2,0.4s-0.9,0.2-1.3,0.2c-1.7,0-2.9-0.5-3.8-1.6c-0.9-1.1-1.3-2.7-1.3-4.8
		c0-2.1,0.4-3.7,1.3-4.8c0.9-1.1,2.2-1.7,3.8-1.7c0.5,0,0.9,0.1,1.3,0.2c0.4,0.1,0.8,0.3,1.2,0.5v2.7c-0.4-0.4-0.8-0.7-1.2-0.8
		c-0.4-0.2-0.8-0.3-1.2-0.3c-0.9,0-1.6,0.4-2,1.1c-0.5,0.7-0.7,1.8-0.7,3.2s0.2,2.5,0.7,3.2c0.5,0.7,1.1,1.1,2,1.1
		c0.4,0,0.8-0.1,1.2-0.3s0.8-0.5,1.2-0.9V93.7z"/>
	<rect x="2908.1" y="80.9" class="st2" width="30" height="16.6"/>
	<text transform="matrix(1 0 0 1 2908.0979 92.9472)" class="st3 st4">Lote</text>
	<line class="st17" x1="2752.8" y1="104.1" x2="3060.8" y2="104.1"/>
	<rect x="2757.8" y="109.1" class="st2" width="64" height="16.6"/>
	<text transform="matrix(1 0 0 1 2757.8479 121.0956)" class="st3 st4">-id:UUID</text>
	<text transform="matrix(1 0 0 1 2773.448 121.0956)" class="st3 st4"> </text>
	<text transform="matrix(1 0 0 1 2782.448 121.0956)" class="st3 st4"> </text>
	<rect x="2757.8" y="125.4" class="st2" width="105" height="16.6"/>
	<text transform="matrix(1 0 0 1 2757.8479 137.3925)" class="st3 st4">-codigo:String</text>
	<text transform="matrix(1 0 0 1 2803.7478 137.3925)" class="st3 st4 st13"> </text>
	<text transform="matrix(1 0 0 1 2816.948 137.3925)" class="st3 st4 st13"> </text>
	<rect x="2757.8" y="141.7" class="st2" width="144" height="16.6"/>
	<text transform="matrix(1 0 0 1 2757.8479 153.6894)" class="st3 st4">-estado:EstadoLote</text>
	<text transform="matrix(1 0 0 1 2804.5479 153.6894)" class="st3 st4 st12"> </text>
	<text transform="matrix(1 0 0 1 2819.7478 153.6894)" class="st3 st4 st12"> </text>
	<rect x="2757.8" y="158" class="st2" width="150" height="16.6"/>
	<text transform="matrix(1 0 0 1 2757.8479 169.9862)" class="st3 st4">-fechaCreacion:Date</text>
	<text transform="matrix(1 0 0 1 2852.7478 169.9862)" class="st3 st4 st19"> </text>
	<text transform="matrix(1 0 0 1 2867.448 169.9862)" class="st3 st4 st19"> </text>
	<rect x="2757.8" y="174.3" class="st2" width="120" height="16.6"/>
	<text transform="matrix(1 0 0 1 2757.8479 186.2831)" class="st3 st4">-tanque:Tanque</text>
	<text transform="matrix(1 0 0 1 2805.3479 186.2831)" class="st3 st4 st19"> </text>
	<text transform="matrix(1 0 0 1 2819.7478 186.2831)" class="st3 st4 st19"> </text>
	<line class="st21" x1="2752.8" y1="193.6" x2="3060.8" y2="193.6"/>
	<rect x="2757.8" y="198.6" class="st2" width="278" height="16.6"/>
	<text transform="matrix(1 0 0 1 2757.8479 210.58)" class="st3 st4">+registrarMuestreo(m:Muestreo):void</text>
	<text transform="matrix(1 0 0 1 2892.0479 210.58)" class="st3 st4 st12"> </text>
	<text transform="matrix(1 0 0 1 2907.7478 210.58)" class="st3 st4 st12"> </text>
	<text transform="matrix(1 0 0 1 2982.6479 210.58)" class="st3 st4 st12"> </text>
	<text transform="matrix(1 0 0 1 2998.3479 210.58)" class="st3 st4 st12"> </text>
	<rect x="2757.8" y="214.9" class="st2" width="269" height="16.6"/>
	<text transform="matrix(1 0 0 1 2757.8479 226.8769)" class="st3 st4">+agregarFotografia(f:Fotografia):void</text>
	<text transform="matrix(1 0 0 1 2899.7478 226.8769)" class="st3 st4 st19"> </text>
	<text transform="matrix(1 0 0 1 2977.3479 226.8769)" class="st3 st4 st19"> </text>
	<rect x="2757.8" y="231.2" class="st2" width="284" height="16.6"/>
	<text transform="matrix(1 0 0 1 2757.8479 243.1737)" class="st3 st4">+agregarEvaluacion(e:Evaluacion):void  </text>
	<text transform="matrix(1 0 0 1 2895.2478 243.1737)" class="st3 st4 st19"> </text>
	<text transform="matrix(1 0 0 1 2909.1479 243.1737)" class="st3 st4 st19"> </text>
	<text transform="matrix(1 0 0 1 2992.2478 243.1737)" class="st3 st4 st19"> </text>
	<text transform="matrix(1 0 0 1 3006.1479 243.1737)" class="st3 st4 st19"> </text>
	<rect x="2757.8" y="247.5" class="st2" width="298" height="16.6"/>
	<text transform="matrix(1 0 0 1 2757.8479 259.4706)" class="st3 st4">+cerrar(por:Usuario,motivo:String):void</text>
	<text transform="matrix(1 0 0 1 2839.448 259.4706)" class="st3 st4 st22"> </text>
	<text transform="matrix(1 0 0 1 2899.6479 259.4706)" class="st3 st4 st22"> </text>
	<text transform="matrix(1 0 0 1 2948.948 259.4706)" class="st3 st4 st22"> </text>
	<text transform="matrix(1 0 0 1 2960.8479 259.4706)" class="st3 st4 st22"> </text>
	<text transform="matrix(1 0 0 1 3010.1479 259.4706)" class="st3 st4 st22"> </text>
	<text transform="matrix(1 0 0 1 3022.1479 259.4706)" class="st3 st4 st22"> </text>
</g>
<g id="elem_Tanque">
	<path id="Tanque" class="st15" d="M2215.8,372.9h180c1.4,0,2.5,1.1,2.5,2.5v91.9c0,1.4-1.1,2.5-2.5,2.5h-180
		c-1.4,0-2.5-1.1-2.5-2.5v-91.9C2213.3,374,2214.4,372.9,2215.8,372.9z"/>
	<ellipse class="st20" cx="2275.1" cy="388.9" rx="11" ry="11"/>
	<path d="M2278,394.6c-0.4,0.2-0.8,0.3-1.2,0.4s-0.9,0.2-1.3,0.2c-1.7,0-2.9-0.5-3.8-1.6c-0.9-1.1-1.3-2.7-1.3-4.8
		c0-2.1,0.4-3.7,1.3-4.8c0.9-1.1,2.2-1.7,3.8-1.7c0.5,0,0.9,0.1,1.3,0.2c0.4,0.1,0.8,0.3,1.2,0.5v2.7c-0.4-0.4-0.8-0.7-1.2-0.8
		c-0.4-0.2-0.8-0.3-1.2-0.3c-0.9,0-1.6,0.4-2,1.1c-0.5,0.7-0.7,1.8-0.7,3.2c0,1.4,0.2,2.5,0.7,3.2s1.1,1.1,2,1.1
		c0.4,0,0.8-0.1,1.2-0.3c0.4-0.2,0.8-0.5,1.2-0.9V394.6z"/>
	<rect x="2295.6" y="381.8" class="st2" width="53" height="16.6"/>
	<text transform="matrix(1 0 0 1 2295.5979 393.768)" class="st3 st4">Tanqu</text>
	<text transform="matrix(1 0 0 1 2340.7979 393.768)" class="st3 st4">e</text>
	<line class="st17" x1="2214.3" y1="404.9" x2="2397.3" y2="404.9"/>
	<rect x="2219.3" y="409.9" class="st2" width="64" height="16.6"/>
	<text transform="matrix(1 0 0 1 2219.3479 421.9164)" class="st3 st4">-id:UUID</text>
	<text transform="matrix(1 0 0 1 2234.948 421.9164)" class="st3 st4"> </text>
	<text transform="matrix(1 0 0 1 2243.948 421.9164)" class="st3 st4"> </text>
	<rect x="2219.3" y="426.2" class="st2" width="105" height="16.6"/>
	<text transform="matrix(1 0 0 1 2219.3479 438.2133)" class="st3 st4">-codigo:String</text>
	<text transform="matrix(1 0 0 1 2265.2478 438.2133)" class="st3 st4 st13"> </text>
	<text transform="matrix(1 0 0 1 2278.448 438.2133)" class="st3 st4 st13"> </text>
	<rect x="2219.3" y="442.5" class="st2" width="173" height="16.6"/>
	<text transform="matrix(1 0 0 1 2219.3479 454.5102)" class="st3 st4">-capacidadLitros:double</text>
	<text transform="matrix(1 0 0 1 2338.1479 454.5102)" class="st3 st4 st12"> </text>
	<line class="st17" x1="2214.3" y1="461.8" x2="2397.3" y2="461.8"/>
</g>
<g id="elem_Muestreo">
	<path id="Muestreo" class="st15" d="M2435.3,356.6h205c1.4,0,2.5,1.1,2.5,2.5v124.5c0,1.4-1.1,2.5-2.5,2.5h-205
		c-1.4,0-2.5-1.1-2.5-2.5V359.1C2432.8,357.7,2433.9,356.6,2435.3,356.6z"/>
	<ellipse class="st20" cx="2500.6" cy="372.6" rx="11" ry="11"/>
	<path d="M2503.5,378.3c-0.4,0.2-0.8,0.3-1.2,0.4s-0.9,0.2-1.3,0.2c-1.7,0-2.9-0.5-3.8-1.6c-0.9-1.1-1.3-2.7-1.3-4.8
		c0-2.1,0.4-3.7,1.3-4.8c0.9-1.1,2.2-1.7,3.8-1.7c0.5,0,0.9,0.1,1.3,0.2c0.4,0.1,0.8,0.3,1.2,0.5v2.7c-0.4-0.4-0.8-0.7-1.2-0.8
		c-0.4-0.2-0.8-0.3-1.2-0.3c-0.9,0-1.6,0.4-2,1.1c-0.5,0.7-0.7,1.8-0.7,3.2c0,1.4,0.2,2.5,0.7,3.2s1.1,1.1,2,1.1
		c0.4,0,0.8-0.1,1.2-0.3c0.4-0.2,0.8-0.5,1.2-0.9V378.3z"/>
	<rect x="2521.1" y="365.5" class="st2" width="66" height="16.6"/>
	<text transform="matrix(1 0 0 1 2521.0979 377.4672)" class="st6"><tspan x="0" y="0" class="st3 st4">Muestre</tspan><tspan x="60.9" y="0" class="st3 st4">o</tspan></text>
	<line class="st17" x1="2433.8" y1="388.6" x2="2641.8" y2="388.6"/>
	<rect x="2438.8" y="393.6" class="st2" width="121" height="16.6"/>
	<text transform="matrix(1 0 0 1 2438.8479 405.6156)" class="st3 st4">-fechaHora:Date</text>
	<text transform="matrix(1 0 0 1 2508.1479 405.6156)" class="st3 st4 st13"> </text>
	<text transform="matrix(1 0 0 1 2521.1479 405.6156)" class="st3 st4 st13"> </text>
	<rect x="2438.8" y="409.9" class="st2" width="198" height="16.6"/>
	<text transform="matrix(1 0 0 1 2438.8479 421.9125)" class="st3 st4">-temperaturaAguaC:Double</text>
	<text transform="matrix(1 0 0 1 2561.8479 421.9125)" class="st3 st4 st8"> </text>
	<text transform="matrix(1 0 0 1 2579.0479 421.9125)" class="st3 st4 st8"> </text>
	<rect x="2438.8" y="426.2" class="st2" width="86" height="16.6"/>
	<text transform="matrix(1 0 0 1 2438.8479 438.2094)" class="st3 st4">-ph:Double</text>
	<text transform="matrix(1 0 0 1 2459.0479 438.2094)" class="st3 st4 st22"> </text>
	<text transform="matrix(1 0 0 1 2471.7478 438.2094)" class="st3 st4 st22"> </text>
	<rect x="2438.8" y="442.5" class="st2" width="144" height="16.6"/>
	<text transform="matrix(1 0 0 1 2438.8479 454.5063)" class="st3 st4">-comentarios:String</text>
	<text transform="matrix(1 0 0 1 2519.7478 454.5063)" class="st3 st4 st12"> </text>
	<text transform="matrix(1 0 0 1 2534.948 454.5063)" class="st3 st4 st12"> </text>
	<line class="st21" x1="2433.8" y1="461.8" x2="2641.8" y2="461.8"/>
	<rect x="2438.8" y="466.8" class="st2" width="159" height="16.6"/>
	<text transform="matrix(1 0 0 1 2438.8479 478.8031)" class="st3 st4">+validarRangos():void</text>
	<text transform="matrix(1 0 0 1 2545.8479 478.8031)" class="st3 st4 st12"> </text>
	<text transform="matrix(1 0 0 1 2560.948 478.8031)" class="st3 st4 st12"> </text>
</g>
<g id="elem_Fotografia">
	<path id="Fotografia" class="st15" d="M3172.8,364.8h308c1.4,0,2.5,1.1,2.5,2.5v108.2c0,1.4-1.1,2.5-2.5,2.5h-308
		c-1.4,0-2.5-1.1-2.5-2.5V367.3C3170.3,365.9,3171.4,364.8,3172.8,364.8z"/>
	<ellipse class="st20" cx="3288.6" cy="380.8" rx="11" ry="11"/>
	<path d="M3291.5,386.4c-0.4,0.2-0.8,0.3-1.2,0.4s-0.9,0.2-1.3,0.2c-1.7,0-2.9-0.5-3.8-1.6c-0.9-1.1-1.3-2.7-1.3-4.8
		c0-2.1,0.4-3.7,1.3-4.8c0.9-1.1,2.2-1.7,3.8-1.7c0.5,0,0.9,0.1,1.3,0.2c0.4,0.1,0.8,0.3,1.2,0.5v2.7c-0.4-0.4-0.8-0.7-1.2-0.8
		c-0.4-0.2-0.8-0.3-1.2-0.3c-0.9,0-1.6,0.4-2,1.1c-0.5,0.7-0.7,1.8-0.7,3.2c0,1.4,0.2,2.5,0.7,3.2s1.1,1.1,2,1.1
		c0.4,0,0.8-0.1,1.2-0.3c0.4-0.2,0.8-0.5,1.2-0.9V386.4z"/>
	<rect x="3309.1" y="373.6" class="st2" width="68" height="16.6"/>
	<text transform="matrix(1 0 0 1 3309.0979 385.6176)" class="st3 st4">Fotografi</text>
	<text transform="matrix(1 0 0 1 3369.2979 385.6176)" class="st3 st4">a</text>
	<line class="st17" x1="3171.3" y1="396.8" x2="3482.3" y2="396.8"/>
	<rect x="3176.3" y="401.8" class="st2" width="64" height="16.6"/>
	<text transform="matrix(1 0 0 1 3176.3479 413.766)" class="st3 st4">-id:UUID</text>
	<text transform="matrix(1 0 0 1 3191.948 413.766)" class="st3 st4"> </text>
	<text transform="matrix(1 0 0 1 3200.948 413.766)" class="st3 st4"> </text>
	<rect x="3176.3" y="418" class="st2" width="85" height="16.6"/>
	<text transform="matrix(1 0 0 1 3176.3479 430.0629)" class="st3 st4">-ruta:String</text>
	<text transform="matrix(1 0 0 1 3205.1479 430.0629)" class="st3 st4 st23"> </text>
	<text transform="matrix(1 0 0 1 3216.948 430.0629)" class="st3 st4 st23"> </text>
	<rect x="3176.3" y="434.3" class="st2" width="121" height="16.6"/>
	<text transform="matrix(1 0 0 1 3176.3479 446.3598)" class="st3 st4">-tomadaEn:Date</text>
	<text transform="matrix(1 0 0 1 3244.8479 446.3598)" class="st3 st4 st13"> </text>
	<text transform="matrix(1 0 0 1 3258.2478 446.3598)" class="st3 st4 st13"> </text>
	<line class="st21" x1="3171.3" y1="453.7" x2="3482.3" y2="453.7"/>
	<rect x="3176.3" y="458.6" class="st2" width="301" height="16.6"/>
	<text transform="matrix(1 0 0 1 3176.3479 470.6566)" class="st3 st4">+asociarClasificacion(c:Clasificacion):void</text>
	<text transform="matrix(1 0 0 1 3319.948 470.6566)" class="st3 st4 st19"> </text>
	<text transform="matrix(1 0 0 1 3427.448 470.6566)" class="st3 st4 st19"> </text>
	<text transform="matrix(1 0 0 1 3441.448 470.6566)" class="st3 st4 st19"> </text>
</g>
<g id="elem_Clasificacion">
	<path id="Clasificacion" class="st15" d="M3256.8,543.3h140c1.4,0,2.5,1.1,2.5,2.5v124.5c0,1.4-1.1,2.5-2.5,2.5h-140
		c-1.4,0-2.5-1.1-2.5-2.5V545.8C3254.3,544.4,3255.4,543.3,3256.8,543.3z"/>
	<ellipse class="st20" cx="3282.4" cy="559.3" rx="11" ry="11"/>
	<path d="M3285.3,564.9c-0.4,0.2-0.8,0.3-1.2,0.4c-0.4,0.1-0.9,0.2-1.3,0.2c-1.7,0-2.9-0.5-3.8-1.6c-0.9-1.1-1.3-2.7-1.3-4.8
		s0.4-3.7,1.3-4.8c0.9-1.1,2.2-1.7,3.8-1.7c0.5,0,0.9,0.1,1.3,0.2c0.4,0.1,0.8,0.3,1.2,0.5v2.7c-0.4-0.4-0.8-0.7-1.2-0.8
		c-0.4-0.2-0.8-0.3-1.2-0.3c-0.9,0-1.6,0.4-2,1.1c-0.5,0.7-0.7,1.8-0.7,3.2s0.2,2.5,0.7,3.2s1.1,1.1,2,1.1c0.4,0,0.8-0.1,1.2-0.3
		s0.8-0.5,1.2-0.9V564.9z"/>
	<rect x="3299.2" y="552.1" class="st2" width="84" height="16.6"/>
	<text transform="matrix(1 0 0 1 3299.2981 564.1078)" class="st3 st4">Clasificacion</text>
	<line class="st17" x1="3255.3" y1="575.3" x2="3398.3" y2="575.3"/>
	<rect x="3260.3" y="580.2" class="st2" width="64" height="16.6"/>
	<text transform="matrix(1 0 0 1 3260.3479 592.2563)" class="st3 st4">-id:UUID</text>
	<text transform="matrix(1 0 0 1 3275.948 592.2563)" class="st3 st4"> </text>
	<text transform="matrix(1 0 0 1 3284.948 592.2563)" class="st3 st4"> </text>
	<rect x="3260.3" y="596.5" class="st2" width="133" height="16.6"/>
	<text transform="matrix(1 0 0 1 3260.3479 608.5531)" class="st3 st4">-clase:ClaseCarne</text>
	<text transform="matrix(1 0 0 1 3297.6479 608.5531)" class="st3 st4 st13"> </text>
	<text transform="matrix(1 0 0 1 3310.5479 608.5531)" class="st3 st4 st13"> </text>
	<rect x="3260.3" y="612.8" class="st2" width="132" height="16.6"/>
	<text transform="matrix(1 0 0 1 3260.3479 624.85)" class="st3 st4">-confianza:double</text>
	<text transform="matrix(1 0 0 1 3324.948 624.85)" class="st3 st4 st19"> </text>
	<text transform="matrix(1 0 0 1 3339.5479 624.85)" class="st3 st4 st19"> </text>
	<rect x="3260.3" y="629.1" class="st2" width="110" height="16.6"/>
	<text transform="matrix(1 0 0 1 3260.3479 641.1469)" class="st3 st4">-modelo:String</text>
	<text transform="matrix(1 0 0 1 3324.2478 641.1469)" class="st3 st4 st13"> </text>
	<rect x="3260.3" y="645.4" class="st2" width="112" height="16.6"/>
	<text transform="matrix(1 0 0 1 3260.3479 657.4438)" class="st3 st4">-hechaEn:Date</text>
	<text transform="matrix(1 0 0 1 3320.2478 657.4438)" class="st3 st4 st13"> </text>
	<text transform="matrix(1 0 0 1 3333.448 657.4438)" class="st3 st4 st13"> </text>
	<line class="st17" x1="3255.3" y1="664.7" x2="3398.3" y2="664.7"/>
</g>
<g id="elem_Evaluacion">
	<path id="Evaluacion" class="st15" d="M2680.3,356.6h453c1.4,0,2.5,1.1,2.5,2.5v124.5c0,1.4-1.1,2.5-2.5,2.5h-453
		c-1.4,0-2.5-1.1-2.5-2.5V359.1C2677.8,357.7,2678.9,356.6,2680.3,356.6z"/>
	<ellipse class="st20" cx="2866.1" cy="372.6" rx="11" ry="11"/>
	<path d="M2869,378.3c-0.4,0.2-0.8,0.3-1.2,0.4s-0.9,0.2-1.3,0.2c-1.7,0-2.9-0.5-3.8-1.6c-0.9-1.1-1.3-2.7-1.3-4.8
		c0-2.1,0.4-3.7,1.3-4.8c0.9-1.1,2.2-1.7,3.8-1.7c0.5,0,0.9,0.1,1.3,0.2c0.4,0.1,0.8,0.3,1.2,0.5v2.7c-0.4-0.4-0.8-0.7-1.2-0.8
		c-0.4-0.2-0.8-0.3-1.2-0.3c-0.9,0-1.6,0.4-2,1.1c-0.5,0.7-0.7,1.8-0.7,3.2c0,1.4,0.2,2.5,0.7,3.2s1.1,1.1,2,1.1
		c0.4,0,0.8-0.1,1.2-0.3c0.4-0.2,0.8-0.5,1.2-0.9V378.3z"/>
	<rect x="2886.6" y="365.5" class="st2" width="73" height="16.6"/>
	<text transform="matrix(1 0 0 1 2886.5979 377.4672)" class="st3 st4">Evaluacion</text>
	<line class="st17" x1="2678.8" y1="388.6" x2="3134.8" y2="388.6"/>
	<rect x="2683.8" y="393.6" class="st2" width="64" height="16.6"/>
	<text transform="matrix(1 0 0 1 2683.8479 405.6156)" class="st3 st4">-id:UUID</text>
	<text transform="matrix(1 0 0 1 2699.448 405.6156)" class="st3 st4"> </text>
	<text transform="matrix(1 0 0 1 2708.448 405.6156)" class="st3 st4"> </text>
	<rect x="2683.8" y="409.9" class="st2" width="89" height="16.6"/>
	<text transform="matrix(1 0 0 1 2683.8479 421.9125)" class="st3 st4">-fecha:Date</text>
	<text transform="matrix(1 0 0 1 2722.7478 421.9125)" class="st3 st4 st22"> </text>
	<text transform="matrix(1 0 0 1 2734.948 421.9125)" class="st3 st4 st22"> </text>
	<rect x="2683.8" y="426.2" class="st2" width="202" height="16.6"/>
	<text transform="matrix(1 0 0 1 2683.8479 438.2094)" class="st3 st4">-resultado:ResultadoAptitud</text>
	<text transform="matrix(1 0 0 1 2746.1479 438.2094)" class="st3 st4 st10"> </text>
	<rect x="2683.8" y="442.5" class="st2" width="159" height="16.6"/>
	<text transform="matrix(1 0 0 1 2683.8479 454.5063)" class="st3 st4">-observaciones:String</text>
	<text transform="matrix(1 0 0 1 2778.7478 454.5063)" class="st3 st4 st12"> </text>
	<line class="st21" x1="2678.8" y1="461.8" x2="3134.8" y2="461.8"/>
	<rect x="2683.8" y="466.8" class="st2" width="446" height="16.6"/>
	<text transform="matrix(1 0 0 1 2683.8479 478.8031)" class="st3 st4">+calcularResultado(regla:ReglaClasificacion):ResultadoAptitud</text>
	<text transform="matrix(1 0 0 1 2857.1479 478.8031)" class="st3 st4 st10"> </text>
	<text transform="matrix(1 0 0 1 2991.0479 478.8031)" class="st3 st4 st10"> </text>
	<text transform="matrix(1 0 0 1 3009.0479 478.8031)" class="st3 st4 st10"> </text>
</g>
<g id="elem_Usuario">
	<path id="Usuario" class="st15" d="M3110.8,83.9h119c1.4,0,2.5,1.1,2.5,2.5v91.9c0,1.4-1.1,2.5-2.5,2.5h-119
		c-1.4,0-2.5-1.1-2.5-2.5V86.4C3108.3,85,3109.4,83.9,3110.8,83.9z"/>
	<ellipse class="st20" cx="3141.3" cy="99.9" rx="11" ry="11"/>
	<path d="M3144.3,105.5c-0.4,0.2-0.8,0.3-1.2,0.4c-0.4,0.1-0.9,0.2-1.3,0.2c-1.7,0-2.9-0.5-3.8-1.6c-0.9-1.1-1.3-2.7-1.3-4.8
		s0.4-3.7,1.3-4.8c0.9-1.1,2.2-1.7,3.8-1.7c0.5,0,0.9,0.1,1.3,0.2c0.4,0.1,0.8,0.3,1.2,0.5v2.7c-0.4-0.4-0.8-0.7-1.2-0.8
		c-0.4-0.2-0.8-0.3-1.2-0.3c-0.9,0-1.6,0.4-2,1.1c-0.5,0.7-0.7,1.8-0.7,3.2c0,1.4,0.2,2.5,0.7,3.2s1.1,1.1,2,1.1
		c0.4,0,0.8-0.1,1.2-0.3s0.8-0.5,1.2-0.9V105.5z"/>
	<rect x="3159.3" y="92.7" class="st2" width="52" height="16.6"/>
	<text transform="matrix(1 0 0 1 3159.3479 104.711)" class="st3 st4">Usuario</text>
	<line class="st17" x1="3109.3" y1="115.9" x2="3231.3" y2="115.9"/>
	<rect x="3114.3" y="120.9" class="st2" width="64" height="16.6"/>
	<text transform="matrix(1 0 0 1 3114.3479 132.8593)" class="st3 st4">-id:UUID</text>
	<text transform="matrix(1 0 0 1 3129.948 132.8593)" class="st3 st4"> </text>
	<text transform="matrix(1 0 0 1 3138.948 132.8593)" class="st3 st4"> </text>
	<rect x="3114.3" y="137.2" class="st2" width="112" height="16.6"/>
	<text transform="matrix(1 0 0 1 3114.3479 149.1563)" class="st3 st4">-nombre:String</text>
	<text transform="matrix(1 0 0 1 3166.448 149.1563)" class="st3 st4 st13"> </text>
	<text transform="matrix(1 0 0 1 3180.0479 149.1563)" class="st3 st4 st13"> </text>
	<rect x="3114.3" y="153.5" class="st2" width="57" height="16.6"/>
	<text transform="matrix(1 0 0 1 3114.3479 165.4532)" class="st3 st4">-rol:Rol</text>
	<text transform="matrix(1 0 0 1 3134.5479 165.4532)" class="st3 st4 st24"> </text>
	<text transform="matrix(1 0 0 1 3144.448 165.4532)" class="st3 st4 st24"> </text>
	<line class="st17" x1="3109.3" y1="172.8" x2="3231.3" y2="172.8"/>
</g>
<g id="elem_HistorialEvento">
	<path id="HistorialEvento" class="st15" d="M3520.3,364.8h129c1.4,0,2.5,1.1,2.5,2.5v108.2c0,1.4-1.1,2.5-2.5,2.5h-129
		c-1.4,0-2.5-1.1-2.5-2.5V367.3C3517.8,365.9,3518.9,364.8,3520.3,364.8z"/>
	<ellipse class="st20" cx="3532.8" cy="380.8" rx="11" ry="11"/>
	<path d="M3535.8,386.4c-0.4,0.2-0.8,0.3-1.2,0.4c-0.4,0.1-0.9,0.2-1.3,0.2c-1.7,0-2.9-0.5-3.8-1.6s-1.3-2.7-1.3-4.8
		c0-2.1,0.4-3.7,1.3-4.8c0.9-1.1,2.2-1.7,3.8-1.7c0.5,0,0.9,0.1,1.3,0.2s0.8,0.3,1.2,0.5v2.7c-0.4-0.4-0.8-0.7-1.2-0.8
		c-0.4-0.2-0.8-0.3-1.2-0.3c-0.9,0-1.6,0.4-2,1.1c-0.5,0.7-0.7,1.8-0.7,3.2c0,1.4,0.2,2.5,0.7,3.2s1.1,1.1,2,1.1
		c0.4,0,0.8-0.1,1.2-0.3c0.4-0.2,0.8-0.5,1.2-0.9V386.4z"/>
	<rect x="3546.8" y="373.6" class="st2" width="102" height="16.6"/>
	<text transform="matrix(1 0 0 1 3546.8479 385.6176)" class="st3 st4">HistorialEvento</text>
	<line class="st17" x1="3518.8" y1="396.8" x2="3650.8" y2="396.8"/>
	<rect x="3523.8" y="401.8" class="st2" width="89" height="16.6"/>
	<text transform="matrix(1 0 0 1 3523.8479 413.766)" class="st3 st4">-fecha:Date</text>
	<text transform="matrix(1 0 0 1 3562.7478 413.766)" class="st3 st4 st22"> </text>
	<rect x="3523.8" y="418" class="st2" width="121" height="16.6"/>
	<text transform="matrix(1 0 0 1 3523.8479 430.0629)" class="st3 st4">-usuario:Usuario</text>
	<text transform="matrix(1 0 0 1 3574.448 430.0629)" class="st3 st4 st13"> </text>
	<text transform="matrix(1 0 0 1 3587.448 430.0629)" class="st3 st4 st13"> </text>
	<rect x="3523.8" y="434.3" class="st2" width="84" height="16.6"/>
	<text transform="matrix(1 0 0 1 3523.8479 446.3598)" class="st3 st4">-tipo:String</text>
	<text transform="matrix(1 0 0 1 3563.1477 446.3598)" class="st3 st4 st22"> </text>
	<rect x="3523.8" y="450.6" class="st2" width="104" height="16.6"/>
	<text transform="matrix(1 0 0 1 3523.8479 462.6566)" class="st3 st4">-detalle:String</text>
	<text transform="matrix(1 0 0 1 3569.7478 462.6566)" class="st3 st4 st22"> </text>
	<text transform="matrix(1 0 0 1 3582.448 462.6566)" class="st3 st4 st22"> </text>
	<line class="st17" x1="3518.8" y1="470" x2="3650.8" y2="470"/>
</g>
<g>
	<path class="st25" d="M62,42h315.4c11,0,20,8.9,20,20v200c0,11-8.9,20-20,20H62c-11,0-20-8.9-20-20V62C42,50.9,50.9,42,62,42z"/>
	<rect x="153.7" y="49" class="st2" width="132" height="17.3"/>
	<text transform="matrix(1 0 0 1 171.6882 59.2899)" class="st3 st26">Domain :: Enums</text>
	<g id="elem_Rol">
		<path id="Rol" class="st15" d="M56.8,67h87c1.4,0,2.5,1.1,2.5,2.5v91.9c0,1.4-1.1,2.5-2.5,2.5h-87c-1.4,0-2.5-1.1-2.5-2.5V69.5
			C54.3,68.2,55.5,67,56.8,67z"/>
		<ellipse class="st27" cx="86.4" cy="83" rx="11" ry="11"/>
		<path d="M90.6,89h-7.7V76.6h7.7v2.2h-5.3v2.7h4.8v2.2h-4.8V87h5.3V89z"/>
		<rect x="104.3" y="75.9" class="st2" width="22" height="16.6"/>
		<text transform="matrix(1 0 0 1 106.4784 86.1729)" class="st3 st26">Rol</text>
		<line class="st17" x1="55.3" y1="99" x2="145.3" y2="99"/>
		<text transform="matrix(1 0 0 1 60.35 116.0268)" class="st3 st26">OPERARIO</text>
		<text transform="matrix(1 0 0 1 60.35 132.3236)" class="st3 st26">INSPECTOR</text>
		<text transform="matrix(1 0 0 1 60.35 148.6206)" class="st3 st26">ADMIN</text>
		<line class="st17" x1="55.3" y1="155.9" x2="145.3" y2="155.9"/>
	</g>
	<g id="elem_EstadoLote">
		<path id="EstadoLote" class="st15" d="M158,67h105c1.4,0,2.5,1.1,2.5,2.5v91.9c0,1.4-1.1,2.5-2.5,2.5H158c-1.4,0-2.5-1.1-2.5-2.5
			V69.5C155.5,68.2,156.6,67,158,67z"/>
		<ellipse class="st27" cx="170.5" cy="83" rx="11" ry="11"/>
		<path d="M174.6,89h-7.7V76.6h7.7v2.2h-5.3v2.7h4.8v2.2h-4.8V87h5.3V89z"/>
		<rect x="184.5" y="75.9" class="st2" width="78" height="16.6"/>
		<text transform="matrix(1 0 0 1 191.1504 86.1729)" class="st3 st26">EstadoLote</text>
		<line class="st17" x1="156.5" y1="99" x2="264.5" y2="99"/>
		<text transform="matrix(1 0 0 1 161.5 116.0268)" class="st3 st26">EN_ENGORDE</text>
		<text transform="matrix(1 0 0 1 161.5 132.3236)" class="st3 st26">EN_COSECHA</text>
		<text transform="matrix(1 0 0 1 161.5 148.6206)" class="st3 st26">CERRADO</text>
		<line class="st17" x1="156.5" y1="155.9" x2="264.5" y2="155.9"/>
	</g>
	<g id="elem_ClaseCarne">
		<path id="ClaseCarne" class="st15" d="M277.3,67.6h106c1.4,0,2.5,1.1,2.5,2.5V162c0,1.4-1.1,2.5-2.5,2.5h-106
			c-1.4,0-2.5-1.1-2.5-2.5V70.1C274.8,68.7,275.9,67.6,277.3,67.6z"/>
		<ellipse class="st27" cx="289.8" cy="83.6" rx="11" ry="11"/>
		<path d="M293.9,89.6h-7.7V77.2h7.7v2.2h-5.3v2.7h4.8v2.2h-4.8v3.3h5.3V89.6z"/>
		<rect x="303.8" y="76.4" class="st2" width="79" height="16.6"/>
		<text transform="matrix(1 0 0 1 308.5044 86.7224)" class="st3 st26">ClaseCarne</text>
		<line class="st17" x1="275.8" y1="99.6" x2="384.8" y2="99.6"/>
		<text transform="matrix(1 0 0 1 280.7505 116.5766)" class="st3 st26">FRESCA</text>
		<text transform="matrix(1 0 0 1 280.7505 132.8734)" class="st3 st26">SOSPECHOSA</text>
		<text transform="matrix(1 0 0 1 280.7505 149.1704)" class="st3 st26">NO_APTA</text>
		<line class="st17" x1="275.8" y1="156.5" x2="384.8" y2="156.5"/>
	</g>
	<g id="elem_ResultadoAptitud">
		<path id="ResultadoAptitud" class="st15" d="M56.8,172h146c1.4,0,2.5,1.1,2.5,2.5v91.9c0,1.4-1.1,2.5-2.5,2.5h-146
			c-1.4,0-2.5-1.1-2.5-2.5v-91.9C54.3,173.1,55.5,172,56.8,172z"/>
		<ellipse class="st27" cx="69.3" cy="188" rx="11" ry="11"/>
		<path d="M73.5,194h-7.7v-12.4h7.7v2.2h-5.3v2.7H73v2.2h-4.8v3.3h5.3V194z"/>
		<rect x="83.3" y="180.8" class="st2" width="119" height="16.6"/>
		<text transform="matrix(1 0 0 1 92.4037 191.1097)" class="st3 st26">ResultadoAptitud</text>
		<line class="st17" x1="55.3" y1="204" x2="204.4" y2="204"/>
		<rect x="60.3" y="209" class="st2" width="36" height="16.6"/>
		<text transform="matrix(1 0 0 1 60.328 219.2582)" class="st3 st26">APTA</text>
		<text transform="matrix(1 0 0 1 60.35 237.2608)" class="st3 st26">REPROCESO</text>
		<rect x="60.3" y="241.5" class="st2" width="76" height="16.6"/>
		<text transform="matrix(1 0 0 1 60.35 251.8519)" class="st3 st26">DESCARTE</text>
		<line class="st17" x1="55.3" y1="260.9" x2="204.4" y2="260.9"/>
	</g>
</g>
<g id="elem_ReglaClasificacion">
	<path id="ReglaClasificacion" class="st15" d="M698.3,602.9h364c1.4,0,2.5,1.1,2.5,2.5v59.3c0,1.4-1.1,2.5-2.5,2.5h-364
		c-1.4,0-2.5-1.1-2.5-2.5v-59.3C695.8,604,696.9,602.9,698.3,602.9z"/>
	<ellipse class="st28" cx="814.6" cy="618.9" rx="11" ry="11"/>
	<path d="M810.5,614.6v-2.2h7.4v2.2h-2.5v8.1h2.5v2.2h-7.4v-2.2h2.5v-8.1H810.5z"/>
	<rect x="835.1" y="611.7" class="st2" width="123" height="16.6"/>
	<text transform="matrix(1 0 0 1 835.05 623.6967)" class="st3 st4">ReglaClasificacion</text>
	<line class="st17" x1="696.8" y1="634.9" x2="1063.8" y2="634.9"/>
	<line class="st17" x1="696.8" y1="642.9" x2="1063.8" y2="642.9"/>
	<rect x="701.8" y="647.8" class="st2" width="357" height="16.6"/>
	<text transform="matrix(1 0 0 1 701.8 659.8461)" class="st3 st4">+evaluar(fotos:List,datos:List):ResultadoAptitud</text>
	<text transform="matrix(1 0 0 1 803.8 659.8461)" class="st3 st4 st13"> </text>
	<text transform="matrix(1 0 0 1 838.5 659.8461)" class="st3 st4 st13"> </text>
	<text transform="matrix(1 0 0 1 881.8 659.8461)" class="st3 st4 st13"> </text>
	<text transform="matrix(1 0 0 1 894.7001 659.8461)" class="st3 st4 st13"> </text>
	<text transform="matrix(1 0 0 1 930.2001 659.8461)" class="st3 st4 st13"> </text>
	<text transform="matrix(1 0 0 1 943.1001 659.8461)" class="st3 st4 st13"> </text>
</g>
<g id="elem_LoteRepository">
	<path id="LoteRepository" class="st15" d="M1153.8,522.1h357c1.4,0,2.5,1.1,2.5,2.5v140.8c0,1.4-1.1,2.5-2.5,2.5h-357
		c-1.4,0-2.5-1.1-2.5-2.5V524.6C1151.3,523.2,1152.4,522.1,1153.8,522.1z"/>
	<ellipse class="st28" cx="1276.1" cy="538.1" rx="11" ry="11"/>
	<path d="M1272,533.9v-2.2h7.4v2.2h-2.5v8.1h2.5v2.2h-7.4V542h2.5v-8.1H1272z"/>
	<rect x="1296.6" y="530.9" class="st2" width="104" height="16.6"/>
	<text transform="matrix(1 0 0 1 1296.55 542.9564)" class="st3 st4">LoteRepository</text>
	<line class="st17" x1="1152.3" y1="554.1" x2="1512.3" y2="554.1"/>
	<line class="st17" x1="1152.3" y1="562.1" x2="1512.3" y2="562.1"/>
	<rect x="1157.3" y="567.1" class="st2" width="152" height="16.6"/>
	<text transform="matrix(1 0 0 1 1157.3 579.1059)" class="st3 st4">+byId(id:UUID):Lote</text>
	<text transform="matrix(1 0 0 1 1218.4 579.1059)" class="st3 st4 st23"> </text>
	<text transform="matrix(1 0 0 1 1264.2001 579.1059)" class="st3 st4 st23"> </text>
	<text transform="matrix(1 0 0 1 1275.1001 579.1059)" class="st3 st4 st23"> </text>
	<rect x="1157.3" y="583.4" class="st2" width="235" height="16.6"/>
	<text transform="matrix(1 0 0 1 1157.3 595.4026)" class="st3 st4">+byTanque(tanqueId:UUID):List</text>
	<text transform="matrix(1 0 0 1 1300 595.4026)" class="st3 st4 st13"> </text>
	<text transform="matrix(1 0 0 1 1348.1001 595.4026)" class="st3 st4 st13"> </text>
	<text transform="matrix(1 0 0 1 1361.3 595.4026)" class="st3 st4 st13"> </text>
	<rect x="1157.3" y="599.7" class="st2" width="170" height="16.6"/>
	<text transform="matrix(1 0 0 1 1157.3 611.6996)" class="st3 st4">+save(lote:Lote):UUID</text>
	<text transform="matrix(1 0 0 1 1222.3 611.6996)" class="st3 st4 st23"> </text>
	<text transform="matrix(1 0 0 1 1233.9 611.6996)" class="st3 st4 st23"> </text>
	<text transform="matrix(1 0 0 1 1273.6001 611.6996)" class="st3 st4 st23"> </text>
	<text transform="matrix(1 0 0 1 1285.3 611.6996)" class="st3 st4 st23"> </text>
	<rect x="1157.3" y="616" class="st2" width="340" height="16.6"/>
	<text transform="matrix(1 0 0 1 1157.3 627.9965)" class="st3 st4">+addMuestreo(loteId:UUID,m:Muestreo):void</text>
	<text transform="matrix(1 0 0 1 1286.1001 627.9965)" class="st3 st4 st22"> </text>
	<text transform="matrix(1 0 0 1 1298.7001 627.9965)" class="st3 st4 st22"> </text>
	<text transform="matrix(1 0 0 1 1345.5 627.9965)" class="st3 st4 st22"> </text>
	<text transform="matrix(1 0 0 1 1365.9001 627.9965)" class="st3 st4 st22"> </text>
	<text transform="matrix(1 0 0 1 1378.5 627.9965)" class="st3 st4 st22"> </text>
	<text transform="matrix(1 0 0 1 1450.3 627.9965)" class="st3 st4 st22"> </text>
	<text transform="matrix(1 0 0 1 1462.9001 627.9965)" class="st3 st4 st22"> </text>
	<rect x="1157.3" y="632.3" class="st2" width="298" height="16.6"/>
	<text transform="matrix(1 0 0 1 1157.3 644.2934)" class="st3 st4">+addFoto(loteId:UUID,f:Fotografia):void</text>
	<text transform="matrix(1 0 0 1 1312.8 644.2934)" class="st3 st4 st23"> </text>
	<text transform="matrix(1 0 0 1 1324.1001 644.2934)" class="st3 st4 st23"> </text>
	<text transform="matrix(1 0 0 1 1335.5 644.2934)" class="st3 st4 st23"> </text>
	<text transform="matrix(1 0 0 1 1410.7 644.2934)" class="st3 st4 st23"> </text>
	<text transform="matrix(1 0 0 1 1422.1001 644.2934)" class="st3 st4 st23"> </text>
	<rect x="1157.3" y="648.6" class="st2" width="350" height="16.6"/>
	<text transform="matrix(1 0 0 1 1157.3 660.5901)" class="st3 st4">+addEvaluacion(loteId:UUID,e:Evaluacion):void</text>
	<text transform="matrix(1 0 0 1 1307.9 660.5901)" class="st3 st4 st23"> </text>
	<text transform="matrix(1 0 0 1 1353.9 660.5901)" class="st3 st4 st23"> </text>
	<text transform="matrix(1 0 0 1 1369.4001 660.5901)" class="st3 st4 st23"> </text>
	<text transform="matrix(1 0 0 1 1381.1001 660.5901)" class="st3 st4 st23"> </text>
	<text transform="matrix(1 0 0 1 1462.1001 660.5901)" class="st3 st4 st23"> </text>
	<text transform="matrix(1 0 0 1 1473.8 660.5901)" class="st3 st4 st23"> </text>
</g>
<g id="elem_FotoStorage">
	<path id="FotoStorage" class="st15" d="M1550.3,562.9h306c1.4,0,2.5,1.1,2.5,2.5v59.3c0,1.4-1.1,2.5-2.5,2.5h-306
		c-1.4,0-2.5-1.1-2.5-2.5v-59.3C1547.8,564,1548.9,562.9,1550.3,562.9z"/>
	<ellipse class="st28" cx="1656.6" cy="578.9" rx="11" ry="11"/>
	<path d="M1652.5,574.6v-2.2h7.4v2.2h-2.5v8.1h2.5v2.2h-7.4v-2.2h2.5v-8.1H1652.5z"/>
	<rect x="1677.1" y="571.7" class="st2" width="85" height="16.6"/>
	<text transform="matrix(1 0 0 1 1677.05 583.6967)" class="st3 st4">FotoStorage</text>
	<line class="st17" x1="1548.8" y1="594.9" x2="1857.8" y2="594.9"/>
	<line class="st17" x1="1548.8" y1="602.9" x2="1857.8" y2="602.9"/>
	<rect x="1553.8" y="607.8" class="st2" width="299" height="16.6"/>
	<text transform="matrix(1 0 0 1 1553.8 619.8461)" class="st3 st4">+guardar(img:byte[],loteId:UUID):String</text>
	<text transform="matrix(1 0 0 1 1649.3 619.8461)" class="st3 st4 st22"> </text>
	<text transform="matrix(1 0 0 1 1695.4001 619.8461)" class="st3 st4 st22"> </text>
	<text transform="matrix(1 0 0 1 1737.7 619.8461)" class="st3 st4 st22"> </text>
	<text transform="matrix(1 0 0 1 1749.5 619.8461)" class="st3 st4 st22"> </text>
	<text transform="matrix(1 0 0 1 1796.4001 619.8461)" class="st3 st4 st22"> </text>
	<text transform="matrix(1 0 0 1 1808.3 619.8461)" class="st3 st4 st22"> </text>
</g>
<g id="elem_HikariDataSourceProvider">
	<path id="HikariDataSourceProvider" class="st15" d="M1929.3,602.9h202c1.4,0,2.5,1.1,2.5,2.5v59.3c0,1.4-1.1,2.5-2.5,2.5h-202
		c-1.4,0-2.5-1.1-2.5-2.5v-59.3C1926.8,604,1927.9,602.9,1929.3,602.9z"/>
	<ellipse class="st29" cx="1942.2" cy="618.9" rx="11" ry="11"/>
	<path d="M1945.2,624.5c-0.4,0.2-0.8,0.3-1.2,0.4c-0.4,0.1-0.9,0.2-1.3,0.2c-1.7,0-2.9-0.5-3.8-1.6c-0.9-1.1-1.3-2.7-1.3-4.8
		s0.4-3.7,1.3-4.8c0.9-1.1,2.2-1.7,3.8-1.7c0.5,0,0.9,0.1,1.3,0.2c0.4,0.1,0.8,0.3,1.2,0.5v2.7c-0.4-0.4-0.8-0.7-1.2-0.8
		c-0.4-0.2-0.8-0.3-1.2-0.3c-0.9,0-1.6,0.4-2,1.1c-0.5,0.7-0.7,1.8-0.7,3.2s0.2,2.5,0.7,3.2s1.1,1.1,2,1.1c0.4,0,0.8-0.1,1.2-0.3
		s0.8-0.5,1.2-0.9V624.5z"/>
	<rect x="1956.4" y="611.7" class="st2" width="174" height="16.6"/>
	<text transform="matrix(1 0 0 1 1956.3499 623.6977)" class="st3 st4">HikariDataSourceProvide</text>
	<text transform="matrix(1 0 0 1 2125.6499 623.6977)" class="st3 st4">r</text>
	<line class="st17" x1="1927.8" y1="634.9" x2="2132.8" y2="634.9"/>
	<line class="st17" x1="1927.8" y1="642.9" x2="2132.8" y2="642.9"/>
	<rect x="1932.8" y="647.8" class="st2" width="195" height="16.6"/>
	<text transform="matrix(1 0 0 1 1932.8 659.8461)" class="st3 st4">+dataSource():DataSource</text>
	<text transform="matrix(1 0 0 1 2039.8 659.8461)" class="st3 st4 st10"> </text>
</g>
<g id="elem_JdbcLoteRepository">
	<path id="JdbcLoteRepository" class="st15" d="M1936.3,332.6h160c1.4,0,2.5,1.1,2.5,2.5v59.3c0,1.4-1.1,2.5-2.5,2.5h-160
		c-1.4,0-2.5-1.1-2.5-2.5v-59.3C1933.8,333.7,1934.9,332.6,1936.3,332.6z"/>
	<ellipse class="st18" cx="1948.8" cy="348.6" rx="11" ry="11"/>
	<path d="M1951.8,354.3c-0.4,0.2-0.8,0.3-1.2,0.4s-0.9,0.2-1.3,0.2c-1.7,0-2.9-0.5-3.8-1.6c-0.9-1.1-1.3-2.7-1.3-4.8
		s0.4-3.7,1.3-4.8c0.9-1.1,2.2-1.7,3.8-1.7c0.5,0,0.9,0.1,1.3,0.2c0.4,0.1,0.8,0.3,1.2,0.5v2.7c-0.4-0.4-0.8-0.7-1.2-0.8
		c-0.4-0.2-0.8-0.3-1.2-0.3c-0.9,0-1.6,0.4-2,1.1c-0.5,0.7-0.7,1.8-0.7,3.2c0,1.4,0.2,2.5,0.7,3.2s1.1,1.1,2,1.1
		c0.4,0,0.8-0.1,1.2-0.3c0.4-0.2,0.8-0.5,1.2-0.9V354.3z"/>
	<rect x="1962.8" y="341.5" class="st2" width="133" height="16.6"/>
	<text transform="matrix(1 0 0 1 1962.8 353.4863)" class="st3 st4">JdbcLoteRepositor</text>
	<text transform="matrix(1 0 0 1 2088.8 353.4863)" class="st3 st4">y</text>
	<line class="st17" x1="1934.8" y1="364.6" x2="2097.8" y2="364.6"/>
	<rect x="1939.8" y="369.6" class="st2" width="116" height="16.6"/>
	<text transform="matrix(1 0 0 1 1939.8 381.6347)" class="st3 st4">-ds:DataSource</text>
	<text transform="matrix(1 0 0 1 1959.2 381.6347)" class="st3 st4 st13"> </text>
	<text transform="matrix(1 0 0 1 1972.5 381.6347)" class="st3 st4 st13"> </text>
	<line class="st17" x1="1934.8" y1="388.9" x2="2097.8" y2="388.9"/>
</g>
<g id="elem_LocalFileFotoStorage">
	<path id="LocalFileFotoStorage" class="st15" d="M1678.8,333h170c1.4,0,2.5,1.1,2.5,2.5v59.3c0,1.4-1.1,2.5-2.5,2.5h-170
		c-1.4,0-2.5-1.1-2.5-2.5v-59.3C1676.3,334.1,1677.4,333,1678.8,333z"/>
	<ellipse class="st18" cx="1691.3" cy="349" rx="11" ry="11"/>
	<path d="M1694.3,354.7c-0.4,0.2-0.8,0.3-1.2,0.4s-0.9,0.2-1.3,0.2c-1.7,0-2.9-0.5-3.8-1.6c-0.9-1.1-1.3-2.7-1.3-4.8
		s0.4-3.7,1.3-4.8c0.9-1.1,2.2-1.7,3.8-1.7c0.5,0,0.9,0.1,1.3,0.2c0.4,0.1,0.8,0.3,1.2,0.5v2.7c-0.4-0.4-0.8-0.7-1.2-0.8
		c-0.4-0.2-0.8-0.3-1.2-0.3c-0.9,0-1.6,0.4-2,1.1c-0.5,0.7-0.7,1.8-0.7,3.2c0,1.4,0.2,2.5,0.7,3.2s1.1,1.1,2,1.1
		c0.4,0,0.8-0.1,1.2-0.3c0.4-0.2,0.8-0.5,1.2-0.9V354.7z"/>
	<rect x="1705.3" y="341.9" class="st2" width="143" height="16.6"/>
	<text transform="matrix(1 0 0 1 1705.3 353.8363)" class="st3 st4">LocalFileFotoStorage</text>
	<line class="st17" x1="1677.3" y1="365" x2="1850.3" y2="365"/>
	<rect x="1682.3" y="370" class="st2" width="123" height="16.6"/>
	<text transform="matrix(1 0 0 1 1682.3 381.9847)" class="st3 st4">-basePath:String</text>
	<text transform="matrix(1 0 0 1 1746.1001 381.9847)" class="st3 st4 st13"> </text>
	<text transform="matrix(1 0 0 1 1759.4001 381.9847)" class="st3 st4 st13"> </text>
	<line class="st17" x1="1677.3" y1="389.3" x2="1850.3" y2="389.3"/>
</g>
<g id="elem_ModeloProvider">
	<path id="ModeloProvider" class="st15" d="M114.6,474.8h139c1.4,0,2.5,1.1,2.5,2.5v91.9c0,1.4-1.1,2.5-2.5,2.5h-139
		c-1.4,0-2.5-1.1-2.5-2.5v-91.9C112.1,476,113.2,474.8,114.6,474.8z"/>
	<ellipse class="st30" cx="129.3" cy="490.8" rx="11" ry="11"/>
	<path d="M132.3,496.5c-0.4,0.2-0.8,0.3-1.2,0.4s-0.9,0.2-1.3,0.2c-1.7,0-2.9-0.5-3.8-1.6s-1.3-2.7-1.3-4.8c0-2.1,0.4-3.7,1.3-4.8
		c0.9-1.1,2.2-1.7,3.8-1.7c0.5,0,0.9,0.1,1.3,0.2s0.8,0.3,1.2,0.5v2.7c-0.4-0.4-0.8-0.7-1.2-0.8c-0.4-0.2-0.8-0.3-1.2-0.3
		c-0.9,0-1.6,0.4-2,1.1c-0.5,0.7-0.7,1.8-0.7,3.2c0,1.4,0.2,2.5,0.7,3.2s1.1,1.1,2,1.1c0.4,0,0.8-0.1,1.2-0.3
		c0.4-0.2,0.8-0.5,1.2-0.9V496.5z"/>
	<rect x="143.8" y="483.7" class="st2" width="107" height="16.6"/>
	<text transform="matrix(1 0 0 1 143.8501 495.6861)" class="st3 st4">ModeloProvider</text>
	<line class="st17" x1="113.1" y1="506.8" x2="255.1" y2="506.8"/>
	<rect x="118.1" y="511.8" class="st2" width="132" height="16.6"/>
	<text transform="matrix(1 0 0 1 118.1001 523.8345)" class="st3 st4">-modelPath:String</text>
	<text transform="matrix(1 0 0 1 203.6001 523.8345)" class="st3 st4 st19"> </text>
	<rect x="118.1" y="528.1" class="st2" width="108" height="16.6"/>
	<text transform="matrix(1 0 0 1 118.1001 540.1314)" class="st3 st4">-version:String</text>
	<text transform="matrix(1 0 0 1 167.9001 540.1314)" class="st3 st4 st22"> </text>
	<text transform="matrix(1 0 0 1 180.7001 540.1314)" class="st3 st4 st22"> </text>
	<line class="st17" x1="113.1" y1="547.4" x2="255.1" y2="547.4"/>
	<rect x="118.1" y="552.4" class="st2" width="123" height="16.6"/>
	<text transform="matrix(1 0 0 1 118.1001 564.4282)" class="st3 st4">+cargar():Object</text>
	<text transform="matrix(1 0 0 1 175.3 564.4282)" class="st3 st4 st19"> </text>
	<text transform="matrix(1 0 0 1 189.9001 564.4282)" class="st3 st4 st19"> </text>
</g>
<g id="elem_PreprocesadorImagen">
	<path id="PreprocesadorImagen" class="st15" d="M272.8,479.4h228c1.4,0,2.5,1.1,2.5,2.5v59.3c0,1.4-1.1,2.5-2.5,2.5h-228
		c-1.4,0-2.5-1.1-2.5-2.5v-59.3C270.3,480.5,271.4,479.4,272.8,479.4z"/>
	<ellipse class="st30" cx="306.9" cy="495.4" rx="11" ry="11"/>
	<path d="M309.9,501c-0.4,0.2-0.8,0.3-1.2,0.4c-0.4,0.1-0.9,0.2-1.3,0.2c-1.7,0-2.9-0.5-3.8-1.6s-1.3-2.7-1.3-4.8s0.4-3.7,1.3-4.8
		c0.9-1.1,2.2-1.7,3.8-1.7c0.5,0,0.9,0.1,1.3,0.2s0.8,0.3,1.2,0.5v2.7c-0.4-0.4-0.8-0.7-1.2-0.8c-0.4-0.2-0.8-0.3-1.2-0.3
		c-0.9,0-1.6,0.4-2,1.1c-0.5,0.7-0.7,1.8-0.7,3.2c0,1.4,0.2,2.5,0.7,3.2s1.1,1.1,2,1.1c0.4,0,0.8-0.1,1.2-0.3
		c0.4-0.2,0.8-0.5,1.2-0.9V501z"/>
	<rect x="325.7" y="488.2" class="st2" width="153" height="16.6"/>
	<text transform="matrix(1 0 0 1 325.7224 500.2448)" class="st3 st4">PreprocesadorImage</text>
	<text transform="matrix(1 0 0 1 470.9224 500.2448)" class="st3 st4">n</text>
	<line class="st17" x1="271.3" y1="511.4" x2="502.3" y2="511.4"/>
	<line class="st17" x1="271.3" y1="519.4" x2="502.3" y2="519.4"/>
	<rect x="276.3" y="524.4" class="st2" width="221" height="16.6"/>
	<text transform="matrix(1 0 0 1 276.322 536.3933)" class="st3 st4">+procesar(ruta:String):Object</text>
</g>
<g id="elem_PostprocesadorSalida">
	<path id="PostprocesadorSalida" class="st15" d="M60,583.7h532c1.4,0,2.5,1.1,2.5,2.5v75.6c0,1.4-1.1,2.5-2.5,2.5H60
		c-1.4,0-2.5-1.1-2.5-2.5v-75.6C57.5,584.8,58.6,583.7,60,583.7z"/>
	<ellipse class="st30" cx="246.8" cy="599.7" rx="11" ry="11"/>
	<path d="M249.7,605.3c-0.4,0.2-0.8,0.3-1.2,0.4c-0.4,0.1-0.9,0.2-1.3,0.2c-1.7,0-2.9-0.5-3.8-1.6c-0.9-1.1-1.3-2.7-1.3-4.8
		s0.4-3.7,1.3-4.8c0.9-1.1,2.2-1.7,3.8-1.7c0.5,0,0.9,0.1,1.3,0.2c0.4,0.1,0.8,0.3,1.2,0.5v2.7c-0.4-0.4-0.8-0.7-1.2-0.8
		c-0.4-0.2-0.8-0.3-1.2-0.3c-0.9,0-1.6,0.4-2,1.1c-0.5,0.7-0.7,1.8-0.7,3.2s0.2,2.5,0.7,3.2s1.1,1.1,2,1.1c0.4,0,0.8-0.1,1.2-0.3
		s0.8-0.5,1.2-0.9V605.3z"/>
	<rect x="267.3" y="592.5" class="st2" width="150" height="16.6"/>
	<text transform="matrix(1 0 0 1 267.25 604.5473)" class="st3 st4">PostprocesadorSalida</text>
	<line class="st17" x1="58.5" y1="615.7" x2="593.5" y2="615.7"/>
	<line class="st17" x1="58.5" y1="623.7" x2="593.5" y2="623.7"/>
	<rect x="63.5" y="628.7" class="st2" width="308" height="16.6"/>
	<text transform="matrix(1 0 0 1 63.5 640.6957)" class="st3 st4">+aClasificacion(salidaObject):Clasificacion</text>
	<text transform="matrix(1 0 0 1 199.3 640.6957)" class="st3 st4 st19"> </text>
	<text transform="matrix(1 0 0 1 213.4 640.6957)" class="st3 st4 st19"> </text>
	<text transform="matrix(1 0 0 1 268.7 640.6957)" class="st3 st4 st19"> </text>
	<text transform="matrix(1 0 0 1 282.7 640.6957)" class="st3 st4 st19"> </text>
	<rect x="63.5" y="645" class="st2" width="525" height="16.6"/>
	<text transform="matrix(1 0 0 1 63.5 656.9926)" class="st3 st4">+aResultado(fotos:List,datos:List,clasif:Clasificacion):ResultadoAptitud</text>
	<text transform="matrix(1 0 0 1 224.7 656.9926)" class="st3 st4 st22"> </text>
	<text transform="matrix(1 0 0 1 267.7 656.9926)" class="st3 st4 st22"> </text>
	<text transform="matrix(1 0 0 1 314.9 656.9926)" class="st3 st4 st22"> </text>
	<text transform="matrix(1 0 0 1 355.6 656.9926)" class="st3 st4 st22"> </text>
	<text transform="matrix(1 0 0 1 368.3 656.9926)" class="st3 st4 st22"> </text>
	<text transform="matrix(1 0 0 1 460.4 656.9926)" class="st3 st4 st22"> </text>
</g>
<g id="elem_IAReglaClasificacionONNX">
	<path id="IAReglaClasificacionONNX" class="st15" d="M57.8,331.8h364c1.4,0,2.5,1.1,2.5,2.5v108.2c0,1.4-1.1,2.5-2.5,2.5h-364
		c-1.4,0-2.5-1.1-2.5-2.5V334.3C55.3,332.9,56.5,331.8,57.8,331.8z"/>
	<ellipse class="st30" cx="148.1" cy="347.8" rx="11" ry="11"/>
	<path d="M151.1,353.4c-0.4,0.2-0.8,0.3-1.2,0.4s-0.9,0.2-1.3,0.2c-1.7,0-2.9-0.5-3.8-1.6c-0.9-1.1-1.3-2.7-1.3-4.8
		c0-2.1,0.4-3.7,1.3-4.8c0.9-1.1,2.2-1.7,3.8-1.7c0.5,0,0.9,0.1,1.3,0.2c0.4,0.1,0.8,0.3,1.2,0.5v2.7c-0.4-0.4-0.8-0.7-1.2-0.8
		c-0.4-0.2-0.8-0.3-1.2-0.3c-0.9,0-1.6,0.4-2,1.1c-0.5,0.7-0.7,1.8-0.7,3.2c0,1.4,0.2,2.5,0.7,3.2s1.1,1.1,2,1.1
		c0.4,0,0.8-0.1,1.2-0.3c0.4-0.2,0.8-0.5,1.2-0.9V353.4z"/>
	<rect x="168.6" y="340.6" class="st2" width="175" height="16.6"/>
	<text transform="matrix(1 0 0 1 168.6001 352.6176)" class="st3 st4">IAReglaClasificacion</text>
	<line class="st17" x1="56.3" y1="363.8" x2="423.4" y2="363.8"/>
	<rect x="61.3" y="368.8" class="st2" width="181" height="16.6"/>
	<text transform="matrix(1 0 0 1 61.3501 380.766)" class="st3 st4">-provider:ModeloProvider</text>
	<text transform="matrix(1 0 0 1 132.3501 380.766)" class="st3 st4 st12"> </text>
	<rect x="61.3" y="385" class="st2" width="194" height="16.6"/>
	<text transform="matrix(1 0 0 1 61.3501 397.0629)" class="st3 st4">-pre:PreprocesadorImagen</text>
	<text transform="matrix(1 0 0 1 86.2501 397.0629)" class="st3 st4 st8"> </text>
	<text transform="matrix(1 0 0 1 103.4501 397.0629)" class="st3 st4 st8"> </text>
	<rect x="61.3" y="401.3" class="st2" width="199" height="16.6"/>
	<text transform="matrix(1 0 0 1 61.3501 413.3598)" class="st3 st4">-post:PostprocesadorSalida</text>
	<text transform="matrix(1 0 0 1 92.4501 413.3598)" class="st3 st4 st8"> </text>
	<text transform="matrix(1 0 0 1 109.8501 413.3598)" class="st3 st4 st8"> </text>
	<line class="st17" x1="56.3" y1="420.7" x2="423.4" y2="420.7"/>
	<rect x="61.3" y="425.6" class="st2" width="357" height="16.6"/>
	<text transform="matrix(1 0 0 1 61.3501 437.6566)" class="st3 st4">+evaluar(fotos:List,datos:List):ResultadoAptitud</text>
	<text transform="matrix(1 0 0 1 150.4501 437.6566)" class="st3 st4 st13"> </text>
	<text transform="matrix(1 0 0 1 163.3501 437.6566)" class="st3 st4 st13"> </text>
	<text transform="matrix(1 0 0 1 198.05 437.6566)" class="st3 st4 st13"> </text>
	<text transform="matrix(1 0 0 1 241.3501 437.6566)" class="st3 st4 st13"> </text>
	<text transform="matrix(1 0 0 1 254.2501 437.6566)" class="st3 st4 st13"> </text>
	<text transform="matrix(1 0 0 1 289.7501 437.6566)" class="st3 st4 st13"> </text>
	<text transform="matrix(1 0 0 1 302.6501 437.6566)" class="st3 st4 st13"> </text>
</g>
<g id="elem_IAReglaClasificacionHTTP">
	<path id="IAReglaClasificacionHTTP" class="st15" d="M443.5,334.8h364c1.4,0,2.5,1.1,2.5,2.5v75.6c0,1.4-1.1,2.5-2.5,2.5h-364
		c-1.4,0-2.5-1.1-2.5-2.5v-75.6C441,335.9,442.1,334.8,443.5,334.8z"/>
	<ellipse class="st30" cx="535.3" cy="350.8" rx="11" ry="11"/>
	<path d="M538.2,356.4c-0.4,0.2-0.8,0.3-1.2,0.4s-0.9,0.2-1.3,0.2c-1.7,0-2.9-0.5-3.8-1.6s-1.3-2.7-1.3-4.8c0-2.1,0.4-3.7,1.3-4.8
		c0.9-1.1,2.2-1.7,3.8-1.7c0.5,0,0.9,0.1,1.3,0.2s0.8,0.3,1.2,0.5v2.7c-0.4-0.4-0.8-0.7-1.2-0.8c-0.4-0.2-0.8-0.3-1.2-0.3
		c-0.9,0-1.6,0.4-2,1.1c-0.5,0.7-0.7,1.8-0.7,3.2c0,1.4,0.2,2.5,0.7,3.2s1.1,1.1,2,1.1c0.4,0,0.8-0.1,1.2-0.3
		c0.4-0.2,0.8-0.5,1.2-0.9V356.4z"/>
	<rect x="555.8" y="343.6" class="st2" width="172" height="16.6"/>
	<text transform="matrix(1 0 0 1 555.7615 355.6195)" class="st3 st4">IAReglaClasificacionHTT</text>
	<text transform="matrix(1 0 0 1 718.4614 355.6195)" class="st3 st4">P</text>
	<line class="st17" x1="442" y1="366.8" x2="809" y2="366.8"/>
	<rect x="447" y="371.8" class="st2" width="120" height="16.6"/>
	<text transform="matrix(1 0 0 1 447.0115 383.7679)" class="st3 st4">-endpoint:String</text>
	<text transform="matrix(1 0 0 1 505.4115 383.7679)" class="st3 st4 st19"> </text>
	<text transform="matrix(1 0 0 1 519.8115 383.7679)" class="st3 st4 st19"> </text>
	<line class="st17" x1="442" y1="391.1" x2="809" y2="391.1"/>
	<rect x="447" y="396.1" class="st2" width="357" height="16.6"/>
	<text transform="matrix(1 0 0 1 447.0115 408.0648)" class="st3 st4">+evaluar(fotos:List,datos:List):ResultadoAptitud</text>
	<text transform="matrix(1 0 0 1 583.7114 408.0648)" class="st3 st4 st13"> </text>
	<text transform="matrix(1 0 0 1 627.0115 408.0648)" class="st3 st4 st13"> </text>
	<text transform="matrix(1 0 0 1 639.9115 408.0648)" class="st3 st4 st13"> </text>
	<text transform="matrix(1 0 0 1 675.4115 408.0648)" class="st3 st4 st13"> </text>
	<text transform="matrix(1 0 0 1 688.3115 408.0648)" class="st3 st4 st13"> </text>
</g>
<g id="link_Lote_Muestreo">
	<path id="Lote-backto-Muestreo" class="st31" d="M2742.3,232.1h-204.5v124.5"/>
	<polygon class="st32" points="2752.2,232 2746.1,228.1 2740.1,232.2 2746.2,236.1 	"/>
	<polygon class="st32" points="2564.2,243.8 2573.2,247 2573.4,241.1 	"/>
	<rect x="2707.2" y="298.7" class="st2" width="55" height="15.4"/>
	<g>
		<text transform="matrix(1 0 0 1 2578.054 247.5)" class="st33 st3 st34">contiene</text>
	</g>
</g>
<g id="link_Lote_Fotografia">
	<path id="Lote-backto-Fotografia" class="st31" d="M3072.6,232.1l250,0l0.2,132.1"/>
	<polygon class="st32" points="3062.2,232.2 3068.2,236.1 3074.1,232 3068.1,228.1 	"/>
	<polygon class="st32" points="3249.9,248.5 3252.8,239.5 3246.9,239.6 	"/>
	<rect x="3155.9" y="298.7" class="st2" width="55" height="15.4"/>
	<g>
		<text transform="matrix(1 0 0 1 3255.9983 248.2815)" class="st33 st3 st34">contiene</text>
	</g>
</g>
<g id="link_Lote_Evaluacion">
	<path id="Lote-backto-Evaluacion" class="st31" d="M2906.8,279.1c0,29.9,0,50.2,0,77.3"/>
	<polygon class="st32" points="2906.8,267.1 2902.8,273.1 2906.8,279.1 2910.8,273.1 	"/>
	<polygon class="st32" points="2915.8,311.3 2918.7,302.3 2912.9,302.3 	"/>
	<rect x="2920.8" y="298.7" class="st2" width="55" height="15.4"/>
	<g>
		<text transform="matrix(1 0 0 1 2920.8479 309.8363)" class="st33 st3 st34">contiene</text>
	</g>
</g>
<g id="link_Lote_HistorialEvento">
	<path id="Lote-backto-HistorialEvento" class="st31" d="M3072.6,199.8H3585l-0.7,165"/>
	<polygon class="st32" points="3062.2,199.7 3068.2,203.8 3074.1,199.8 3068.2,195.8 	"/>
	<polygon class="st32" points="3511.3,216.6 3514.2,207.5 3508.3,207.6 	"/>
	<rect x="3487.2" y="298.7" class="st2" width="51" height="15.4"/>
	<g>
		<text transform="matrix(1 0 0 1 3517.2051 215.503)" class="st33 st3 st34">evento</text>
	</g>
</g>
<g id="link_Lote_Tanque">
	<path id="Lote-Tanque" class="st31" d="M2751.5,199.9l-401.3-0.1l-0.5,172.7"/>
	<polygon class="st32" points="2417.7,191.1 2426.7,194.2 2426.8,188.3 	"/>
	<text transform="matrix(1 0 0 1 2432.8484 193.4328)" class="st33 st3 st34">pertenece</text>
</g>
<g id="link_Fotografia_Clasificacion">
	<path id="Fotografia-to-Clasificacion" class="st31" d="M3326.8,477.3c0,34.1,0,25.9,0,61.5"/>
	<polygon class="st32" points="3326.8,544.8 3330.8,535.8 3326.8,539.8 3322.8,535.8 	"/>
	<polygon class="st32" points="3336.8,519.7 3339.7,510.6 3333.9,510.6 	"/>
	<rect x="3340.8" y="518" class="st2" width="94" height="15.4"/>
	<g>
		<text transform="matrix(1 0 0 1 3342.8479 519.1771)" class="st33 st3 st34">clasificada_por</text>
	</g>
</g>
<g id="link_Evaluacion_ReglaClasificacion">
	<path id="Evaluacion-to-ReglaClasificacion" class="st35" d="M2699.3,486.6l-355.8,219.8l-1367.9,0.2l-0.1-34.4"/>
	<polygon class="st32" points="975.5,667.2 971.7,676.3 975.6,672.2 979.6,676.1 	"/>
	<rect x="1402.5" y="496" class="st2" width="23" height="15.4"/>
	<text transform="matrix(1 0 0 1 1094.9229 697.8999)" class="st33 st3 st36 st24">usa</text>
</g>
<g id="link_UIController_RegistrarMuestreoConFoto">
	<path id="UIController-to-RegistrarMuestreoConFoto" class="st37" d="M1261.6,173.9l114.6,151.9"/>
	<polygon class="st38" points="1379.8,330.6 1377.5,321.1 1376.8,326.7 1371.2,325.9 	"/>
</g>
<g id="link_UIController_EvaluarLoteService">
	<path id="UIController-to-EvaluarLoteService" class="st37" d="M1189,173.9l-114.6,151.9"/>
	<polygon class="st38" points="1070.8,330.6 1079.4,325.9 1073.8,326.7 1073.1,321.1 	"/>
</g>
<g id="link_RegistrarMuestreoConFoto_LoteRepository">
	<path id="RegistrarMuestreoConFoto-to-LoteRepository" class="st39" d="M1339.1,427.8V517"/>
	<polygon class="st38" points="1339.2,523.4 1343,514.4 1339.1,518.4 1335.1,514.4 	"/>
</g>
<g id="link_RegistrarMuestreoConFoto_FotoStorage">
	<path id="RegistrarMuestreoConFoto-to-FotoStorage" class="st39" d="M1600.7,427.8v128.3"/>
	<polygon class="st38" points="1600.9,563 1604.5,553.7 1600.6,557.9 1596.4,554.2 	"/>
</g>
<g id="link_EvaluarLoteService_LoteRepository">
	<path id="EvaluarLoteService-to-LoteRepository" class="st5" d="M1166.1,427.8v89.9"/>
	<polygon class="st38" points="1166.1,522.3 1170,513.2 1166,517.3 1162,513.3 	"/>
</g>
<g id="link_EvaluarLoteService_ReglaClasificacion">
	<path id="EvaluarLoteService-to-ReglaClasificacion" class="st5" d="M979.7,427.8v169"/>
	<polygon class="st38" points="979.9,604.4 983.7,595.4 979.7,599.5 975.7,595.6 	"/>
</g>
<g id="link_JdbcLoteRepository_LoteRepository">
	<path id="JdbcLoteRepository-to-LoteRepository" class="st39" d="M1948.6,397.3l0.2,68.8h-585.4v41.1"/>
	<polygon class="st38" points="1363.4,525.2 1369.4,507.2 1357.4,507.2 	"/>
</g>
<g id="link_LocalFileFotoStorage_FotoStorage">
	<path id="LocalFileFotoStorage-to-FotoStorage" class="st39" d="M1762.1,397.7v150.7"/>
	<polygon class="st38" points="1762.1,562.6 1768.1,544.6 1756.1,544.6 	"/>
</g>
<g id="link_JdbcLoteRepository_HikariDataSourceProvider">
	<path id="JdbcLoteRepository-to-HikariDataSourceProvider" class="st39" d="M1962.8,396.9v199.8"/>
	<polygon class="st38" points="1963,602.7 1967,593.7 1963,597.8 1959,593.8 	"/>
</g>
<g id="link_IAReglaClasificacionONNX_ReglaClasificacion">
	<path id="IAReglaClasificacionONNX-to-ReglaClasificacion" class="st40" d="M424.4,438.1H767V593"/>
	<polygon class="st41" points="767.6,605.5 773.2,587.3 761.2,587.7 	"/>
</g>
<g id="link_IAReglaClasificacionHTTP_ReglaClasificacion">
	<path id="IAReglaClasificacionHTTP-to-ReglaClasificacion" class="st42" d="M788.6,415.4v176.3"/>
	<polygon class="st41" points="789,605.9 794.8,587.9 782.9,588 	"/>
</g>
<g id="link_IAReglaClasificacionONNX_PostprocesadorSalida">
	<path id="IAReglaClasificacionONNX-to-PostprocesadorSalida" class="st42" d="M90.9,445.2V578"/>
	<polygon class="st41" points="91,582.8 94.9,573.8 90.9,577.8 86.9,573.9 	"/>
</g>
<g id="link_IAReglaClasificacionONNX_PostprocesadorSalida_1_">
	<path id="IAReglaClasificacionONNX-to-PostprocesadorSalida_1_" class="st42" d="M129.6,444.2V470"/>
	<polygon class="st41" points="129.6,474.8 133.5,465.8 129.6,469.8 125.5,465.9 	"/>
</g>
<g id="link_IAReglaClasificacionONNX_PostprocesadorSalida_2_">
	<path id="IAReglaClasificacionONNX-to-PostprocesadorSalida_2_" class="st42" d="M293.2,444.7v29.8"/>
	<polygon class="st41" points="293.3,479.4 297.2,470.3 293.2,474.4 289.2,470.4 	"/>
</g>
</svg>
