<?xml version="1.0" encoding="utf-8"?>
<!-- Generator: Adobe Illustrator 22.1.0, SVG Export Plug-In . SVG Version: 6.00 Build 0)  -->
<svg version="1.1" id="Capa_1" xmlns="http://www.w3.org/2000/svg" xmlns:xlink="http://www.w3.org/1999/xlink" x="0px" y="0px"
	 viewBox="0 0 696 1246" style="enable-background:new 0 0 696 1246;" xml:space="preserve">
<style type="text/css">
	.st0{fill:#E8F0FE;}
	.st1{fill:none;stroke:#181818;stroke-width:2;stroke-linecap:round;stroke-linejoin:round;stroke-dasharray:11.9739,6.9848;}
	.st2{font-family:'CenturyGothic-Bold';}
	.st3{font-size:14px;}
	.st4{fill:#E8FFE8;}
	.st5{fill:none;stroke:#181818;stroke-width:2;stroke-linecap:round;stroke-linejoin:round;stroke-dasharray:12.0157,7.0092;}
	.st6{fill:none;}
	.st7{fill:#FFF7E6;}
	.st8{fill:none;stroke:#181818;stroke-width:2;stroke-linecap:round;stroke-linejoin:round;stroke-dasharray:11.9864,6.9921;}
	.st9{fill:#F3E8FF;}
	.st10{fill:none;stroke:#181818;stroke-width:2;stroke-linecap:round;stroke-linejoin:round;stroke-dasharray:12.0394,7.023;}
	.st11{fill:#F9FAFB;stroke:#181818;stroke-width:0.5;}
	.st12{font-family:'CenturyGothic';}
	.st13{fill:#FEFFDD;stroke:#181818;stroke-width:0.5;}
	.st14{fill:#FEFFDD;stroke:#181818;}
	.st15{font-family:'ArialMT';}
	.st16{font-size:13px;}
	.st17{letter-spacing:4;}
	.st18{letter-spacing:5;}
	.st19{fill:none;stroke:#181818;stroke-dasharray:7,7;}
	.st20{fill:#040303;}
	.st21{fill:#040403;}
	.st22{fill:#030304;}
	.st23{fill:#FC4654;}
	.st24{fill:#FCE359;}
	.st25{fill:#3DA1FC;}
	.st26{fill:#040202;}
	.st27{fill:#F62A39;}
	.st28{fill:#040402;}
	.st29{fill:#FAD102;}
	.st30{fill:#020304;}
	.st31{fill:#2A95E5;}
	.st32{fill:#030303;}
	.st33{fill:#FDFDFD;}
	.st34{fill:#49659F;}
	.st35{fill:#F1F3FA;}
	.st36{fill:#92BBE6;}
	.st37{fill:#E6EAF7;}
	.st38{fill:#67A0DC;}
	.st39{fill:#91BAE5;}
	.st40{fill:#667AA6;}
	.st41{fill:#677CA9;}
	.st42{fill:#FA6C7D;}
	.st43{fill:#F5465C;}
	.st44{fill:#EFF1F8;}
	.st45{fill:#040404;}
	.st46{fill:#070808;}
	.st47{fill:#EAF0FC;}
	.st48{fill:#2E1964;}
	.st49{fill:#6ACBF1;}
	.st50{fill:#FDC363;}
	.st51{fill:#6ACCF2;}
	.st52{fill:#FDC464;}
	.st53{fill:#FBD9A0;}
	.st54{fill:#A5DFF6;}
	.st55{fill:#FEFEFE;}
	.st56{fill:#311F6A;}
	.st57{fill:#2B1561;}
	.st58{fill:#F7FCFD;}
	.st59{fill:#331D65;}
	.st60{fill:#FEFBF7;}
	.st61{fill:#FAF7FB;}
	.st62{fill:#020202;}
	.st63{fill:#E5E8EC;}
	.st64{fill:#F9D46F;}
	.st65{fill:#FC806D;}
	.st66{fill:#B2DA7D;}
	.st67{fill:#C8CDD5;}
	.st68{fill:#FC816D;}
	.st69{fill:#FAD66F;}
	.st70{fill:#F27B68;}
	.st71{fill:#FBD670;}
	.st72{fill:#FCFCFC;}
	.st73{fill:#518FC0;}
	.st74{fill:#4E8BBB;}
	.st75{fill:#F18C03;}
	.st76{fill:#ED8A02;}
	.st77{fill:#EC8903;}
	.st78{fill:#4B85B3;}
	.st79{fill:#F28D02;}
	.st80{fill:#4D87B6;}
	.st81{fill:#4C87B6;}
	.st82{fill:#4F8BBB;}
</style>
<g>
	<g id="cluster_L5">
		<g>
			<path class="st0" d="M33.8,7h626c14.8,0,26.8,12,26.8,26.8v1081.6c0,14.8-12,26.8-26.8,26.8h-626c-14.8,0-26.8-12-26.8-26.8V33.8
				C7,19,19,7,33.8,7z"/>
			<path class="st1" d="M33.8,7h626c14.8,0,26.8,12,26.8,26.8v1081.6c0,14.8-12,26.8-26.8,26.8h-626c-14.8,0-26.8-12-26.8-26.8V33.8
				C7,19,19,7,33.8,7z"/>
		</g>
		<text transform="matrix(1 0 0 1 311.1859 50.6509)" class="st2 st3">Actores / UI</text>
		<g>
			<text transform="matrix(1 0 0 1 216.1779 79.5415)" class="st2 st3">arch.api:</text>
			<text transform="matrix(1 0 0 1 201.6779 95.8383)" class="st2 st3">•UIController</text>
			<text transform="matrix(1 0 0 1 382.1779 79.5415)" class="st2 st3">ui:</text>
			<text transform="matrix(1 0 0 1 324.4914 95.8383)" class="st2 st3">•BitacoraController</text>
			<text transform="matrix(1 0 0 1 316.9308 112.1352)" class="st2 st3">•EstacionesController</text>
			<text transform="matrix(1 0 0 1 335.2717 128.4321)" class="st2 st3">•FotosController</text>
			<text transform="matrix(1 0 0 1 334.7111 144.729)" class="st2 st3">•LoginController</text>
			<text transform="matrix(1 0 0 1 301.1125 161.0258)" class="st2 st3">•LotesMuestreosController</text>
			<text transform="matrix(1 0 0 1 335.9724 177.3227)" class="st2 st3">•MainController</text>
			<text transform="matrix(1 0 0 1 280.1091 193.6196)" class="st2 st3">•NuevaEstacionDialogController</text>
			<text transform="matrix(1 0 0 1 308.1105 209.9165)" class="st2 st3">•NuevaEstacionRequest</text>
			<text transform="matrix(1 0 0 1 323.2302 226.2133)" class="st2 st3">•ReportesController</text>
			<text transform="matrix(1 0 0 1 324.9118 242.5102)" class="st2 st3">•UsuariosController</text>
		</g>
	</g>
	<g id="cluster_L4">
		<g>
			<path class="st4" d="M78.8,286h524.7c14.8,0,26.8,12,26.8,26.8v770.6c0,14.8-12,26.8-26.8,26.8H78.8c-14.8,0-26.7-12-26.7-26.8
				V312.8C52,298,64,286,78.8,286z"/>
			<path class="st5" d="M78.8,286h524.7c14.8,0,26.8,12,26.8,26.8v770.6c0,14.8-12,26.8-26.8,26.8H78.8c-14.8,0-26.7-12-26.7-26.8
				V312.8C52,298,64,286,78.8,286z"/>
		</g>
		<rect x="239.5" y="309" class="st6" width="203.2" height="17.3"/>
		<text transform="matrix(1 0 0 1 239.5035 321.0103)" class="st2 st3">Adaptadores / Infraestructura</text>
		<rect x="242" y="305.3" class="st6" width="5" height="17.3"/>
		<text transform="matrix(1 0 0 1 242 317.3076)" class="st2 st3"> </text>
		<rect x="79.6" y="333.9" class="st6" width="151" height="17.3"/>
		<text transform="matrix(1 0 0 1 79.6471 345.9482)" class="st2 st3">arch.infra.persistence:</text>
		<rect x="81.9" y="350.2" class="st6" width="146.5" height="17.3"/>
		<text transform="matrix(1 0 0 1 81.8971 362.2451)" class="st2 st3">• JdbcLoteRepository</text>
		<rect x="279.5" y="334.4" class="st6" width="116.5" height="17.3"/>
		<text transform="matrix(1 0 0 1 279.5 346.4404)" class="st2 st3">arch.infra.config:</text>
		<rect x="244.5" y="350.7" class="st6" width="186.6" height="17.3"/>
		<text transform="matrix(1 0 0 1 244.453 362.7373)" class="st2 st3">• HikariDataSourceProvider</text>
		<rect x="512.4" y="334.4" class="st6" width="34.7" height="17.3"/>
		<text transform="matrix(1 0 0 1 512.4393 346.4404)" class="st2 st3">infra:</text>
		<rect x="489.9" y="350.7" class="st6" width="79.8" height="17.3"/>
		<text transform="matrix(1 0 0 1 489.8865 362.7373)" class="st2 st3">• Database</text>
		<rect x="457.3" y="367" class="st6" width="145" height="17.3"/>
		<text transform="matrix(1 0 0 1 457.2691 379.0342)" class="st2 st3">• DatabaseBootstrap</text>
		<rect x="307.9" y="399.2" class="st6" width="52.3" height="17.3"/>
		<text transform="matrix(1 0 0 1 307.8674 411.2444)" class="st2 st3">reports:</text>
		<rect x="290.6" y="415.5" class="st6" width="86.8" height="17.3"/>
		<text transform="matrix(1 0 0 1 290.6318 427.5412)" class="st2 st3">• ReportRow</text>
	</g>
	<g id="cluster_L3">
		<g>
			<path class="st7" d="M112.5,492h457.2c14.8,0,26.8,12,26.8,26.8v540.6c0,14.8-12,26.8-26.8,26.8H112.5c-14.8,0-26.8-12-26.8-26.8
				V518.8C85.8,504,97.8,492,112.5,492z"/>
			<path class="st8" d="M112.5,492h457.2c14.8,0,26.8,12,26.8,26.8v540.6c0,14.8-12,26.8-26.8,26.8H112.5c-14.8,0-26.8-12-26.8-26.8
				V518.8C85.8,504,97.8,492,112.5,492z"/>
		</g>
		<rect x="275.2" y="515" class="st6" width="131.9" height="17.3"/>
		<text transform="matrix(1 0 0 1 275.1948 527.0107)" class="st2 st3">Puertos (Interfaces)</text>
		<rect x="170.5" y="547.6" class="st6" width="125.7" height="17.3"/>
		<text transform="matrix(1 0 0 1 170.5 559.6045)" class="st2 st3">arch.infra.storage:</text>
		<rect x="194" y="563.9" class="st6" width="96.6" height="17.3"/>
		<text transform="matrix(1 0 0 1 194 575.9014)" class="st2 st3">• FotoStorage</text>
		<rect x="173.5" y="580.2" class="st6" width="132" height="17.3"/>
		<text transform="matrix(1 0 0 1 173.5 592.1982)" class="st2 st3">• LocalFotoStorage</text>
		<rect x="198.7" y="628.6" class="st6" width="63" height="17.3"/>
		<text transform="matrix(1 0 0 1 198.6527 640.5966)" class="st2 st3">domain:</text>
		<rect x="184.2" y="644.9" class="st6" width="87.1" height="17.3"/>
		<text transform="matrix(1 0 0 1 184.1527 656.8935)" class="st2 st3">• EstadoFoto</text>
		<rect x="210.7" y="661.2" class="st6" width="49" height="17.3"/>
		<text transform="matrix(1 0 0 1 210.6527 673.1904)" class="st2 st3">• Foto</text>
		<rect x="168.2" y="677.5" class="st6" width="113.7" height="17.3"/>
		<text transform="matrix(1 0 0 1 168.1527 689.4872)" class="st2 st3">• FotoRepository</text>
		<rect x="210.7" y="693.8" class="st6" width="49" height="17.3"/>
		<text transform="matrix(1 0 0 1 210.6527 705.7841)" class="st2 st3">• Lote</text>
		<rect x="184.2" y="710.1" class="st6" width="87.1" height="17.3"/>
		<text transform="matrix(1 0 0 1 184.1527 722.081)" class="st2 st3">• LoteEstado</text>
		<rect x="173.7" y="726.4" class="st6" width="108.2" height="17.3"/>
		<text transform="matrix(1 0 0 1 173.6527 738.3779)" class="st2 st3">• MuestreoRow</text>
		<rect x="207.2" y="742.6" class="st6" width="56" height="17.3"/>
		<text transform="matrix(1 0 0 1 207.1527 754.6747)" class="st2 st3">• Parte</text>
		<rect x="433.2" y="548.1" class="st6" width="43" height="17.3"/>
		<text transform="matrix(1 0 0 1 433.2262 560.0966)" class="st2 st3">repo:</text>
		<rect x="397.9" y="564.4" class="st6" width="113.7" height="17.3"/>
		<text transform="matrix(1 0 0 1 397.8789 576.3935)" class="st2 st3">• LoteRepository</text>
		<rect x="379" y="580.7" class="st6" width="151.5" height="17.3"/>
		<text transform="matrix(1 0 0 1 378.9538 592.6904)" class="st2 st3">• MuestreoRepository</text>
		<rect x="388.8" y="597" class="st6" width="132" height="17.3"/>
		<text transform="matrix(1 0 0 1 388.7511 608.9872)" class="st2 st3">• ReportRepository</text>
	</g>
	<g id="cluster_L2">
		<g>
			<path class="st9" d="M146.3,796H536c14.8,0,26.8,12,26.8,26.8v212.6c0,14.8-12,26.8-26.8,26.8H146.3c-14.8,0-26.8-12-26.8-26.8
				V822.8C119.5,808,131.5,796,146.3,796z"/>
			<path class="st10" d="M146.3,796H536c14.8,0,26.8,12,26.8,26.8v212.6c0,14.8-12,26.8-26.8,26.8H146.3c-14.8,0-26.8-12-26.8-26.8
				V822.8C119.5,808,131.5,796,146.3,796z"/>
		</g>
		<rect x="248.5" y="799" class="st6" width="185.3" height="17.3"/>
		<text transform="matrix(1 0 0 1 248.4892 819.0107)" class="st2 st3">Aplicación (Casos de Uso)</text>
		<rect x="338.6" y="815.3" class="st6" width="5" height="17.3"/>
		<text transform="matrix(1 0 0 1 338.6227 827.3076)" class="st2 st3"> </text>
		<rect x="279.9" y="831.6" class="st6" width="122.5" height="17.3"/>
		<text transform="matrix(1 0 0 1 279.8809 843.6045)" class="st2 st3">arch.application:</text>
		<rect x="268.4" y="847.9" class="st6" width="145.5" height="17.3"/>
		<text transform="matrix(1 0 0 1 268.3727 859.9014)" class="st2 st3">• EvaluarLoteService</text>
		<rect x="218.1" y="864.2" class="st6" width="246.1" height="17.3"/>
		<text transform="matrix(1 0 0 1 218.0892 876.1982)" class="st2 st3">• RegistrarEstacionYTanquesService</text>
		<rect x="244.2" y="880.5" class="st6" width="193.9" height="17.3"/>
		<text transform="matrix(1 0 0 1 244.167 892.4951)" class="st2 st3">• RegistrarMuestreoConFoto</text>
	</g>
	<g id="elem_L1">
		<path class="st11" d="M174.5,912h139c5,0,9,4,9,9v116.1c0,5-4,9-9,9h-139c-5,0-9-4-9-9V921C165.5,916,169.5,912,174.5,912z"/>
		<rect x="175.5" y="923" class="st6" width="130.6" height="16.6"/>
		<text transform="matrix(1 0 0 1 175.5 935.0078)" class="st12 st3">Dominio (Modelo)</text>
		<rect x="175.5" y="939.3" class="st6" width="4" height="16.6"/>
		<text transform="matrix(1 0 0 1 175.5 951.3047)" class="st12 st3"> </text>
		<rect x="175.5" y="955.6" class="st6" width="143.2" height="16.6"/>
		<text transform="matrix(1 0 0 1 175.5 967.6016)" class="st12 st3">arch.domain.model:</text>
		<rect x="183.5" y="971.9" class="st6" width="110.7" height="16.6"/>
		<text transform="matrix(1 0 0 1 183.5 983.8984)" class="st12 st3">• Clasificacion</text>
		<rect x="183.5" y="988.2" class="st6" width="100.8" height="16.6"/>
		<text transform="matrix(1 0 0 1 183.5 1000.1953)" class="st12 st3">• Evaluacion</text>
		<rect x="183.5" y="1004.5" class="st6" width="114" height="16.6"/>
		<text transform="matrix(1 0 0 1 183.5 1016.4922)" class="st12 st3">• HistorialEvento</text>
		<rect x="183.5" y="1020.8" class="st6" width="64" height="16.6"/>
		<text transform="matrix(1 0 0 1 183.5 1032.7891)" class="st12 st3">• Usuario</text>
	</g>
	<g id="elem_GMN7">
		<path class="st13" d="M277.5,1175.1v52.5c0,5,4,9,9,9l0,0h391c5,0,9-4,9-9l0,0v-51.5l-10-10h-390
			C281.5,1166.1,277.5,1170.1,277.5,1175.1"/>
		<path class="st14" d="M676.5,1166.1v5.5c0,2.5,2,4.5,4.5,4.5l0,0h5.5L676.5,1166.1"/>
		<rect x="283.5" y="1172" class="st6" width="33" height="15.4"/>
		<text transform="matrix(1 0 0 1 283.5 1183.1465)" class="st15 st16">Guía</text>
		<text transform="matrix(1 0 0 1 312.9 1183.1465)" class="st15 st16">:</text>
		<rect x="283.5" y="1187.1" class="st6" width="388" height="15.4"/>
		<text transform="matrix(1 0 0 1 283.5 1198.2793)" class="st15 st16">-</text>
		<text transform="matrix(1 0 0 1 287.8 1198.2793)" class="st15 st16 st17"> </text>
		<text transform="matrix(1 0 0 1 296.5 1198.2793)" class="st15 st16">Dependencias</text>
		<text transform="matrix(1 0 0 1 379.6 1198.2793)" class="st15 st16 st17"> </text>
		<text transform="matrix(1 0 0 1 388.3 1198.2793)" class="st15 st16">hacia</text>
		<text transform="matrix(1 0 0 1 419.4 1198.2793)" class="st15 st16 st17"> </text>
		<text transform="matrix(1 0 0 1 428 1198.2793)" class="st15 st16">adentro</text>
		<text transform="matrix(1 0 0 1 472.1 1198.2793)" class="st15 st16 st17"> </text>
		<text transform="matrix(1 0 0 1 480.8 1198.2793)" class="st15 st16">(UI</text>
		<text transform="matrix(1 0 0 1 498.1 1198.2793)" class="st15 st16 st17"> </text>
		<text transform="matrix(1 0 0 1 506.8 1198.2793)" class="st15 st16">-&gt;</text>
		<text transform="matrix(1 0 0 1 518.7 1198.2793)" class="st15 st16 st17"> </text>
		<text transform="matrix(1 0 0 1 527.4 1198.2793)" class="st15 st16">Aplicación</text>
		<text transform="matrix(1 0 0 1 586.6 1198.2793)" class="st15 st16 st17"> </text>
		<text transform="matrix(1 0 0 1 595.3 1198.2793)" class="st15 st16">-&gt;</text>
		<text transform="matrix(1 0 0 1 607.2 1198.2793)" class="st15 st16 st17"> </text>
		<text transform="matrix(1 0 0 1 615.9 1198.2793)" class="st15 st16">Dominio).</text>
		<rect x="283.5" y="1202.3" class="st6" width="367" height="15.4"/>
		<text transform="matrix(1 0 0 1 283.5 1213.4121)" class="st15 st16">-</text>
		<text transform="matrix(1 0 0 1 287.8 1213.4121)" class="st15 st16 st18"> </text>
		<text transform="matrix(1 0 0 1 297.4 1213.4121)" class="st15 st16">Puertos</text>
		<text transform="matrix(1 0 0 1 342.2 1213.4121)" class="st15 st16 st18"> </text>
		<text transform="matrix(1 0 0 1 351.9 1213.4121)" class="st15 st16">(interfaces)</text>
		<text transform="matrix(1 0 0 1 416.9 1213.4121)" class="st15 st16 st18"> </text>
		<text transform="matrix(1 0 0 1 426.5 1213.4121)" class="st15 st16">separan</text>
		<text transform="matrix(1 0 0 1 473.5 1213.4121)" class="st15 st16 st18"> </text>
		<text transform="matrix(1 0 0 1 483.1 1213.4121)" class="st15 st16">aplicación</text>
		<text transform="matrix(1 0 0 1 540.9 1213.4121)" class="st15 st16 st18"> </text>
		<text transform="matrix(1 0 0 1 550.5 1213.4121)" class="st15 st16">de</text>
		<text transform="matrix(1 0 0 1 565 1213.4121)" class="st15 st16 st18"> </text>
		<text transform="matrix(1 0 0 1 574.6 1213.4121)" class="st15 st16">adaptadores.</text>
		<rect x="283.5" y="1217.4" class="st6" width="291" height="15.4"/>
		<text transform="matrix(1 0 0 1 283.5 1228.5449)" class="st15 st16">-</text>
		<text transform="matrix(1 0 0 1 287.8 1228.5449)" class="st15 st16 st17"> </text>
		<text transform="matrix(1 0 0 1 297.3 1228.5449)" class="st15 st16">Dominio</text>
		<text transform="matrix(1 0 0 1 345 1228.5449)" class="st15 st16 st17"> </text>
		<text transform="matrix(1 0 0 1 354.5 1228.5449)" class="st15 st16">sin</text>
		<text transform="matrix(1 0 0 1 371.1 1228.5449)" class="st15 st16 st17"> </text>
		<text transform="matrix(1 0 0 1 380.6 1228.5449)" class="st15 st16">dependencias</text>
		<text transform="matrix(1 0 0 1 461.6 1228.5449)" class="st15 st16 st17"> </text>
		<text transform="matrix(1 0 0 1 471.1 1228.5449)" class="st15 st16">a</text>
		<text transform="matrix(1 0 0 1 478.3 1228.5449)" class="st15 st16 st17"> </text>
		<text transform="matrix(1 0 0 1 487.8 1228.5449)" class="st15 st16">infraestructura.</text>
	</g>
	<g id="link_L5_GMN7">
		<path id="L5-GMN7" class="st19" d="M482,1142.4c0,0.6,0,1.1,0,1.7c0,1.1,0,2.2,0,3.3c0,2.2,0,4.4,0,6.5c0,4.2,0,8.2,0,12"/>
	</g>
</g>
<g>
	<path class="st20" d="M153.5,378.3c1,0.4,1.9,0.8,2.9,1.2c1.4,0.6,2,1.7,1.7,3.3c-0.2,0.9-0.8,2-0.5,2.8c0.2,0.8,1.3,1.2,2,1.9
		c0.6,0.6,1.2,1.2,1.6,1.8c0.4,0.5,0.7,0.6,1.3,0.4c0.7-0.2,1.4-0.4,2.1-0.5c1.3-0.3,2.4,0.2,3,1.4c0.4,0.9,0.8,1.9,1.2,2.8
		c0.5,1.3,0.1,2.5-1.1,3.2c-0.7,0.5-1.4,0.9-2.1,1.3c-0.4,0.2-0.5,0.4-0.4,0.9c0.3,1.6,0.3,3.3,0,4.9c-0.1,0.5,0.1,0.7,0.5,0.9
		c0.7,0.4,1.4,0.8,2,1.2c1.2,0.8,1.6,2,1.1,3.3c-0.3,0.9-0.7,1.8-1.1,2.7c-0.6,1.3-1.8,1.8-3.1,1.5c-0.7-0.2-1.4-0.3-2.1-0.5
		c-0.5-0.1-0.8-0.1-1.1,0.3c-1,1.3-2.1,2.5-3.4,3.4c-0.4,0.3-0.4,0.5-0.3,1c0.2,0.8,0.4,1.7,0.6,2.5c0.2,1.3-0.3,2.3-1.5,2.9
		c-0.9,0.4-1.9,0.8-2.9,1.2c-1.2,0.4-2.3,0.1-3.1-0.9c-0.4-0.5-0.7-1-1-1.6c-0.4-0.9-1-1.3-2-1c-1.4,0.3-2.8,0.1-4.2,0
		c-0.4-0.1-0.7,0-0.9,0.4c-0.4,0.7-0.8,1.4-1.2,2c-0.8,1.2-2,1.6-3.3,1.1c-0.9-0.3-1.7-0.7-2.5-1c-1.4-0.6-2-1.8-1.7-3.3
		c0.2-0.9,0.7-1.8,0.6-2.6c-0.2-0.8-1.3-1.2-1.9-1.8c-0.6-0.7-1.3-1.4-1.9-2.1c-0.3-0.4-0.5-0.5-1-0.3c-0.7,0.2-1.5,0.4-2.2,0.6
		c-1.4,0.3-2.6-0.2-3.2-1.6c-0.4-0.9-0.8-1.8-1.1-2.7c-0.5-1.3-0.1-2.5,1.1-3.3c0.7-0.4,1.3-0.9,2-1.2c0.5-0.2,0.6-0.5,0.5-1
		c-0.2-1.6-0.2-3.2,0-4.8c0.1-0.4-0.1-0.7-0.5-0.9c-0.7-0.4-1.3-0.8-2-1.2c-1.3-0.8-1.7-2-1.1-3.5c0.3-0.9,0.7-1.7,1-2.5
		c0.6-1.3,1.7-1.9,3.2-1.6c0.8,0.2,1.5,0.4,2.3,0.6c0.4,0.1,0.6,0,0.9-0.3c1-1.4,2.2-2.5,3.6-3.6c0.3-0.2,0.4-0.4,0.3-0.8
		c-0.2-0.7-0.4-1.4-0.5-2.1c-0.4-1.7,0.2-2.8,1.7-3.5c0.9-0.4,1.8-0.6,2.6-1.2c0.5,0,0.9,0,1.4,0c1,0.4,1.7,1.1,2.2,2
		c0.2,0.4,0.5,0.8,0.8,1.3c0.2,0.4,0.4,0.6,1,0.5c1.6-0.2,3.2-0.2,4.8,0c0.5,0.1,0.7-0.1,1-0.5c0.7-1.2,1.3-2.6,2.7-3.3
		C152.5,378.3,153,378.3,153.5,378.3z M130.4,410c1-0.1,1.4,0.3,1.7,0.8c0.9,1.4,2.1,2.7,3.4,3.7c2.1,1.6,2.1,1.1,1.4,4
		c-0.6,2.3-0.6,2.3,1.7,3.1c0.4,0.1,0.6,0.1,0.8-0.3c0.5-0.8,1-1.7,1.5-2.5c0.5-0.9,1.1-1.2,2-1c1.7,0.3,3.3,0.4,5,0.2
		c2.7-0.4,2.4-0.4,3.8,2c1.1,1.9,1.1,1.8,3.1,1c0.6-0.2,0.6-0.5,0.5-1c-0.3-1-0.5-1.9-0.7-2.9c-0.2-0.7,0-1.3,0.6-1.7
		c1.9-1.2,3.4-2.8,4.7-4.7c0.4-0.6,1-0.8,1.7-0.6c1,0.3,2.1,0.5,3.1,0.8c0.6,0.2,0.8-0.1,0.8-0.5c0.1-0.8,1.3-1.5,0.3-2.3
		c-0.8-0.6-1.7-1.1-2.6-1.6c-0.7-0.4-1-1-0.8-1.9c0.4-1.6,0.4-3.3,0.2-4.9c-0.3-2.6-0.8-2.3,1.9-3.9c2-1.2,1.9-1.2,1-3.2
		c-0.2-0.4-0.4-0.6-0.9-0.4c-0.9,0.3-1.8,0.4-2.7,0.7c-1,0.3-1.6,0-2.2-0.8c-0.9-1.4-2-2.8-3.5-3.6c-1.7-1-1.9-2.2-1.3-4
		c0.7-2.2,0.6-2.3-1.6-3.1c-0.4-0.1-0.6-0.1-0.8,0.3c-0.5,0.9-1.1,1.8-1.6,2.7c-0.4,0.7-0.9,0.9-1.7,0.8c-1.7-0.4-3.5-0.5-5.2-0.2
		c-2.9,0.5-2.6,0.1-3.8-1.9c-1.2-1.9-1.2-2-3.3-1c0,0-0.1,0-0.1,0c-0.4,0.1-0.5,0.4-0.4,0.7c0.2,0.9,0.4,1.7,0.7,2.6
		c0.4,1.5,0.3,1.6-0.9,2.5c-1.3,0.9-2.4,2-3.4,3.2c-1.7,2.2-1.3,2.1-4.1,1.4c-2.2-0.6-2.2-0.5-3,1.6c-0.2,0.4-0.1,0.6,0.3,0.8
		c0.8,0.5,1.6,1,2.4,1.4c1.1,0.6,1.2,1,1,2.2c-0.3,1.6-0.4,3.2-0.2,4.8c0.3,2.7,0.8,2.3-1.9,3.9c-1.9,1.1-1.9,1.1-1,3.2
		c0.2,0.4,0.3,0.6,0.8,0.4C128.4,410.5,129.6,410.2,130.4,410z"/>
	<path class="st21" d="M151.6,426.9c-0.1,1-0.5,1.9-0.8,2.9c-0.1,0.5-0.1,0.8,0.3,1.1c1.2,1,2.3,2.2,3.2,3.5
		c0.3,0.5,0.6,0.5,1.1,0.4c0.7-0.2,1.3-0.3,2-0.4c1.6-0.3,2.8,0.4,3.4,1.9c0.3,0.8,0.6,1.6,0.8,2.3c0.5,1.5,0.1,2.7-1.3,3.5
		c-0.8,0.4-1.9,0.7-2.3,1.4c-0.4,0.7-0.1,1.8-0.1,2.7c0,0.9-0.1,1.9-0.3,2.8c-0.1,0.4,0,0.6,0.3,0.9c0.7,0.4,1.3,0.9,2,1.3
		c1.2,0.9,1.6,2.1,0.9,3.5c-0.4,0.8-0.7,1.6-1.1,2.4c-0.7,1.3-1.9,1.9-3.3,1.5c-0.9-0.2-1.9-0.9-2.8-0.7c-0.8,0.2-1.3,1.3-2,1.9
		c-0.6,0.6-1.3,1.1-2,1.6c-0.5,0.3-0.5,0.6-0.4,1.1c0.2,0.7,0.3,1.4,0.4,2.2c0.2,1.4-0.4,2.5-1.7,3.1c-0.9,0.4-1.9,0.7-2.8,1
		c-1.3,0.4-2.5-0.1-3.2-1.2c-0.4-0.7-0.8-1.4-1.2-2.2c-0.2-0.4-0.4-0.5-0.8-0.5c-1.6,0.2-3.2,0.1-4.8-0.2c-0.6-0.1-0.9,0.1-1.1,0.5
		c-0.4,0.6-0.8,1.2-1.2,1.8c-0.9,1.2-2,1.5-3.4,0.9c-0.9-0.4-1.8-0.8-2.6-1.3c-1.2-0.6-1.7-1.8-1.4-3.1c0.2-0.8,0.4-1.5,0.7-2.3
		c0.1-0.4,0.1-0.7-0.3-1.1c-1.3-1-2.3-2.2-3.2-3.5c-0.3-0.4-0.5-0.6-1.1-0.4c-0.8,0.2-1.6,0.4-2.4,0.4c-1.4,0.1-2.4-0.5-2.9-1.8
		c-0.3-0.9-0.7-1.8-0.9-2.7c-0.4-1.3,0-2.5,1.2-3.2c0.7-0.4,1.4-0.8,2.1-1.1c0.4-0.2,0.6-0.4,0.5-0.9c-0.2-1.6-0.1-3.2,0.2-4.8
		c0.1-0.5,0-0.8-0.4-1.1c-0.7-0.4-1.3-0.8-1.9-1.3c-1.2-0.9-1.5-2.1-0.9-3.4c0.4-0.8,0.7-1.6,1.1-2.4c0.7-1.4,1.9-1.9,3.4-1.5
		c0.9,0.2,1.8,0.8,2.6,0.7c0.8-0.1,1.2-1.3,1.9-1.8c0.7-0.5,1.3-1.2,2.1-1.7c0.5-0.3,0.7-0.6,0.5-1.2c-0.2-0.7-0.3-1.5-0.4-2.3
		c-0.2-1.4,0.4-2.4,1.7-3c0.9-0.4,1.9-0.7,2.8-1c1.3-0.4,2.4,0.1,3.1,1.2c0.5,0.9,0.8,2.1,1.5,2.5c0.7,0.4,1.9,0.1,2.9,0.1
		c0.5,0,1,0,1.4,0.1c1.4,0.5,2.2,0,2.8-1.3c0.2-0.4,0.4-0.7,0.7-1c0.8-1,2-1.4,3.2-0.9c1,0.4,1.9,0.9,2.9,1.4
		C151.1,425,151.5,425.9,151.6,426.9z M154.4,437.8c-0.9,0.1-1.3-0.3-1.7-0.8c-0.9-1.5-1.9-3-3.4-3.9c-1.7-1.1-1.8-2.3-1.1-4
		c0.8-2.2,0.7-2.2-1.4-3.1c-0.4-0.2-0.6-0.1-0.8,0.2c-0.5,0.8-1.1,1.7-1.7,2.5c-0.5,0.7-1.1,1-1.9,0.8c-1.6-0.4-3.3-0.6-5-0.4
		c-2.6,0.2-2.3,0.7-3.8-2.1c-1-2-1-2-3.1-1.2c-0.5,0.2-0.6,0.4-0.5,0.9c0.2,0.9,0.3,1.9,0.6,2.8c0.3,1-0.1,1.6-1,2.1
		c-1.4,0.8-2.8,1.8-3.7,3.2c-1.1,1.6-2.3,1.8-4,1.2c-2.2-0.8-2.2-0.7-3.2,1.4c-0.2,0.4-0.2,0.6,0.2,0.8c0.8,0.5,1.5,1,2.3,1.5
		c1.2,0.8,1.2,1,0.9,2.4c-0.4,1.6-0.6,3.2-0.4,4.7c0.3,2.9,0.3,2.5-2.1,3.8c-1.9,1.1-1.9,1-1.2,3.1c0.2,0.6,0.4,0.6,1,0.5
		c1-0.2,2-0.4,2.9-0.6c0.7-0.1,1.3,0.1,1.7,0.7c1.2,1.9,2.7,3.6,4.5,5c0.6,0.4,0.7,1,0.5,1.6c-0.3,1-0.8,2.1-0.9,3.1
		c-0.1,1.2,1.2,0.9,1.8,1.4c0.3,0.3,0.6,0.3,0.9-0.1c0.6-0.9,1.2-1.8,1.8-2.6c0.4-0.6,1-0.9,1.7-0.7c1.7,0.4,3.4,0.6,5.1,0.5
		c2.7-0.2,2.4-0.6,3.8,2c1.1,2,1.1,2,3.2,1.2c0.4-0.2,0.6-0.3,0.5-0.8c-0.2-0.9-0.4-1.9-0.6-2.9c-0.2-0.9,0.1-1.6,0.9-2.1
		c1.4-0.8,2.7-1.9,3.8-3.2c1.7-2,1.2-2.1,4.1-1.2c2.1,0.7,2.1,0.6,3.1-1.4c0.2-0.5,0.1-0.7-0.3-1c-0.8-0.5-1.7-1.1-2.5-1.7
		c-0.7-0.4-0.9-1-0.7-1.8c0.5-1.7,0.7-3.5,0.4-5.3c-0.4-2,0.5-2.8,2.1-3.6c2.1-1,2.1-1.1,1.2-3.3c-0.2-0.5-0.4-0.5-0.8-0.4
		C156.4,437.4,155.3,437.7,154.4,437.8z"/>
	<path class="st22" d="M166.2,414.6c1,0,1.7,0.7,2.4,1.2c0.6,0.5,1,0.6,1.7,0.1c0.9-0.6,1.9-1,2.9-1.2c0.5-0.1,0.7-0.3,0.7-0.8
		c0-0.6,0.1-1.1,0.2-1.7c0.2-1.2,1.1-2,2.4-2.1c0.8,0,1.5,0,2.3,0c1.4,0,2.5,0.8,2.5,2.2c0,1.7,0.7,2.6,2.4,2.8
		c0.4,0.1,0.9,0.3,1.2,0.5c0.9,0.8,1.6,0.4,2.4-0.2c1.8-1.5,2.8-1.3,4.4,0.3c2.3,2.4,2.4,2.8,0.4,5.5c-0.3,0.5-0.4,0.8-0.1,1.3
		c0.6,1,1,2.1,1.3,3.2c0.1,0.4,0.3,0.6,0.8,0.7c3.1,0.3,3.9,0.8,3.8,4.3c-0.1,2.2-0.7,3-2.9,3.3c-1,0.1-1.7,0.3-1.9,1.5
		c-0.2,0.9-0.6,1.8-1.1,2.6c-0.3,0.5-0.2,0.8,0.1,1.2c0.4,0.4,0.7,0.8,0.9,1.3c0.7,1.1,0.7,2.2-0.2,3.2c-0.6,0.6-1.1,1.2-1.8,1.8
		c-1,0.9-2.2,1-3.1,0.1c-1.3-1.2-2.4-1.4-3.8-0.3c-0.3,0.2-0.6,0.3-1,0.4c-1.3,0.1-1.6,1-1.8,2.1c-0.2,2.1-1,2.7-3.1,2.7
		c-0.5,0-1,0-1.5,0c-1.5,0-2.5-0.8-2.6-2.3c-0.1-1.5-0.6-2.5-2.2-2.7c-0.4-0.1-0.8-0.2-1.1-0.5c-1.1-0.9-1.9-0.5-2.9,0.3
		c-1.5,1.3-2.6,1.1-4-0.3c-0.3-0.3-0.5-0.5-0.8-0.8c-1.5-1.5-1.6-2.5-0.3-4.2c0.7-0.9,1-1.6,0.3-2.7c-0.5-0.7-0.8-1.7-1-2.5
		c-0.1-0.4-0.3-0.6-0.7-0.6c-0.6-0.1-1.2-0.2-1.7-0.3c-1.3-0.2-2-1.1-2.1-2.4c0-0.8,0-1.5,0-2.3c0.1-1.4,0.8-2.5,2.2-2.5
		c1.7-0.1,2.6-0.8,2.8-2.4c0.1-0.3,0.2-0.7,0.4-1c0.9-1.1,0.5-1.9-0.3-2.9c-1.2-1.5-1.1-2.6,0.3-3.9c0.4-0.4,0.9-0.9,1.3-1.3
		C165,414.8,165.4,414.6,166.2,414.6z M189.4,443.4c0.1,0.1,0.1,0.1,0.2,0.2c0.3-0.4,0.5-0.8,0.8-1.1c0.4-0.4,0.4-0.6,0.1-1
		c-0.5-0.6-0.9-1.2-1.3-1.8c-0.4-0.6-0.5-1.2-0.1-1.8c1-1.5,1.7-3.2,2-4.9c0.1-0.7,0.6-1.1,1.3-1.2c0.8-0.1,1.6-0.3,2.4-0.3
		c0.4,0,0.5-0.2,0.5-0.6c0-0.3,0-0.7,0-1c0.1-0.5-0.1-0.6-0.6-0.6c-0.7-0.1-1.3-0.2-2-0.3c-0.9-0.1-1.4-0.5-1.6-1.4
		c-0.3-1.7-1-3.3-2-4.8c-0.4-0.6-0.4-1.3,0.1-1.9c0.4-0.6,0.8-1.2,1.3-1.7c0.4-0.4,0.3-0.7-0.1-1.1c-0.2-0.1-0.4-0.3-0.5-0.5
		c-0.3-0.3-0.5-0.4-0.9-0.1c-0.6,0.5-1.2,0.9-1.8,1.3c-0.6,0.5-1.3,0.5-1.9,0.1c-1.4-1-3-1.6-4.7-2c-0.9-0.2-1.3-0.7-1.4-1.6
		c-0.1-0.7-0.2-1.4-0.3-2.1c0-0.2,0-0.5-0.3-0.5c-1.1-0.3-1.8,0.1-1.9,1.2c-0.1,0.6-0.2,1.1-0.3,1.7c-0.1,0.8-0.5,1.2-1.3,1.4
		c-1.7,0.3-3.3,1-4.8,2c-0.7,0.5-1.3,0.4-1.9-0.1c-0.6-0.5-1.2-0.9-1.8-1.4c-0.2-0.1-0.3-0.3-0.6-0.1c-1.1,0.8-1.2,1.2-0.4,2.3
		c0.3,0.4,0.5,0.7,0.8,1.1c0.6,0.7,0.6,1.4,0.1,2.2c-0.8,1.1-1.5,2.4-1.7,3.8c-0.2,1.7-1.1,2.3-2.7,2.4c-0.1,0-0.2,0-0.4,0
		c-1.7,0.3-1.3,0-1.4,1.6c0,0.5,0.1,0.7,0.6,0.7c0.8,0.1,1.5,0.2,2.3,0.3c0.7,0.1,1.1,0.5,1.2,1.2c0.4,1.8,1,3.4,2.1,4.9
		c0.4,0.6,0.4,1.2-0.1,1.8c-0.5,0.6-0.9,1.2-1.4,1.9c-0.1,0.2-0.4,0.4-0.1,0.7c0.8,1.1,1.2,1.2,2.3,0.4c0.4-0.3,0.8-0.6,1.2-0.9
		c0.6-0.5,1.2-0.5,1.9-0.1c1.5,1,3.1,1.7,4.9,2c0.7,0.1,1.1,0.6,1.2,1.3c0.1,0.8,0.2,1.5,0.3,2.3c0.1,0.5,0.3,0.7,0.8,0.6
		c0.5-0.1,1.3,0.5,1.4-0.5c0.1-0.8,0.2-1.6,0.4-2.4c0.1-0.7,0.5-1.2,1.3-1.3c1.7-0.3,3.3-1,4.8-2c0.7-0.5,1.4-0.4,2,0.1
		c0.6,0.4,1.1,0.8,1.7,1.3C189.1,443.2,189.3,443.3,189.4,443.4z"/>
	<path class="st23" d="M130.4,410c-0.9,0.2-2,0.4-3.1,0.8c-0.5,0.1-0.7,0-0.8-0.4c-0.9-2.1-0.9-2.1,1-3.2c2.7-1.6,2.2-1.3,1.9-3.9
		c-0.2-1.6-0.1-3.2,0.2-4.8c0.2-1.2,0.1-1.6-1-2.2c-0.8-0.5-1.6-1-2.4-1.4c-0.4-0.2-0.5-0.4-0.3-0.8c0.8-2.2,0.8-2.2,3-1.6
		c2.8,0.7,2.4,0.8,4.1-1.4c0.9-1.3,2.1-2.3,3.4-3.2c1.2-0.9,1.3-1,0.9-2.5c-0.2-0.9-0.4-1.7-0.7-2.6c-0.1-0.4-0.1-0.6,0.4-0.7
		c0,0,0.1,0,0.1,0c2.1-0.9,2.1-0.9,3.3,1c1.2,1.9,0.9,2.4,3.8,1.9c1.7-0.3,3.5-0.2,5.2,0.2c0.8,0.2,1.3-0.1,1.7-0.8
		c0.5-0.9,1.1-1.8,1.6-2.7c0.2-0.3,0.4-0.4,0.8-0.3c2.2,0.8,2.4,0.8,1.6,3.1c-0.6,1.8-0.4,3,1.3,4c1.5,0.8,2.5,2.2,3.5,3.6
		c0.5,0.8,1.2,1.1,2.2,0.8c0.9-0.3,1.8-0.4,2.7-0.7c0.5-0.1,0.7,0,0.9,0.4c0.9,2.1,0.9,2.1-1,3.2c-2.7,1.6-2.2,1.3-1.9,3.9
		c0.2,1.6,0.2,3.3-0.2,4.9c-0.2,0.8,0.1,1.4,0.8,1.9c0.9,0.5,1.8,1,2.6,1.6c1,0.8-0.3,1.5-0.3,2.3c0,0.4-0.2,0.7-0.8,0.5
		c-1-0.3-2.1-0.5-3.1-0.8c-0.7-0.2-1.3,0-1.7,0.6c-1.2,1.9-2.8,3.4-4.7,4.7c-0.6,0.4-0.8,1-0.6,1.7c0.3,1,0.5,1.9,0.7,2.9
		c0.1,0.5,0.1,0.8-0.5,1c-2,0.9-2,0.9-3.1-1c-1.4-2.4-1.1-2.4-3.8-2c-1.7,0.3-3.4,0.2-5-0.2c-0.9-0.2-1.6,0.1-2,1
		c-0.5,0.9-1,1.7-1.5,2.5c-0.2,0.3-0.4,0.4-0.8,0.3c-2.2-0.8-2.2-0.8-1.7-3.1c0.7-2.9,0.7-2.4-1.4-4c-1.4-1-2.5-2.3-3.4-3.7
		C131.8,410.3,131.4,409.9,130.4,410z M137.9,407.7L137.9,407.7c-0.1,0.3,0.1,0.6,0.2,0.8c0.6,1.4,1.7,2.4,2.9,3.3
		c3.4,2.3,7.8,2.1,10.8-0.6c1.1-1,2.1-2.1,2.3-3.7l0,0c0.2,0,0.2-0.2,0.2-0.3c1.4-2.3,2.1-4.7,1.6-7.4c-0.7-4-3.6-7.3-7.6-8.3
		c-3.8-1-8.1,0.6-10.5,3.7c-0.7,0.9-0.7,1.4,0.2,2.3c-0.4,0.8-0.7,1.6-0.8,2.6c-1.2,0.1-1.6,0.6-1.5,1.8c0.1,2,0.8,3.8,1.9,5.5
		C137.7,407.5,137.7,407.7,137.9,407.7z"/>
	<path class="st24" d="M154.4,437.8c0.9-0.2,2-0.4,3.2-0.6c0.4-0.1,0.6,0,0.8,0.4c0.9,2.2,0.9,2.3-1.2,3.3c-1.6,0.7-2.5,1.6-2.1,3.6
		c0.3,1.7,0.1,3.5-0.4,5.3c-0.2,0.8,0,1.4,0.7,1.8c0.8,0.5,1.7,1.1,2.5,1.7c0.4,0.3,0.5,0.5,0.3,1c-0.9,2-0.9,2.1-3.1,1.4
		c-3-0.9-2.5-0.8-4.1,1.2c-1.1,1.3-2.3,2.3-3.8,3.2c-0.9,0.5-1.1,1.1-0.9,2.1c0.2,1,0.3,1.9,0.6,2.9c0.1,0.5-0.1,0.7-0.5,0.8
		c-2.1,0.8-2.1,0.8-3.2-1.2c-1.4-2.6-1.1-2.3-3.8-2c-1.7,0.1-3.4-0.1-5.1-0.5c-0.8-0.2-1.3,0-1.7,0.7c-0.6,0.9-1.2,1.7-1.8,2.6
		c-0.3,0.5-0.6,0.4-0.9,0.1c-0.6-0.5-2-0.2-1.8-1.4c0.1-1.1,0.6-2.1,0.9-3.1c0.2-0.7,0-1.2-0.5-1.6c-1.8-1.4-3.3-3-4.5-5
		c-0.4-0.6-0.9-0.9-1.7-0.7c-1,0.2-2,0.4-2.9,0.6c-0.5,0.1-0.8,0.1-1-0.5c-0.7-2.1-0.8-2.1,1.2-3.1c2.3-1.3,2.4-0.9,2.1-3.8
		c-0.2-1.6,0-3.2,0.4-4.7c0.3-1.3,0.2-1.6-0.9-2.4c-0.8-0.5-1.5-1.1-2.3-1.5c-0.4-0.2-0.4-0.4-0.2-0.8c1-2.1,1-2.3,3.2-1.4
		c1.8,0.7,2.9,0.5,4-1.2c0.9-1.4,2.3-2.4,3.7-3.2c0.8-0.5,1.2-1.1,1-2.1c-0.3-0.9-0.4-1.9-0.6-2.8c-0.1-0.5,0-0.7,0.5-0.9
		c2.1-0.8,2.1-0.8,3.1,1.2c1.5,2.8,1.2,2.3,3.8,2.1c1.7-0.1,3.4,0,5,0.4c0.9,0.2,1.5,0,1.9-0.8c0.5-0.8,1.1-1.6,1.7-2.5
		c0.2-0.4,0.4-0.4,0.8-0.2c2.1,0.9,2.3,1,1.4,3.1c-0.7,1.7-0.5,2.9,1.1,4c1.5,1,2.5,2.4,3.4,3.9C153,437.6,153.4,437.9,154.4,437.8z
		 M129.6,449c0,1.4,0.4,2.8,1.1,4c1.7,3,4.4,4.5,7.8,4.6c2.3,0.1,4.5-0.8,6.1-2.5c0.9-0.9,1.8-1.9,2-3.3c1.6-2.5,2.3-5.1,1.8-8
		c-1-5.3-6.4-9.1-11.6-8.1c-5.8,1.1-9.5,6.4-8.4,11.9C128.5,448.3,128.8,448.8,129.6,449z"/>
	<path class="st25" d="M189.4,443.4c-0.1-0.1-0.3-0.2-0.4-0.3c-0.6-0.4-1.2-0.8-1.7-1.3c-0.7-0.5-1.3-0.6-2-0.1
		c-1.5,1-3.1,1.6-4.8,2c-0.7,0.1-1.1,0.6-1.3,1.3c-0.1,0.8-0.2,1.6-0.4,2.4c-0.2,1-0.9,0.4-1.4,0.5c-0.4,0.1-0.7-0.1-0.8-0.6
		c-0.1-0.8-0.2-1.5-0.3-2.3c-0.1-0.7-0.5-1.2-1.2-1.3c-1.8-0.3-3.4-1-4.9-2c-0.7-0.4-1.3-0.4-1.9,0.1c-0.4,0.3-0.8,0.6-1.2,0.9
		c-1.1,0.8-1.5,0.7-2.3-0.4c-0.2-0.3,0-0.5,0.1-0.7c0.4-0.6,0.9-1.2,1.4-1.9c0.4-0.6,0.5-1.2,0.1-1.8c-1-1.5-1.7-3.2-2.1-4.9
		c-0.1-0.7-0.5-1.1-1.2-1.2c-0.8-0.1-1.5-0.3-2.3-0.3c-0.5,0-0.7-0.3-0.6-0.7c0.1-1.6-0.4-1.3,1.4-1.6c0.1,0,0.2,0,0.4,0
		c1.6,0,2.5-0.7,2.7-2.4c0.2-1.4,0.9-2.6,1.7-3.8c0.5-0.8,0.5-1.5-0.1-2.2c-0.3-0.3-0.5-0.7-0.8-1.1c-0.8-1.1-0.7-1.5,0.4-2.3
		c0.3-0.2,0.4-0.1,0.6,0.1c0.6,0.5,1.2,0.9,1.8,1.4c0.6,0.5,1.3,0.5,1.9,0.1c1.5-1,3.1-1.6,4.8-2c0.8-0.1,1.2-0.6,1.3-1.4
		c0.1-0.6,0.2-1.1,0.3-1.7c0.2-1.1,0.8-1.5,1.9-1.2c0.3,0.1,0.3,0.3,0.3,0.5c0.1,0.7,0.2,1.4,0.3,2.1c0.1,0.9,0.5,1.4,1.4,1.6
		c1.7,0.3,3.3,1,4.7,2c0.7,0.5,1.3,0.4,1.9-0.1c0.6-0.5,1.2-0.9,1.8-1.3c0.3-0.3,0.6-0.3,0.9,0.1c0.1,0.2,0.3,0.4,0.5,0.5
		c0.4,0.3,0.5,0.6,0.1,1.1c-0.5,0.5-0.8,1.1-1.3,1.7c-0.5,0.6-0.5,1.2-0.1,1.9c1,1.5,1.7,3.1,2,4.8c0.2,0.9,0.7,1.3,1.6,1.4
		c0.7,0.1,1.3,0.2,2,0.3c0.4,0,0.6,0.2,0.6,0.6c0,0.3,0,0.6,0,1c0,0.4-0.1,0.5-0.5,0.6c-0.8,0.1-1.6,0.2-2.4,0.3
		c-0.7,0.1-1.1,0.5-1.3,1.2c-0.4,1.8-1,3.4-2,4.9c-0.4,0.6-0.4,1.2,0.1,1.8c0.4,0.6,0.9,1.2,1.3,1.8c0.3,0.4,0.4,0.7-0.1,1
		c-0.3,0.3-0.5,0.7-0.8,1.1C189.6,443.5,189.5,443.4,189.4,443.4z M170.8,435.5c0.4,2.7,3.7,5.3,6.7,5.3c2.7,0,4.7-1.1,6.2-3.3
		c1.1-1.6,1.5-3.4,1-5.3c0-0.2,0-0.3,0-0.5c1.2-0.1,1.6-0.5,1.5-1.7c-0.1-3.6-2.7-7-6.2-7.9c-3.7-1-7.7,0.4-9.7,3.7
		C168.5,429.1,168.8,432.3,170.8,435.5z"/>
	<path class="st26" d="M137.3,400c0.9,0.2,1.1,0.8,1.2,1.6c0.2,3.7,3,6.7,6.4,7.1c3.8,0.4,7.2-1.7,8.2-5.3c1-3.4-0.5-7.1-3.7-8.8
		c-3.1-1.6-7-0.8-9.3,1.9c-0.6,0.7-1.1,1.2-2.1,0.8c-0.9-0.8-0.9-1.3-0.2-2.3c2.4-3.2,6.6-4.7,10.5-3.7c4,1,7,4.3,7.6,8.3
		c0.4,2.7-0.2,5.1-1.6,7.4c-0.1,0.1-0.2,0.2-0.2,0.3c0,0,0,0,0,0c-0.2,0.3-0.5,0.5-0.7,0.8c-2.7,2.8-6,3.8-9.8,3
		c-2.3-0.5-4.1-1.8-5.7-3.5c0,0,0,0,0,0c-0.1-0.1-0.1-0.2-0.2-0.3c-1.1-1.7-1.8-3.5-1.9-5.5C135.7,400.6,136.1,400.2,137.3,400z"/>
	<path class="st27" d="M137.9,407.7c1.6,1.7,3.4,3.1,5.7,3.5c3.8,0.8,7.1-0.2,9.8-3c0.2-0.3,0.5-0.5,0.7-0.8
		c-0.2,1.6-1.2,2.7-2.3,3.7c-3.1,2.7-7.5,2.9-10.8,0.6c-1.2-0.8-2.2-1.9-2.9-3.3C138,408.3,137.8,408,137.9,407.7z"/>
	<path class="st27" d="M154.1,407.5c0.1-0.1,0.2-0.2,0.2-0.3C154.4,407.3,154.3,407.5,154.1,407.5z"/>
	<path class="st27" d="M137.7,407.4c0.1,0.1,0.1,0.2,0.2,0.3C137.7,407.7,137.7,407.5,137.7,407.4z"/>
	<path class="st28" d="M129.6,449c-0.8-0.2-1.1-0.8-1.2-1.5c-1.1-5.5,2.6-10.8,8.4-11.9c5.2-1,10.6,2.8,11.6,8.1
		c0.5,2.9-0.2,5.6-1.8,8c-0.2,0.2-0.4,0.5-0.7,0.7c-3.5,3.8-9.4,4.5-13.5,1.4c-1-0.7-1.1-1.2-0.5-2.3c0.8-0.5,1.5-0.3,2.2,0.2
		c2.6,1.8,6.1,1.8,8.7-0.1c2.5-1.8,3.7-5.1,2.8-8.1c-1.1-3.8-4.9-6.1-8.6-5.3c-4.1,0.9-6.6,4.4-6,8.5c0.1,0.9,0.2,1.7-0.7,2.2
		C130,449,129.8,449,129.6,449z"/>
	<path class="st29" d="M129.6,449c0.2,0,0.5,0,0.7-0.1c0.4,1,1,1.8,1.7,2.6c-0.6,1.1-0.5,1.6,0.5,2.3c4.1,3,10,2.4,13.5-1.4
		c0.2-0.2,0.4-0.5,0.7-0.7c-0.1,1.4-1.1,2.4-2,3.3c-1.7,1.7-3.8,2.6-6.1,2.5c-3.3-0.1-6.1-1.5-7.8-4.6
		C130,451.8,129.6,450.5,129.6,449z"/>
	<path class="st30" d="M184.9,431.7c-0.8-0.2-1.1-0.8-1.1-1.6c-0.2-3.1-2.6-5.6-5.7-5.7c-3-0.1-5.7,2.1-6.2,5
		c-0.5,3.1,1.4,6,4.5,6.8c2,0.5,3.8,0,5.3-1.3c0.6-0.6,1.2-0.8,2-0.4c0.7,0.9,0.7,1.5,0,2.2c-1.4,1.3-3,2.1-4.9,2.3
		c-3.3,0.4-6-0.9-8.1-3.4c-2-3.2-2.3-6.4-0.3-9.7c2-3.3,5.9-4.7,9.7-3.7c3.5,1,6.2,4.3,6.2,7.9C186.4,431.2,186.1,431.6,184.9,431.7
		z"/>
	<path class="st31" d="M170.8,435.5c2.1,2.5,4.8,3.8,8.1,3.4c1.9-0.2,3.5-1,4.9-2.3c0.7-0.7,0.7-1.3,0-2.2c0.5-0.7,0.8-1.5,1.1-2.2
		c0.4,1.9,0.1,3.7-1,5.3c-1.5,2.2-3.6,3.3-6.2,3.3C174.5,440.8,171.2,438.2,170.8,435.5z"/>
</g>
<g>
	<path class="st32" d="M419.7,1038.3c-0.5-0.3-1.1-0.6-1.5-0.9c-1.2-0.9-1.9-2.1-1.9-3.5c0-6-0.3-12,0.1-18.1
		c0.8-10.9,9.5-20.6,20.3-22.8c1.4-0.3,2.7-0.3,4.1,0.4c0-1.3,0-2.4,0-3.6c0-0.6-0.4-0.5-0.8-0.5c-3.2,0-6.4,0-9.5,0
		c-7.6,0-13.2-4.9-14.1-12.5c-0.1-1.2-0.6-1.3-1.6-1.3c-4.6,0-8.4-2.6-10-6.8c-0.5-1.3-0.4-1.8,0.9-2.6c1,0,1.5,0.4,1.9,1.3
		c1.4,3.4,4.4,5.2,8,5c0.5,0,0.7-0.1,0.7-0.6c0-4.7,0-9.3,0-14c0-0.5-0.1-0.6-0.6-0.7c-3.2-0.1-5.8,1-7.5,3.8
		c-0.5,0.9-1.2,1.3-2.2,1.1c-1.1-0.9-1.1-1.4-0.4-2.6c1-1.7,2.3-3,4-3.9c0.5-0.3,0.6-0.6,0.6-1.1c0-2.4,0-4.8,0-7.2
		c0-0.7-0.2-1-0.8-1.2c-2.7-1.1-4.1-3.8-3.7-6.7c0.4-2.6,2.9-4.8,5.5-5c2.9-0.2,5.5,1.6,6.3,4.4c0.9,3-0.6,6.2-3.6,7.4
		c-0.5,0.2-0.8,0.5-0.7,1.1c0,2.1,0,4.3,0,6.4c0,0.6,0.1,0.8,0.7,0.7c0.7-0.1,1.7,0.2,2.2-0.2c0.4-0.4,0.3-1.4,0.4-2.1
		c0.9-6.3,6.6-11.3,13-11.5c0.2,0,0.4,0,0.6,0c0.9,0,2,0.2,2.8-0.1c0.9-0.3,0.7-1.5,1.2-2.3c1.5-2.3,3.6-3.7,6.5-3.8
		c6.2-0.1,12.5,0,18.7,0c3.3,0,6.1,2.2,7.1,5.3c0.2,0.6,0.4,0.8,1,0.8c2.1,0,4.2-0.1,6.2,0.5c5.6,1.6,9.5,6.4,9.8,12.2
		c0.1,0.8,0.3,1.1,1.1,1c2,0,2,0,2-2c0-1.7,0-3.3,0-5c0-0.6-0.2-0.9-0.8-1.2c-2.7-1.1-4.3-3.9-3.7-6.7c0.6-2.9,3-5,5.9-5.1
		c3,0,5.5,2,6.1,4.9c0.6,2.7-0.9,5.7-3.6,6.8c-0.8,0.3-0.9,0.7-0.9,1.4c0,2.3,0,4.7,0,7c0,0.6,0.2,0.9,0.7,1.2
		c4.1,2.4,6.1,6.7,5.3,11.3c-0.8,4.4-4.4,7.9-9,8.6c-0.7,0.1-1.4,0.1-2.1,0.1c-0.8-0.1-0.9,0.2-1,1c-0.4,5-2.8,8.7-7.1,11.1
		c-2,1.2-4.2,1.7-6.5,1.7c-3.3,0-6.6,0-9.9,0c-0.7,0-1,0.1-0.9,0.9c0.1,1,0,2.1,0,3.3c1.5-0.9,3-0.7,4.6-0.3
		c11.9,3,19.8,13,19.9,25.5c0,4.6,0,9.2,0,13.8c0,3.5-0.6,4.5-3.8,5.8c-2,0-3.9,0-5.9,0c-0.6-0.4-1-0.9-1-1.6c0.2-1,0.9-1.5,1.9-1.4
		c1.3,0,2.5,0,3.8,0c1.5,0,2-0.5,2-2c0-4.9,0.1-9.9,0-14.8c-0.1-11.2-7.4-20.1-18.2-22.5c-0.7-0.2-1.4-0.1-2,0.3
		c-1.2,0.8-2.5,1.3-3.9,1.6c-3.8,0.9-7.7,0.8-11.6,0.3c-2-0.4-3.9-0.9-5.6-2.1c-0.4-0.3-0.9-0.3-1.4-0.2c-9.5,1.6-17.6,10.3-18.3,20
		c-0.4,5.9-0.1,11.8-0.2,17.6c0,1.1,0.6,1.7,1.7,1.7c5.4,0,10.8,0,16.1,0c0.3,0,0.6,0,0.9,0c1,0.2,1.2-0.2,1.2-1.2
		c-0.1-2,0-2-2.1-1.8c-1.4-0.2-2.6-0.9-3.6-2c-0.2-0.3-0.5-0.5-0.8-0.8c-0.8-0.6-1.4-0.5-1.8,0.4c-1.2,2-3.5,2.8-5.6,2
		c-1.9-0.7-3.1-2.6-3-4.5c0.1-2,1.5-3.7,3.5-4.2c1.9-0.5,4,0.4,5,2.2c0.2,0.4,0.3,0.8,0.9,0.8c1.5-0.1,2.6,0.7,3.6,1.7
		c0.5,0.5,0.9,1.2,1.7,1.3c0.6,0.2,1.2,0.1,1.9,0c0.1,0,0.2,0,0.2-0.1c0-0.8,0-1.7,0-2.5c0-2,0-2-2-1.9c-0.3,0-0.7,0-1,0
		c-0.9,0-1.4-0.5-1.5-1.4c-0.1-0.8,0.4-1.5,1.3-1.7c0.4-0.1,0.8-0.1,1.2-0.1c0.5,0,1.1,0,1.6,0.1c0.8,0.1,1.2-0.1,1.6-0.9
		c0.5-1,1.3-1.8,2.2-2.3c0.4-0.3,0.5-0.5,0.5-1c0-2,0-4.1,0-6.1c0-0.5-0.2-0.7-0.6-1c-1.9-1-2.8-3.1-2.3-5.1
		c0.5-2.1,2.4-3.5,4.4-3.5c2.1,0,3.9,1.4,4.4,3.5c0.5,2-0.4,4.1-2.3,5.1c-0.4,0.2-0.6,0.4-0.6,0.9c0,1.7,0,3.4,0,5.1
		c0,0.6,0.1,0.7,0.7,0.7c1.9,0,3.9-0.1,5.8,0c1,0,1.3-0.2,1.2-1.2c0-0.7-0.5-0.8-0.9-1.1c-1.7-1.1-2.6-3.1-2.1-5.1
		c0.5-2,2.3-3.4,4.3-3.4c2.1,0,3.9,1.2,4.5,3.1c0.6,1.9,0,4.1-1.8,5.2c-0.9,0.5-1,1.2-1.1,2.1c0,0.9,0.1,1.5,1,2
		c0.8,0.5,1.4,1.2,1.8,2c0.3,0.7,0.8,0.9,1.5,0.8c2.3-0.2,4.1,0.5,5.6,2.3c0.1,0.1,0.2,0.2,0.4,0.4c0.8,0.7,1.4,0.6,2-0.3
		c1-1.8,3.1-2.6,5.1-2.1c1.9,0.5,3.3,2.1,3.4,4c0.1,2.1-1,3.9-2.9,4.7c-1.9,0.7-4.1,0.2-5.2-1.5c-0.6-0.9-1.2-1.3-2.3-1.4
		c-0.8,0-1.6-0.5-2.2-1.2c-0.4-0.4-0.8-0.8-1.2-1.2c-0.8-0.8-1.8-0.7-2.7-0.5c-0.6,0.2-0.2,1.1-0.3,1.6c0,0.2,0,0.5,0,0.7
		c0,2.2,0,2.2,2.2,2.2c1.7,0,2.4,0.4,2.4,1.5c0,1.1-0.7,1.5-2.4,1.5c-2.2,0-2.2,0-2.2,2.3c0,0.6,0.1,0.8,0.8,0.8c1.8,0,3.7,0,5.5,0
		c1.1,0,1.8,0.4,2,1.4c0,0.7-0.5,1.2-1,1.6C451.7,1038.3,435.7,1038.3,419.7,1038.3z M446.5,937.4c-2,0-4-0.1-6,0
		c-1.9,0-3.6,1.4-3.9,3c3.2,0,6.3,0,9.5,0c5.7,0,11.5,0,17.2,0c-0.6-1.8-2.1-3-4-3C455,937.4,450.7,937.4,446.5,937.4z M446.9,989.4
		C446.8,989.4,446.8,989.4,446.9,989.4c-1.1,0-2.3-0.4-2.9,0.2c-0.6,0.5-0.2,1.7-0.2,2.6c0,3,0,3,3.1,3.1c2.9,0.4,5.8,0.2,8.6-0.3
		c0.4-0.1,0.5-0.3,0.5-0.7c0-1.4,0-2.8,0-4.3c0-0.5-0.2-0.6-0.6-0.6C452.5,989.4,449.7,989.4,446.9,989.4z M443.4,986.3
		c0.3,0,0.7,0,1,0c8.3,0,16.6,0,24.9,0c6.6,0,11.1-4.5,11.2-11.1c0-6.9,0-13.8,0-20.7c0-6.5-4.6-11.1-11.2-11.1
		c-5.3,0-10.6,0-15.8,0c-3.5,0-7,0-10.4,0c-4.4,0-8.7-0.1-13.1,0c-5.9,0.1-10.5,4.6-10.6,10.5c-0.1,7.3-0.1,14.6,0,21.9
		c0.1,5.6,4.5,10.2,9.9,10.4C434,986.4,438.7,986.3,443.4,986.3z M449.8,1035.3c2.3,0,4.7,0,7,0c0.5,0,0.8-0.1,0.8-0.7
		c0-3.3,0-6.7,0-10c-0.1-2.7-2-4.5-4.7-4.5c-2,0-3.9,0-5.9,0c-2.7,0-4.7,1.9-4.7,4.6c0,3.3,0,6.6,0,9.8c0,0.7,0.3,0.8,0.9,0.8
		C445.3,1035.2,447.6,1035.3,449.8,1035.3z M483.5,964.9c0,1.9,0,3.8,0,5.7c0,2,0,2,2.1,2c4.2-0.2,7.7-4.3,7-8.5
		c-0.6-4.2-3.7-6.8-8.1-6.8c-0.7,0-1,0.2-1,0.9C483.6,960.5,483.5,962.7,483.5,964.9z M491.1,940.5c0-1.7-1.4-3.1-3.1-3.1
		c-1.6,0-3,1.4-3,3c0,1.7,1.4,3.1,3.1,3.1C489.8,943.5,491.1,942.2,491.1,940.5z M411.6,943.5c1.7,0,3.1-1.4,3.1-3
		c0-1.6-1.4-3-3-3.1c-1.7,0-3.1,1.3-3.1,3.1C408.6,942.2,410,943.5,411.6,943.5z M446.1,1006.2c0-0.8-0.7-1.5-1.6-1.5
		c-0.8,0-1.5,0.8-1.5,1.6c0,0.8,0.7,1.4,1.5,1.4C445.4,1007.7,446.1,1007,446.1,1006.2z M456.8,1010.8c0-0.8-0.7-1.5-1.5-1.5
		c-0.8,0-1.5,0.6-1.5,1.4c0,0.9,0.6,1.6,1.5,1.6C456,1012.3,456.8,1011.6,456.8,1010.8z M472.8,1027.6c0.9,0,1.5-0.6,1.5-1.5
		c0-0.9-0.7-1.6-1.5-1.5c-0.8,0-1.5,0.7-1.5,1.5C471.2,1026.9,471.9,1027.6,472.8,1027.6z M426.9,1026.1c-0.9,0-1.6,0.7-1.5,1.5
		c0,0.8,0.8,1.5,1.6,1.5c0.8,0,1.4-0.7,1.5-1.5C428.5,1026.8,427.8,1026.1,426.9,1026.1z"/>
	<path class="st33" d="M472.8,1036.7c0,0.8,0.5,1.2,1,1.6c-2,0-4.1,0-6.1,0c0.6-0.4,1-0.9,1-1.6
		C470.2,1036.7,471.5,1036.7,472.8,1036.7z"/>
	<path class="st34" d="M405.9,962.1c1,0.2,1.7-0.2,2.2-1.1c1.7-2.8,4.3-3.9,7.5-3.8c0.5,0,0.6,0.2,0.6,0.7c0,4.7,0,9.3,0,14
		c0,0.5-0.2,0.6-0.7,0.6c-3.6,0.2-6.6-1.6-8-5c-0.4-0.9-0.9-1.4-1.9-1.3C405.5,964.9,405.6,963.5,405.9,962.1z"/>
	<path class="st35" d="M472.8,1036.7c-1.3,0-2.7,0-4,0c-0.2-1.1-0.9-1.5-2-1.4c-1.8,0-3.7,0-5.5,0c-0.7,0-0.8-0.2-0.8-0.8
		c0-2.3,0-2.3,2.2-2.3c1.6,0,2.4-0.5,2.4-1.5c0-1.1-0.7-1.5-2.4-1.5c-2.2,0-2.2,0-2.2-2.2c0-0.2,0-0.5,0-0.7
		c0.1-0.6-0.4-1.5,0.3-1.6c0.9-0.2,1.9-0.3,2.7,0.5c0.4,0.4,0.8,0.8,1.2,1.2c0.6,0.6,1.4,1.1,2.2,1.2c1.1,0,1.7,0.5,2.3,1.4
		c1.1,1.7,3.4,2.2,5.2,1.5c1.9-0.7,3-2.6,2.9-4.7c-0.1-1.9-1.6-3.6-3.4-4c-2-0.5-4,0.4-5.1,2.1c-0.5,0.9-1.2,1-2,0.3
		c-0.1-0.1-0.3-0.2-0.4-0.4c-1.4-1.8-3.3-2.5-5.6-2.3c-0.7,0.1-1.2-0.1-1.5-0.8c-0.4-0.8-1-1.6-1.8-2c-0.8-0.5-1-1.1-1-2
		c0-0.9,0.1-1.6,1.1-2.1c1.7-1,2.4-3.2,1.8-5.2c-0.6-1.9-2.4-3.2-4.5-3.1c-2,0-3.8,1.4-4.3,3.4c-0.5,1.9,0.3,4,2.1,5.1
		c0.4,0.2,0.8,0.4,0.9,1.1c0.1,1-0.3,1.2-1.2,1.2c-1.9-0.1-3.9,0-5.8,0c-0.6,0-0.7-0.2-0.7-0.7c0-1.7,0-3.4,0-5.1
		c0-0.5,0.2-0.7,0.6-0.9c1.9-1.1,2.9-3.1,2.3-5.1c-0.5-2.1-2.3-3.5-4.4-3.5c-2.1,0-3.9,1.4-4.4,3.5c-0.5,2,0.4,4.1,2.3,5.1
		c0.5,0.2,0.6,0.5,0.6,1c0,2,0,4.1,0,6.1c0,0.5-0.1,0.7-0.5,1c-0.9,0.6-1.7,1.4-2.2,2.3c-0.3,0.8-0.8,1-1.6,0.9
		c-0.5-0.1-1.1,0-1.6-0.1c0.1-2.3-0.1-4.6,0.2-6.9c0.3-2.7,0.7-5.4,1.6-8c1.2-3.3,3-6.2,5.9-8.4c3.9,0.5,7.7,0.5,11.6-0.3
		c1.4-0.3,2.7-0.8,3.9-1.6c0.6-0.4,1.3-0.5,2-0.3c10.8,2.4,18,11.3,18.2,22.5c0.1,4.9,0,9.9,0,14.8c0,1.5-0.5,2-2,2
		c-1.3,0-2.5,0-3.8,0C473.7,1035.2,473,1035.7,472.8,1036.7z"/>
	<path class="st36" d="M443,943.6c3.5,0,7,0,10.4,0c5.3,0,10.6,0,15.8,0c6.5,0,11.1,4.5,11.2,11.1c0,6.9,0,13.8,0,20.7
		c0,6.5-4.6,11-11.2,11.1c-8.3,0-16.6,0-24.9,0c-0.3,0-0.7,0-1,0c-1.3-1-2.7-1.9-3.7-3.2c-0.8-1-1.6-1.9-1.9-3.1
		c1.6,0.2,3.2,0.3,4.9,0.3c5.2,0,10.5,0,15.7,0c0.9,0,1.8,0,2.6-0.1c9.5-1.1,15.7-10.9,12.6-19.9c-0.5-1.4-0.9-1.7-2.3-1.4
		c-0.6-1.3-1.3-2.5-2.4-3.3c0.8-1.1,0.7-1.8-0.4-2.6c-0.7-0.5-1.4-1-2.2-1.4c-2-1.1-4.2-1.8-6.5-1.8c-7.3,0-14.5-0.3-21.8,0.2
		c0-0.5,0.3-0.9,0.6-1.4C439.7,946.5,441.3,945,443,943.6z"/>
	<path class="st37" d="M444.8,998.2c-2.8,2.2-4.7,5.1-5.9,8.4c-0.9,2.6-1.4,5.2-1.6,8c-0.2,2.3-0.1,4.6-0.2,6.9
		c-0.4,0-0.8,0-1.2,0.1c-0.9,0.1-1.4,0.8-1.3,1.7c0.1,0.9,0.6,1.3,1.5,1.4c0.3,0,0.7,0,1,0c0,1.5,0,3,0,4.5
		c-0.8-0.1-1.2-0.8-1.7-1.3c-1-1-2.2-1.8-3.6-1.7c-0.6,0-0.7-0.4-0.9-0.8c-1-1.8-3.1-2.7-5-2.2c-2,0.5-3.4,2.2-3.5,4.2
		c-0.1,1.9,1.1,3.8,3,4.5c2.1,0.8,4.4,0,5.6-2c0.5-0.8,1.1-1,1.8-0.4c0.3,0.2,0.6,0.5,0.8,0.8c0.9,1.1,2.1,1.8,3.6,2c0,1,0,2,0,3
		c-5.4,0-10.8,0-16.1,0c-1.1,0-1.7-0.6-1.7-1.7c0.1-5.9-0.3-11.8,0.2-17.6c0.7-9.6,8.8-18.4,18.3-20c0.5-0.1,1-0.1,1.4,0.2
		C440.8,997.3,442.8,997.8,444.8,998.2z"/>
	<path class="st38" d="M443,943.6c-1.7,1.5-3.4,3-4.5,4.9c-0.2,0.4-0.6,0.8-0.6,1.4c-0.1,0-0.2,0.1-0.3,0.1
		c-9.2,1.9-14.6,11.5-11.3,20.3c2,5.3,5.9,8.4,11.3,9.7c0.3,1.2,1.2,2.2,1.9,3.1c1.1,1.3,2.4,2.2,3.7,3.2c-4.7,0-9.5,0.1-14.2,0
		c-5.4-0.2-9.8-4.8-9.9-10.4c-0.1-7.3-0.1-14.6,0-21.9c0.1-5.9,4.7-10.4,10.6-10.5C434.3,943.5,438.7,943.5,443,943.6z"/>
	<path class="st39" d="M449.8,1035.3c-2.2,0-4.5,0-6.7,0c-0.6,0-0.9-0.1-0.9-0.8c0-3.3,0-6.6,0-9.8c0-2.7,2-4.6,4.7-4.6
		c2,0,3.9,0,5.9,0c2.7,0,4.6,1.8,4.7,4.5c0.1,3.3,0,6.7,0,10c0,0.6-0.2,0.7-0.8,0.7C454.4,1035.3,452.1,1035.3,449.8,1035.3z"/>
	<path class="st40" d="M483.5,964.9c0-2.2,0-4.5,0-6.7c0-0.8,0.2-0.9,1-0.9c4.4,0,7.5,2.6,8.1,6.8c0.6,4.2-2.8,8.3-7,8.5
		c-2.1,0.1-2.1,0.1-2.1-2C483.5,968.7,483.5,966.8,483.5,964.9z"/>
	<path class="st41" d="M446.9,989.4c2.8,0,5.7,0,8.5,0c0.5,0,0.6,0.2,0.6,0.6c0,1.4,0,2.8,0,4.3c0,0.4-0.1,0.6-0.5,0.7
		c-2.9,0.6-5.7,0.7-8.6,0.3C446.9,993.3,446.9,991.4,446.9,989.4z"/>
	<path class="st35" d="M446.5,937.4c4.3,0,8.5,0,12.8,0c1.9,0,3.5,1.2,4,3c-5.7,0-11.5,0-17.2,0C446,939.4,446.3,938.4,446.5,937.4z
		"/>
	<path class="st42" d="M491.1,940.5c0,1.7-1.3,3-3,3c-1.7,0-3.1-1.4-3.1-3.1c0-1.6,1.4-3,3-3C489.8,937.4,491.2,938.8,491.1,940.5z"
		/>
	<path class="st43" d="M411.6,943.5c-1.7,0-3-1.4-3-3c0-1.7,1.4-3.1,3.1-3.1c1.6,0,3,1.4,3,3.1C414.7,942.1,413.3,943.5,411.6,943.5
		z"/>
	<path class="st37" d="M446.5,937.4c-0.1,1-0.5,2-0.4,3c-3.2,0-6.3,0-9.5,0c0.3-1.6,2-3,3.9-3C442.5,937.4,444.5,937.4,446.5,937.4z
		"/>
	<path class="st34" d="M446.9,989.4c0,2,0,3.9,0,5.9c-3.1-0.1-3.1-0.1-3.1-3.1c0-0.9-0.4-2.1,0.2-2.6
		C444.6,989,445.8,989.4,446.9,989.4C446.8,989.4,446.8,989.4,446.9,989.4z"/>
	<path class="st35" d="M437.1,1029.1c0-1.5,0-3,0-4.5c2-0.1,2.1-0.1,2,1.9c0,0.8,0,1.7,0,2.5c-0.1,0-0.1,0.1-0.2,0.1
		C438.3,1029.2,437.7,1029.2,437.1,1029.1z"/>
	<path class="st42" d="M446.1,1006.2c0,0.9-0.7,1.5-1.5,1.5c-0.8,0-1.5-0.6-1.5-1.4c0-0.8,0.6-1.6,1.5-1.6
		C445.3,1004.6,446,1005.3,446.1,1006.2z"/>
	<path class="st42" d="M456.8,1010.8c0,0.8-0.8,1.5-1.6,1.5c-0.8,0-1.5-0.7-1.5-1.6c0-0.8,0.7-1.4,1.5-1.4
		C456.1,1009.3,456.8,1010,456.8,1010.8z"/>
	<path class="st42" d="M472.8,1027.6c-0.8,0-1.5-0.7-1.5-1.6c0-0.8,0.7-1.5,1.5-1.5c0.8,0,1.5,0.7,1.5,1.5
		C474.3,1027,473.7,1027.6,472.8,1027.6z"/>
	<path class="st43" d="M426.9,1026.1c0.9,0,1.5,0.7,1.5,1.5c0,0.8-0.7,1.5-1.5,1.5c-0.8,0-1.6-0.7-1.6-1.5
		C425.4,1026.8,426.1,1026.1,426.9,1026.1z"/>
	<path class="st35" d="M437.1,1035.2c0-1,0-2,0-3c2.1-0.1,2-0.1,2.1,1.8c0,0.9-0.2,1.4-1.2,1.2
		C437.7,1035.2,437.4,1035.2,437.1,1035.2z"/>
	<path class="st37" d="M439,1029.1c0.1,0,0.1-0.1,0.2-0.1C439.2,1029.1,439.1,1029.2,439,1029.1z"/>
	<path class="st44" d="M468.8,955.5c1.2,0.8,1.9,2,2.4,3.3c-0.8,0.6-0.9,1.4-0.6,2.3c2.6,8.1-3.1,16-11.6,16.1
		c-6.1,0.1-12.2,0-18.4,0c-1.4,0-2.8-0.2-4.1-0.8c0-7.1,0-14.2,0-21.3c0-0.5,0.1-1.1,0.2-1.6c1.3-0.6,2.7-0.7,4.1-0.8
		c5.8,0,11.7,0,17.5,0c3,0,5.8,0.8,8.2,2.6C467.4,955.9,468.1,956,468.8,955.5z M454.5,972.5c0-0.1-0.1-0.4-0.2-0.7
		c-1.9-4.9-3.7-9.8-5.6-14.7c-0.3-0.8-0.9-1.3-1.9-1.3c-0.9,0-1.4,0.5-1.8,1.3c-1.9,4.9-3.8,9.9-5.7,14.8c-0.4,1,0,1.8,0.8,2.1
		c0.8,0.3,1.6,0,2-1c0.3-0.7,0.6-1.3,0.8-2c0.2-0.6,0.5-0.7,1-0.7c1.9,0,3.8,0,5.7,0c0.6,0,0.9,0.1,1.1,0.7c0.2,0.7,0.5,1.5,0.8,2.2
		c0.3,0.7,0.9,1,1.7,0.8C454,973.9,454.4,973.4,454.5,972.5z M457.5,964.9c0,2.4,0,4.8,0,7.2c0,1.3,0.6,2.1,1.5,2.1
		c1,0,1.5-0.8,1.5-2.1c0-1.8,0-3.5,0-5.3c0-3,0-6,0-9c0-0.8-0.2-1.6-1.1-1.9c-1.1-0.4-2,0.4-2,1.6
		C457.5,959.9,457.5,962.4,457.5,964.9z"/>
	<path class="st22" d="M468.8,955.5c-0.8,0.5-1.5,0.4-2.2-0.1c-2.4-1.9-5.2-2.7-8.2-2.6c-5.8,0-11.7,0-17.5,0
		c-1.4,0-2.8,0.1-4.1,0.8c-0.2,0-0.3,0.1-0.5,0.1c-4.6,1.8-7.7,6.2-7.8,11.2c-0.1,5.1,3.4,10.1,8,11.6c1.3,0.6,2.7,0.8,4.1,0.8
		c6.1,0,12.2,0.1,18.4,0c8.5-0.1,14.2-8,11.6-16.1c-0.3-1-0.2-1.7,0.6-2.3c1.4-0.2,1.9,0,2.3,1.4c3,9-3.1,18.8-12.6,19.9
		c-0.9,0.1-1.8,0.1-2.6,0.1c-5.2,0-10.5,0-15.7,0c-1.6,0-3.2,0-4.9-0.3c-5.4-1.3-9.4-4.5-11.3-9.7c-3.3-8.8,2-18.3,11.3-20.3
		c0.1,0,0.2-0.1,0.3-0.1c7.3-0.5,14.5-0.2,21.8-0.2c2.3,0,4.5,0.7,6.5,1.8c0.8,0.4,1.5,0.9,2.2,1.4
		C469.5,953.7,469.6,954.3,468.8,955.5z"/>
	<path class="st37" d="M436.5,976.4c-4.6-1.4-8.2-6.5-8-11.6c0.1-5,3.2-9.5,7.8-11.2c0.2-0.1,0.3-0.1,0.5-0.1
		c-0.1,0.5-0.2,1-0.2,1.6C436.5,962.1,436.5,969.3,436.5,976.4z"/>
	<path class="st45" d="M454.5,972.5c0,0.9-0.4,1.4-1.2,1.6c-0.8,0.2-1.3-0.2-1.7-0.8c-0.3-0.7-0.6-1.4-0.8-2.2
		c-0.2-0.6-0.5-0.7-1.1-0.7c-1.9,0-3.8,0-5.7,0c-0.6,0-0.9,0.1-1,0.7c-0.2,0.7-0.5,1.3-0.8,2c-0.4,1-1.2,1.3-2,1
		c-0.8-0.3-1.2-1.1-0.8-2.1c1.9-4.9,3.8-9.9,5.7-14.8c0.3-0.8,0.9-1.3,1.8-1.3c0.9,0,1.5,0.5,1.9,1.3c1.9,4.9,3.7,9.8,5.6,14.7
		C454.4,972.1,454.4,972.3,454.5,972.5z M444.4,967.3c1.5,0,2.9,0,4.2,0c0.7,0,0.6-0.2,0.4-0.7c-0.4-1.1-0.8-2.2-1.3-3.3
		c-0.3-0.7-0.4-1.5-1-2.2C446,963.2,445.2,965.2,444.4,967.3z"/>
	<path class="st46" d="M457.5,964.9c0-2.5,0-4.9,0-7.4c0-1.2,0.9-2,2-1.6c0.9,0.3,1.1,1,1.1,1.9c0,3,0,6,0,9c0,1.8,0,3.5,0,5.3
		c0,1.4-0.5,2.1-1.5,2.1c-1,0-1.5-0.7-1.5-2.1C457.5,969.6,457.5,967.3,457.5,964.9z"/>
	<path class="st44" d="M444.4,967.3c0.8-2.1,1.6-4.1,2.4-6.2c0.5,0.7,0.7,1.5,1,2.2c0.4,1.1,0.8,2.2,1.3,3.3
		c0.2,0.5,0.2,0.7-0.4,0.7C447.3,967.3,445.9,967.3,444.4,967.3z"/>
</g>
<g>
	<path class="st47" d="M454.2,651.3c0-0.4,0.3-0.5,0.6-0.6c4.4-1.8,8.1-4.8,11.7-7.8c4.4-3.7,8.9-7.1,14.5-8.7
		c7.1-2,13.5-0.4,19.3,3.8c5.8,4.3,10.3,9.8,13.5,16.2c3.4,6.6,2.7,13.2-1.2,19.5c-2.2,3.6-5.3,6.7-7.7,10.3
		c-2.2,3.2-3.5,6.7-3.7,10.6c-0.2,5.2,1.4,10,3.3,14.7c1.9,4.5,4.2,8.9,5.8,13.6c2.4,7.4,2,14.7-0.8,21.8c-2.1,5.3-5.2,9.9-9.5,13.7
		c-4.8,4.2-10.3,6.8-16.7,7.5c-8,0.9-15.2-1.2-21.9-5.3c-4.7-2.9-8.5-6.8-11.3-11.6c-0.2-0.3-0.2-0.6-0.3-0.9c0.5,0,1,0,1.5,0
		c11.2,0,22.5,0,33.7,0c3,0,4.9-1.9,4.9-4.9c0-5.3,0-10.5,0-15.8c0-1.3-0.4-2.5-1.3-3.4c-0.4-0.4-0.5-0.7,0-1.1c1-1,1.3-2.2,1.3-3.6
		c0-5.1,0-10.2,0-15.3c0-1.4-0.3-2.7-1.3-3.8c-0.4-0.4-0.4-0.7,0-1.1c1-1,1.3-2.3,1.3-3.8c0-5.1,0-10.2,0-15.3
		c0-1.4-0.3-2.6-1.3-3.6c-0.5-0.5-0.4-0.7,0.1-1.1c0.9-1,1.3-2.2,1.3-3.5c0-5.2,0-10.3,0-15.5c0-3.1-1.9-5-5.1-5
		c-9.8,0-19.5,0-29.3,0C455.2,651.4,454.7,651.4,454.2,651.3z"/>
	<path class="st47" d="M412,713.3c-4.6-1.5-8.6-3.9-12.2-7c-3.9-3.4-6.9-7.4-9.1-12c-1.9-4-3-8.3-3.5-12.8
		c-0.5-5.2,0.3-10.1,2.1-14.9c1.3-3.7,3.3-7,5.9-10c4.7-5.5,10.5-8.9,17.4-10.7c6.9-1.7,13.7-1.2,20.3,1.5c2.5,1,5,2,7.5,3
		c0.4,0.2,0.9,0.2,0.8,0.9c-0.5,0-1,0.1-1.5,0.1c-7.5,0-15,0-22.4,0c-3.3,0-5.2,1.9-5.2,5.1c0,5.1,0,10.2,0,15.3
		c0,1.4,0.3,2.7,1.4,3.7c0.3,0.3,0.5,0.5,0.1,0.9c-1.2,1.1-1.5,2.6-1.5,4.1c0,4.8,0,9.6,0,14.5c0,1.6,0.2,3.1,1.5,4.2
		c0.3,0.3,0.4,0.5,0,0.8c-1.3,1.2-1.5,2.7-1.5,4.4C412.1,707.4,412,710.4,412,713.3z"/>
	<path class="st48" d="M412,713.3c0-2.9,0.1-5.8,0.1-8.8c0-1.6,0.2-3.2,1.5-4.4c0.4-0.3,0.3-0.5,0-0.8c-1.2-1.2-1.5-2.6-1.5-4.2
		c0-4.8,0-9.6,0-14.5c0-1.6,0.3-3,1.5-4.1c0.4-0.4,0.3-0.6-0.1-0.9c-1-1-1.4-2.3-1.4-3.7c0-5.1,0-10.2,0-15.3c0-3.3,1.9-5.1,5.2-5.1
		c7.5,0,15,0,22.4,0c0.5,0,1,0,1.5-0.1c4.3,0,8.7,0,13,0c0.5,0,1,0.1,1.5,0.1c9.8,0,19.5,0,29.3,0c3.1,0,5.1,1.9,5.1,5
		c0,5.2,0,10.3,0,15.5c0,1.4-0.3,2.5-1.3,3.5c-0.4,0.4-0.5,0.6-0.1,1.1c1,1,1.3,2.2,1.3,3.6c0,5.1,0,10.2,0,15.3
		c0,1.4-0.3,2.7-1.3,3.8c-0.4,0.4-0.4,0.7,0,1.1c1,1,1.3,2.3,1.3,3.8c0,5.1,0,10.2,0,15.3c0,1.4-0.3,2.6-1.3,3.6
		c-0.5,0.5-0.4,0.7,0,1.1c0.9,0.9,1.3,2.1,1.3,3.4c0,5.3,0,10.5,0,15.8c0,2.9-2,4.9-4.9,4.9c-11.2,0-22.5,0-33.7,0c-0.5,0-1,0-1.5,0
		c-5,0-10,0-15,0c-6,0-11.9,0-17.9,0c-3,0-5-1.9-5-5c0-5.2,0-10.4,0-15.6c0-1.3,0.4-2.5,1.3-3.5c0.4-0.4,0.6-0.6,0.1-1
		c-1.2-1.1-1.4-2.5-1.4-4C412.1,717.1,412,715.2,412,713.3z M420.5,675c0.2,0,0.4,0,0.5,0c21.3,0,42.6,0,63.9,0
		c2.1,0,3.2-1.1,3.2-3.2c0-4.9,0-9.8,0-14.7c0-3-0.9-3.9-3.9-3.9c-19.5,0-39,0-58.5,0c-1.8,0-3.5,0-5.3,0c-1.2,0-2.5-0.1-3.7,0
		c-1.6,0.1-2.7,1.1-2.7,2.7c-0.1,5.5-0.1,11,0,16.4c0,1.6,1.2,2.6,2.7,2.6C418,675.1,419.2,675,420.5,675z M420.5,746.1
		c0.1,0,0.3,0,0.4,0c21.4,0,42.7,0,64.1,0c2.1,0,3.2-1.1,3.2-3.2c0-5,0-9.9,0-14.9c0-2.8-0.9-3.7-3.7-3.7c-20.9,0-41.8,0-62.7,0
		c-0.4,0-0.8,0-1.2,0c-1.2,0-2.4-0.1-3.6,0c-1.7,0-2.9,1-2.9,2.8c0,5.4,0,10.8,0,16.2c0,1.7,1.1,2.8,2.9,2.8
		C418.1,746.2,419.3,746.2,420.5,746.1z M420.5,700.8c-1.2,0-2.4-0.1-3.6-0.1c-1.8,0-2.9,1-2.9,2.9c0,5.3,0,10.6,0,15.9
		c0,1.8,1.1,2.9,2.9,2.9c1.2,0.1,2.4,0,3.6,0c0.1,0,0.3,0,0.4,0c21.3,0,42.6,0,63.9,0c2.3,0,3.3-1.1,3.3-3.4c0-4.9,0-9.7,0-14.6
		c0-3-0.8-3.8-3.9-3.8c-20.8,0-41.6,0-62.3,0C421.5,700.7,421,700.8,420.5,700.8z M420.5,677c-1.3,0-2.6-0.1-3.8,0
		c-1.6,0.1-2.6,1.1-2.6,2.7c0,5.5-0.1,11,0,16.4c0,1.6,1.1,2.6,2.7,2.6c1.2,0,2.5,0,3.7,0c0.2,0,0.4,0.1,0.5,0.1
		c21.3,0,42.6,0,63.9,0c2.2,0,3.2-1.1,3.2-3.3c0-4.8,0-9.5,0-14.3c0-3.3-0.8-4.2-4.1-4.2c-20.7,0-41.5,0-62.2,0
		C421.4,677,420.9,677,420.5,677z"/>
	<path class="st49" d="M420.5,677c0.4,0,0.9,0,1.3,0c20.7,0,41.5,0,62.2,0c3.3,0,4.1,0.8,4.1,4.2c0,4.8,0,9.5,0,14.3
		c0,2.2-1,3.3-3.2,3.3c-21.3,0-42.6,0-63.9,0c-0.2,0-0.4,0-0.5-0.1c-0.9-1.1-1.2-2.3-1.1-3.7c1.1,0.3,2.3,0.2,3.4,0.2
		c1.7-0.1,2.9-1.2,2.9-3c0.1-2.9,0.1-5.8,0-8.7c0-1.6-1.2-2.8-2.7-2.9c-1.2-0.1-2.4-0.1-3.6,0.1C419.1,679.3,419.8,678.2,420.5,677z
		 M461.5,688.8c6.4,0,12.7,0,19.1,0c0.4,0,0.8,0,1.2,0c0.5-0.1,0.9-0.4,0.8-1c0-0.5-0.4-0.8-0.9-0.8c-0.3,0-0.6,0-0.9,0
		c-12.8,0-25.6,0-38.4,0c-0.4,0-0.7,0-1.1,0c-0.4,0.1-0.7,0.4-0.8,0.8c0,0.5,0.2,0.9,0.7,1c0.4,0.1,0.8,0.1,1.2,0.1
		C448.8,688.8,455.1,688.8,461.5,688.8z M436.6,687.9c0-0.8,0-1.6,0-2.4c0-4.3-0.7-5-5-4.9c-2,0-3.2,1.1-3.3,3.2
		c-0.1,2.8-0.1,5.6,0,8.3c0,1.9,1.3,3,3.1,3.1c0.6,0,1.1,0,1.7,0c2.2,0,3.4-1.1,3.4-3.3C436.6,690.5,436.6,689.2,436.6,687.9z
		 M463.1,693.1c-0.8,0-1.6,0-1.6,0.9c0,0.8,0.7,1,1.4,1c0.7,0,1.5,0,1.6-1C464.5,693.1,463.8,693,463.1,693.1z M457.1,693.1
		c-0.7,0-1.5,0-1.5,0.9c0,0.8,0.7,1,1.4,0.9c0.7,0,1.5,0,1.5-1C458.6,693.1,457.8,693,457.1,693.1z M460.8,682.7
		c0.7,0,1.5,0,1.5-0.9c0-0.9-0.7-1-1.4-1c-0.7,0-1.6,0-1.6,1C459.4,682.7,460.1,682.8,460.8,682.7z M455.1,680.9
		c-0.7,0-1.5,0-1.6,0.9c-0.1,0.8,0.7,1,1.4,1c0.7,0,1.5,0,1.6-0.9C456.5,681,455.8,680.8,455.1,680.9z M474.5,694.9
		c0.8,0,1.6,0,1.7-1c0-0.8-0.6-0.9-1.2-0.9c-0.7,0-1.6-0.3-1.7,0.9C473.2,694.8,473.8,695,474.5,694.9z M443.3,680.9
		c-0.7,0-1.6-0.1-1.5,0.9c0,0.8,0.7,1,1.4,1c0.7,0,1.4,0,1.4-0.9C444.7,680.9,444,680.9,443.3,680.9z M480.4,694.9
		c0.9,0,1.7-0.1,1.7-1c0-0.9-0.7-0.8-1.4-0.8c-0.7,0-1.5-0.1-1.5,0.9C479.1,694.9,479.9,694.9,480.4,694.9z M468.9,694.9
		c0.6,0,1.4-0.1,1.4-0.9c0-1-0.8-1-1.5-1c-0.7,0-1.4,0-1.4,1C467.5,695,468.2,695,468.9,694.9z M466.7,682.7c0.7,0,1.4-0.1,1.5-0.9
		c0-0.9-0.8-1-1.5-1c-0.7,0-1.4,0-1.4,1C465.3,682.8,466,682.8,466.7,682.7z M449.2,680.9c-0.6,0-1.5-0.1-1.6,0.8
		c-0.1,0.9,0.6,1,1.3,1c0.7,0,1.5,0.1,1.5-0.9C450.5,681,450,680.8,449.2,680.9z"/>
	<path class="st50" d="M420.5,700.8c0.5,0,1-0.1,1.5-0.1c20.8,0,41.6,0,62.3,0c3,0,3.9,0.8,3.9,3.8c0,4.9,0,9.7,0,14.6
		c0,2.2-1.1,3.4-3.3,3.4c-21.3,0-42.6,0-63.9,0c-0.1,0-0.3,0-0.4,0c-0.7-1.2-1.3-2.3-1-3.8c1.1,0.3,2.2,0.2,3.3,0.1c1.8,0,3-1.2,3-3
		c0-2.8,0-5.6,0-8.5c0-1.8-1.2-3-2.9-3.1c-1.1-0.1-2.3-0.1-3.4,0.2C419.3,703.1,419.6,701.9,420.5,700.8z M461.6,712.5
		c6.4,0,12.7,0,19.1,0c0.7,0,2,0.4,1.9-0.9c0-1.2-1.2-0.9-2-0.9c-12.7,0-25.5,0-38.2,0c-0.4,0-0.8,0-1.2,0.1c-0.5,0.1-0.7,0.5-0.7,1
		c0,0.4,0.3,0.7,0.8,0.8c0.4,0,0.8,0,1.2,0C448.8,712.5,455.2,712.5,461.6,712.5z M436.5,711.6c0-1.3,0-2.7,0-4
		c-0.1-2.1-1.2-3.2-3.3-3.3c-0.6,0-1.2,0-1.7,0c-1.9,0.1-3.2,1.2-3.2,3.2c-0.1,2.8-0.1,5.6,0,8.4c0.1,2,1.3,3,3.3,3.1
		c0.5,0,1.1,0,1.6,0c2.2,0,3.3-1.1,3.4-3.3C436.6,714.2,436.5,712.9,436.5,711.6z M480.6,718.6c0.7,0,1.4,0.1,1.5-0.9
		c0-1-0.8-1-1.5-1c-0.7,0-1.4,0-1.4,0.9C479.1,718.6,479.9,718.6,480.6,718.6z M460.9,704.5c-0.7,0-1.5,0-1.6,0.9
		c0,0.8,0.7,0.9,1.4,0.9c0.7,0,1.5,0,1.5-0.9C462.3,704.6,461.6,704.5,460.9,704.5z M455,704.5c-0.8,0-1.6,0.1-1.5,1
		c0,0.9,0.8,0.9,1.5,0.9c0.7,0,1.5-0.1,1.5-1C456.4,704.6,455.7,704.5,455,704.5z M457,718.6c0.7,0,1.6,0,1.5-1
		c0-0.9-0.8-0.9-1.5-0.9c-0.7,0-1.5,0.1-1.5,0.9C455.6,718.5,456.3,718.6,457,718.6z M463,718.6c0.7,0,1.5-0.1,1.5-0.9
		c0-0.9-0.7-1-1.4-1c-0.7,0-1.6,0-1.5,1C461.5,718.6,462.3,718.6,463,718.6z M443.2,706.4c0.7,0,1.4,0.1,1.5-0.9c0-0.9-0.6-1-1.3-1
		c-0.7,0-1.5,0-1.6,1C441.7,706.4,442.5,706.4,443.2,706.4z M475.1,718.6c0.4,0,1.1,0,1.1-0.9c0-0.9-0.8-1-1.6-1
		c-0.7,0-1.3,0-1.3,0.9C473.3,718.7,474.1,718.6,475.1,718.6z M449,706.4c0.8,0,1.5,0,1.5-0.9c0-0.9-0.7-1-1.4-1
		c-0.7,0-1.5,0.1-1.5,1C447.7,706.4,448.4,706.4,449,706.4z M466.7,704.5c-0.7,0-1.4,0-1.4,1c0,1,0.7,0.9,1.4,0.9
		c0.7,0,1.4,0,1.5-0.9C468.2,704.6,467.4,704.5,466.7,704.5z M468.8,716.7c-0.7,0-1.4,0-1.4,1c0,0.9,0.7,0.9,1.4,0.9
		c0.7,0,1.4-0.1,1.5-0.9C470.3,716.8,469.5,716.7,468.8,716.7z"/>
	<path class="st51" d="M420.5,724.5c0.4,0,0.8,0,1.2,0c20.9,0,41.8,0,62.7,0c2.8,0,3.7,0.9,3.7,3.7c0,5,0,9.9,0,14.9
		c0,2.1-1.1,3.2-3.2,3.2c-21.4,0-42.7,0-64.1,0c-0.1,0-0.3,0-0.4,0c-0.8-1.1-1.3-2.3-1-3.7c1.1,0,2.3,0.1,3.4,0.1
		c1.7-0.1,2.9-1.2,2.9-3c0-2.9,0-5.7,0-8.6c0-1.6-1-2.7-2.7-2.9c-1.2-0.2-2.5-0.1-3.7,0.1C419.3,726.8,419.6,725.5,420.5,724.5z
		 M461.6,734.3c-3.1,0-6.2,0-9.3,0c-3.5,0-7,0-10.5,0c-0.6,0-1.4,0.1-1.4,0.9c0,0.8,0.6,1.1,1.4,1.1c0.2,0,0.4,0,0.7,0
		c12.7,0,25.4,0,38,0c0.4,0,0.8,0,1.2-0.1c0.5-0.1,0.9-0.4,0.9-1c0-0.6-0.4-0.8-1-0.9c-0.3-0.1-0.7,0-1.1,0
		C474.3,734.3,467.9,734.3,461.6,734.3z M428.2,735.4c0,0.9,0,1.9,0,2.8c0,3.6,0.9,4.5,4.6,4.5c0.2,0,0.4,0,0.7,0
		c1.9-0.1,3-1.2,3.1-3.1c0.1-2.8,0.1-5.6,0-8.3c0-1.9-1.2-3-3.1-3.1c-0.7-0.1-1.3,0-2,0c-2,0.1-3.2,1.3-3.2,3.3
		C428.2,732.6,428.3,734,428.2,735.4z M455.2,728.2c-1,0-1.7,0-1.8,1c-0.1,0.9,0.7,1,1.4,1.1c0.8,0,1.6-0.1,1.6-1.1
		C456.5,728.3,455.7,728.2,455.2,728.2z M460.9,728.2c-0.7,0-1.5,0.1-1.6,1c0,0.8,0.7,1,1.4,1c0.7,0,1.5-0.1,1.6-1
		C462.4,728.3,461.7,728.2,460.9,728.2z M449.2,728.2c-0.8,0-1.6,0.1-1.6,1.1c0,0.9,0.8,0.9,1.5,1c0.7,0,1.4-0.1,1.5-0.9
		C450.6,728.3,449.9,728.2,449.2,728.2z M466.6,728.2c-0.5,0-1.3,0.1-1.3,1c-0.1,0.9,0.7,1.1,1.4,1c0.7,0,1.5,0,1.6-1
		C468.2,728.4,467.6,728.2,466.6,728.2z M456.9,740.4c-0.6,0-1.3,0.1-1.3,1c0,1,0.8,1,1.5,1.1c0.7,0,1.4-0.1,1.5-1
		C458.6,740.5,457.8,740.4,456.9,740.4z M463.1,742.4c0.6,0,1.4-0.2,1.4-1c0-1-0.8-1-1.5-1c-0.7,0-1.4,0.2-1.4,1
		C461.5,742.3,462.3,742.4,463.1,742.4z M469,740.4c-0.9,0-1.7,0.1-1.7,1c0,0.8,0.7,1,1.4,1c0.7,0,1.5-0.1,1.5-1
		C470.3,740.5,469.6,740.4,469,740.4z M443.5,730.2c0.5,0,1.2-0.1,1.2-1.1c0-0.9-0.7-0.9-1.4-1c-0.8,0-1.5,0.1-1.5,1
		C441.8,730.1,442.5,730.2,443.5,730.2z M474.6,740.4c-0.5,0-1.3,0-1.3,0.9c0,1,0.8,1.1,1.5,1.1c0.7,0,1.4-0.1,1.4-1
		C476.2,740.5,475.5,740.4,474.6,740.4z M480.7,740.4c-0.8,0-1.6,0.1-1.6,1c0,0.9,0.8,1,1.4,1c0.7,0,1.4-0.1,1.5-1
		C482.1,740.6,481.4,740.4,480.7,740.4z"/>
	<path class="st52" d="M420.5,653.3c1.8,0,3.5,0,5.3,0c19.5,0,39,0,58.5,0c3,0,3.9,0.9,3.9,3.9c0,4.9,0,9.8,0,14.7
		c0,2.1-1.1,3.2-3.2,3.2c-21.3,0-42.6,0-63.9,0c-0.2,0-0.4,0-0.5,0c-0.9-1.1-1.2-2.3-1.1-3.7c1.3,0.2,2.5,0.3,3.8,0.1
		c1.5-0.2,2.5-1.3,2.5-2.8c0.1-2.9,0.1-5.9,0-8.9c0-1.6-1.2-2.8-2.9-2.8c-1.1,0-2.3,0.1-3.4,0.1
		C419.2,655.6,419.7,654.4,420.5,653.3z M461.5,665.2c6.3,0,12.6,0,19,0c0.8,0,2.2,0.4,2.1-1c0-1.3-1.3-0.9-2.1-1
		c-12.6,0-25.3,0-37.9,0c-0.9,0-2.1-0.2-2,1.1c0,1.2,1.2,0.9,2,0.9C448.8,665.2,455.2,665.2,461.5,665.2z M436.5,664.1
		C436.5,664.1,436.5,664.1,436.5,664.1c0-0.9,0-1.9,0-2.8c0-3.7-0.8-4.5-4.5-4.5c-0.2,0-0.4,0-0.5,0c-2,0.1-3.1,1.2-3.2,3.1
		c-0.1,2.7-0.1,5.5,0,8.2c0,2,1.2,3.1,3.1,3.2c0.7,0,1.3,0,2,0c2-0.1,3-1.2,3.1-3.2C436.6,666.9,436.5,665.5,436.5,664.1z
		 M474.4,671.3c0.9,0,1.7,0,1.8-0.9c0.1-0.9-0.6-1.1-1.3-1.1c-0.7,0-1.5,0-1.6,1C473.2,671.1,473.9,671.3,474.4,671.3z M462.7,671.3
		c0.9,0,1.7,0,1.7-1c0-0.9-0.7-1-1.4-1c-0.8,0-1.5,0.1-1.6,1C461.4,671.2,462.2,671.2,462.7,671.3z M468.8,671.3
		c0.8,0,1.5-0.1,1.5-1c0-0.9-0.7-1-1.4-1c-0.7,0-1.5,0.1-1.5,1C467.3,671.1,468.1,671.3,468.8,671.3z M457.1,671.3
		c0.7,0,1.5-0.1,1.5-1.1c0-0.8-0.8-1-1.5-1c-0.7,0-1.5,0.1-1.5,1.1C455.6,671.2,456.3,671.3,457.1,671.3z M461.1,659.1
		c0.5,0,1.2-0.1,1.3-0.9c0-1-0.8-1.1-1.5-1.1c-0.7,0-1.4,0.1-1.5,0.9C459.3,659,460.1,659.1,461.1,659.1z M455,659.1
		c0.7,0.1,1.4-0.1,1.4-1c0-0.8-0.7-1-1.4-1c-0.8,0-1.5,0.1-1.5,1C453.5,659,454.2,659.1,455,659.1z M466.7,659.1
		c0.7,0,1.5-0.1,1.6-1c0-0.9-0.7-1-1.4-1c-0.8,0-1.5,0.1-1.6,1C465.2,658.9,465.9,659.1,466.7,659.1z M449.1,659.1
		c0.7,0,1.4-0.1,1.5-1c0-0.9-0.8-1.1-1.5-1.1c-0.7,0-1.4,0.1-1.4,1C447.6,659,448.4,659.1,449.1,659.1z M480.5,669.3
		c-0.6,0-1.3,0.1-1.4,1c0,1,0.7,1.1,1.5,1.1c0.7,0,1.4-0.1,1.4-1C482,669.4,481.3,669.3,480.5,669.3z M443.4,659.1
		c0.5,0,1.3,0,1.2-1c0-1-0.8-1-1.5-1c-0.7,0-1.4,0.2-1.4,1.1C441.8,659,442.5,659.1,443.4,659.1z"/>
	<path class="st53" d="M420.5,700.8c-0.9,1.1-1.2,2.3-1.1,3.7c-1.3,0.7-1.9,1.8-1.9,3.4c0.1,2.5,0,5,0,7.5c0,1.5,0.6,2.6,1.9,3.3
		c-0.3,1.4,0.3,2.6,1,3.8c-1.2,0-2.4,0.1-3.6,0c-1.8-0.1-2.9-1.1-2.9-2.9c0-5.3,0-10.6,0-15.9c0-1.9,1.1-2.9,2.9-2.9
		C418.1,700.7,419.3,700.8,420.5,700.8z"/>
	<path class="st53" d="M420.5,653.3c-0.8,1.1-1.3,2.3-1.1,3.7c-1.4,0.8-2,2-1.9,3.6c0.1,2.3,0.1,4.7,0,7c-0.1,1.6,0.5,2.8,1.9,3.6
		c-0.1,1.4,0.2,2.6,1.1,3.7c-1.2,0-2.5,0.1-3.7,0c-1.6,0-2.7-1.1-2.7-2.6c-0.1-5.5-0.1-11,0-16.4c0-1.6,1.2-2.6,2.7-2.7
		C418,653.3,419.3,653.3,420.5,653.3z"/>
	<path class="st54" d="M419.4,742.4c-0.2,1.4,0.3,2.6,1,3.7c-1.2,0-2.4,0.1-3.6,0c-1.7,0-2.9-1.1-2.9-2.8c0-5.4,0-10.8,0-16.2
		c0-1.7,1.1-2.8,2.9-2.8c1.2,0,2.4,0,3.6,0c-0.9,1.1-1.2,2.3-1.1,3.7c-1.4,0.8-1.9,2-1.9,3.6c0.1,2.3,0.1,4.7,0,7
		C417.5,740.4,418,741.6,419.4,742.4z"/>
	<path class="st54" d="M420.5,677c-0.7,1.2-1.4,2.3-1,3.8c-1.4,0.7-2,1.9-1.9,3.5c0.1,2.4,0.1,4.9,0,7.3c0,1.6,0.5,2.8,1.9,3.5
		c-0.1,1.4,0.2,2.6,1.1,3.7c-1.2,0-2.5,0.1-3.7,0c-1.6,0-2.7-1-2.7-2.6c-0.1-5.5-0.1-11,0-16.4c0-1.5,1-2.5,2.6-2.7
		C417.9,676.9,419.2,677,420.5,677z"/>
	<path class="st55" d="M461.5,688.8c-6.4,0-12.7,0-19.1,0c-0.4,0-0.8,0-1.2-0.1c-0.5-0.1-0.7-0.5-0.7-1c0-0.4,0.3-0.7,0.8-0.8
		c0.3-0.1,0.7,0,1.1,0c12.8,0,25.6,0,38.4,0c0.3,0,0.6,0,0.9,0c0.5,0,0.8,0.3,0.9,0.8c0,0.6-0.3,0.9-0.8,1c-0.4,0.1-0.8,0-1.2,0
		C474.2,688.8,467.9,688.8,461.5,688.8z"/>
	<path class="st56" d="M436.6,687.9c0,1.3,0,2.6,0,4c-0.1,2.2-1.2,3.3-3.4,3.3c-0.6,0-1.1,0-1.7,0c-1.9-0.1-3.1-1.2-3.1-3.1
		c-0.1-2.8-0.1-5.6,0-8.3c0-2,1.3-3.1,3.3-3.2c4.3-0.1,5,0.6,5,4.9C436.6,686.3,436.6,687.1,436.6,687.9z M434.6,687.9
		c0-0.9,0-1.8,0-2.7c0-2.9,0-2.8-2.9-2.8c-1.2,0-1.6,0.5-1.5,1.6c0,2.2,0,4.3,0,6.5c0,2.7,0.1,2.8,2.7,2.7c0.1,0,0.3,0,0.4,0
		c0.8-0.1,1.3-0.5,1.3-1.4C434.6,690.6,434.6,689.3,434.6,687.9z"/>
	<path class="st57" d="M419.4,695c-1.4-0.7-1.9-1.9-1.9-3.5c0.1-2.4,0.1-4.9,0-7.3c0-1.6,0.5-2.7,1.9-3.5c1.2-0.3,2.4-0.2,3.6-0.1
		c1.6,0.1,2.7,1.3,2.7,2.9c0.1,2.9,0.1,5.8,0,8.7c0,1.7-1.2,2.8-2.9,3C421.7,695.2,420.5,695.3,419.4,695z M419.4,687.8
		c0,1.3,0,2.7,0,4c0,1.1,0.5,1.5,1.5,1.5c0.4,0,0.7,0,1.1,0c1.6,0,1.9-0.3,1.9-1.8c0-2.3,0-4.6,0-6.9c0-1.9-0.2-2.1-2.1-2.1
		c-0.3,0-0.5,0-0.8,0c-1.1-0.1-1.6,0.5-1.6,1.6C419.5,685.3,419.4,686.6,419.4,687.8z"/>
	<path class="st58" d="M463.1,693.1c0.7-0.1,1.4,0.1,1.4,0.9c0,0.9-0.8,1-1.6,1c-0.7,0-1.4-0.1-1.4-1
		C461.5,693.1,462.3,693,463.1,693.1z"/>
	<path class="st58" d="M457.1,693.1c0.7,0,1.5,0.1,1.5,0.9c0,0.9-0.8,1-1.5,1c-0.7,0-1.4-0.1-1.4-0.9
		C455.6,693,456.4,693,457.1,693.1z"/>
	<path class="st58" d="M460.8,682.7c-0.7,0-1.5-0.1-1.5-0.9c0-1,0.8-1,1.6-1c0.7,0,1.5,0.1,1.4,1
		C462.3,682.7,461.5,682.8,460.8,682.7z"/>
	<path class="st58" d="M455.1,680.9c0.8,0,1.5,0.1,1.4,1c-0.1,0.9-0.9,0.9-1.6,0.9c-0.7,0-1.4-0.2-1.4-1
		C453.6,680.8,454.4,680.8,455.1,680.9z"/>
	<path class="st58" d="M474.5,694.9c-0.7,0-1.3-0.2-1.2-1c0.1-1.2,1-0.8,1.7-0.9c0.6,0,1.2,0.1,1.2,0.9
		C476.1,695,475.3,695,474.5,694.9z"/>
	<path class="st58" d="M443.3,680.9c0.7,0,1.4,0,1.4,1c0,1-0.8,0.9-1.4,0.9c-0.7,0-1.4-0.1-1.4-1
		C441.7,680.7,442.6,680.9,443.3,680.9z"/>
	<path class="st58" d="M480.4,694.9c-0.5,0-1.2,0-1.2-1c0-1.1,0.8-0.9,1.5-0.9c0.6,0,1.3,0,1.4,0.8
		C482.1,694.9,481.3,695,480.4,694.9z"/>
	<path class="st58" d="M468.9,694.9c-0.8,0-1.5,0-1.5-0.9c0-0.9,0.7-1,1.4-1c0.7,0,1.5,0,1.5,1C470.3,694.9,469.6,695,468.9,694.9z"
		/>
	<path class="st58" d="M466.7,682.7c-0.7,0-1.4,0-1.4-0.9c0-0.9,0.7-1,1.4-1c0.7,0,1.5,0,1.5,1C468.2,682.7,467.4,682.8,466.7,682.7
		z"/>
	<path class="st58" d="M449.2,680.9c0.8,0,1.4,0.1,1.3,1c0,1-0.9,0.9-1.5,0.9c-0.7,0-1.4-0.2-1.3-1
		C447.7,680.8,448.6,680.8,449.2,680.9z"/>
	<path class="st55" d="M461.6,712.5c-6.4,0-12.7,0-19.1,0c-0.4,0-0.8,0-1.2,0c-0.4-0.1-0.7-0.4-0.8-0.8c0-0.5,0.2-0.9,0.7-1
		c0.4-0.1,0.8-0.1,1.2-0.1c12.7,0,25.5,0,38.2,0c0.8,0,1.9-0.3,2,0.9c0.1,1.3-1.2,0.9-1.9,0.9C474.3,712.5,467.9,712.5,461.6,712.5z
		"/>
	<path class="st59" d="M436.5,711.6c0,1.3,0,2.7,0,4c-0.1,2.2-1.2,3.3-3.4,3.3c-0.5,0-1.1,0-1.6,0c-2,0-3.2-1.1-3.3-3.1
		c-0.1-2.8-0.1-5.6,0-8.4c0-2,1.3-3.1,3.2-3.2c0.6,0,1.2,0,1.7,0c2.1,0.1,3.3,1.2,3.3,3.3C436.6,708.9,436.5,710.2,436.5,711.6z
		 M434.6,711.6c0-1.2,0-2.4,0-3.6c0-1.6-0.2-1.8-1.8-1.8c-0.3,0-0.6,0-0.9,0c-1.2-0.1-1.7,0.5-1.6,1.7c0,2.4,0,4.9,0,7.3
		c0,1.6,0.2,1.8,1.8,1.8c0.4,0,0.7,0,1.1,0c1.1,0.1,1.5-0.5,1.5-1.5C434.6,714.2,434.6,712.9,434.6,711.6z"/>
	<path class="st57" d="M419.5,718.7c-1.4-0.7-2-1.8-1.9-3.3c0-2.5,0.1-5,0-7.5c0-1.5,0.5-2.6,1.9-3.4c1.1-0.3,2.3-0.2,3.4-0.2
		c1.8,0.1,2.9,1.3,2.9,3.1c0,2.8,0,5.6,0,8.5c0,1.8-1.2,3-3,3C421.7,718.9,420.6,719,419.5,718.7z M423.9,711.7c0-1.3,0-2.7,0-4
		c0-1.1-0.5-1.5-1.5-1.5c-0.4,0-0.7,0-1.1,0c-1.6,0-1.9,0.3-1.9,1.8c0,2.4,0,4.8,0,7.2c0,1.6,0.2,1.8,1.9,1.8c0.4,0,0.7,0,1.1,0
		c1.1,0.1,1.6-0.5,1.6-1.6C423.9,714.1,423.9,712.9,423.9,711.7z"/>
	<path class="st60" d="M480.6,718.6c-0.7,0-1.4,0-1.4-0.9c0-0.9,0.7-1,1.4-0.9c0.7,0,1.5,0,1.5,1C482,718.7,481.2,718.6,480.6,718.6
		z"/>
	<path class="st60" d="M460.9,704.5c0.7,0,1.4,0.1,1.4,0.9c0,1-0.8,0.9-1.5,0.9c-0.7,0-1.4-0.1-1.4-0.9
		C459.4,704.5,460.2,704.5,460.9,704.5z"/>
	<path class="st60" d="M455,704.5c0.7,0,1.4,0.1,1.4,0.9c0,0.9-0.8,1-1.5,1c-0.7,0-1.4,0-1.5-0.9C453.5,704.6,454.2,704.5,455,704.5
		z"/>
	<path class="st60" d="M457,718.6c-0.7,0-1.5-0.1-1.4-1c0-0.9,0.8-0.9,1.5-0.9c0.7,0,1.5,0.1,1.5,0.9
		C458.6,718.6,457.8,718.6,457,718.6z"/>
	<path class="st60" d="M463,718.6c-0.7,0-1.5,0-1.5-0.9c0-1,0.8-1,1.5-1c0.7,0,1.5,0.1,1.4,1C464.4,718.5,463.7,718.6,463,718.6z"/>
	<path class="st60" d="M443.2,706.4c-0.7,0-1.5,0-1.4-0.9c0-0.9,0.8-1,1.6-1c0.7,0,1.4,0.1,1.3,1
		C444.6,706.5,443.8,706.4,443.2,706.4z"/>
	<path class="st60" d="M475.1,718.6c-1,0-1.8,0.1-1.8-1c0-0.9,0.7-0.9,1.3-0.9c0.7,0,1.5,0,1.6,1
		C476.2,718.6,475.5,718.6,475.1,718.6z"/>
	<path class="st60" d="M449,706.4c-0.6,0-1.4,0-1.4-0.9c0-1,0.8-1,1.5-1c0.7,0,1.4,0,1.4,1C450.5,706.4,449.8,706.4,449,706.4z"/>
	<path class="st60" d="M466.7,704.5c0.7,0,1.5,0,1.5,1c0,0.9-0.8,0.9-1.5,0.9c-0.7,0-1.4,0-1.4-0.9
		C465.3,704.5,466,704.5,466.7,704.5z"/>
	<path class="st60" d="M468.8,716.7c0.7,0,1.5,0,1.5,1c0,0.8-0.8,0.9-1.5,0.9c-0.7,0-1.4,0-1.4-0.9
		C467.4,716.8,468.1,716.7,468.8,716.7z"/>
	<path class="st58" d="M461.6,734.3c6.3,0,12.6,0,19,0c0.4,0,0.7,0,1.1,0c0.5,0.1,0.9,0.3,1,0.9c0,0.6-0.4,0.9-0.9,1
		c-0.4,0.1-0.8,0.1-1.2,0.1c-12.7,0-25.4,0-38,0c-0.2,0-0.4,0-0.7,0c-0.7,0-1.4-0.3-1.4-1.1c0-0.8,0.7-0.9,1.4-0.9c3.5,0,7,0,10.5,0
		C455.4,734.3,458.5,734.3,461.6,734.3z"/>
	<path class="st56" d="M428.3,735.4c0-1.4,0-2.7,0-4.1c0.1-2,1.2-3.2,3.2-3.3c0.7,0,1.3,0,2,0c1.9,0.2,3,1.2,3.1,3.1
		c0.1,2.8,0.1,5.6,0,8.3c0,1.9-1.2,3-3.1,3.1c-0.2,0-0.4,0-0.7,0c-3.7,0-4.6-0.8-4.6-4.5C428.2,737.2,428.2,736.3,428.3,735.4z
		 M434.6,735.3c0-0.8,0-1.7,0-2.5c0-2.9,0-2.9-2.9-2.8c-1,0-1.4,0.4-1.4,1.4c0,2.1,0,4.2,0,6.4c0,3.1,0,3.1,3.1,2.9
		c0.9,0,1.3-0.4,1.3-1.3C434.6,738,434.6,736.6,434.6,735.3z"/>
	<path class="st57" d="M419.4,742.4c-1.4-0.8-2-2-1.9-3.6c0.1-2.3,0.1-4.7,0-7c-0.1-1.6,0.5-2.8,1.9-3.6c1.2-0.2,2.5-0.3,3.7-0.1
		c1.6,0.2,2.6,1.3,2.7,2.9c0,2.9,0,5.7,0,8.6c0,1.7-1.2,2.9-2.9,3C421.7,742.5,420.6,742.5,419.4,742.4z M419.4,735.2
		c0,0.9,0,1.8,0,2.6c0,2.9,0,2.8,2.8,2.9c1.3,0,1.7-0.6,1.7-1.8c-0.1-2,0-4.1,0-6.1c0-3,0-3-3-2.9c-1.1,0-1.5,0.5-1.5,1.6
		C419.5,732.7,419.4,733.9,419.4,735.2z"/>
	<path class="st58" d="M455.2,728.2c0.5,0,1.2,0.1,1.2,1c0,1-0.8,1.1-1.6,1.1c-0.7,0-1.4-0.2-1.4-1.1
		C453.5,728.2,454.3,728.2,455.2,728.2z"/>
	<path class="st58" d="M460.9,728.2c0.7,0,1.4,0.2,1.4,1c0,0.9-0.8,1-1.6,1c-0.7,0-1.4-0.2-1.4-1
		C459.4,728.3,460.2,728.2,460.9,728.2z"/>
	<path class="st58" d="M449.2,728.2c0.7,0,1.5,0.2,1.4,1.1c0,0.8-0.8,1-1.5,0.9c-0.7,0-1.4-0.1-1.5-1
		C447.6,728.3,448.3,728.2,449.2,728.2z"/>
	<path class="st58" d="M466.6,728.2c1,0,1.7,0.2,1.6,1c0,0.9-0.9,1-1.6,1c-0.7,0-1.4-0.2-1.4-1C465.3,728.2,466.1,728.2,466.6,728.2
		z"/>
	<path class="st58" d="M456.9,740.4c0.9,0,1.7,0.1,1.7,1.1c0,0.8-0.8,1-1.5,1c-0.7,0-1.5-0.1-1.5-1.1
		C455.6,740.5,456.3,740.4,456.9,740.4z"/>
	<path class="st58" d="M463.1,742.4c-0.8,0-1.6-0.1-1.6-1.1c0-0.8,0.7-1,1.4-1c0.7,0,1.5,0.1,1.5,1
		C464.4,742.2,463.7,742.4,463.1,742.4z"/>
	<path class="st58" d="M469,740.4c0.6,0,1.3,0.1,1.3,1c0,1-0.8,1-1.5,1c-0.7,0-1.4-0.2-1.4-1C467.4,740.5,468.2,740.4,469,740.4z"/>
	<path class="st58" d="M443.5,730.2c-1,0-1.7-0.1-1.7-1c0-0.9,0.7-1.1,1.5-1c0.7,0,1.4,0,1.4,1C444.6,730.1,443.9,730.2,443.5,730.2
		z"/>
	<path class="st58" d="M474.6,740.4c0.9,0,1.6,0.1,1.6,1c0,0.9-0.7,1-1.4,1c-0.7,0-1.5-0.1-1.5-1.1
		C473.3,740.4,474.1,740.4,474.6,740.4z"/>
	<path class="st58" d="M480.7,740.4c0.7,0,1.3,0.2,1.3,1c0,0.9-0.8,1-1.5,1c-0.7,0-1.4-0.1-1.4-1
		C479.2,740.4,479.9,740.4,480.7,740.4z"/>
	<path class="st60" d="M461.5,665.2c-6.3,0-12.6,0-19,0c-0.8,0-2,0.2-2-0.9c0-1.3,1.2-1.1,2-1.1c12.6,0,25.3,0,37.9,0
		c0.8,0,2.1-0.3,2.1,1c0,1.4-1.3,1-2.1,1C474.1,665.2,467.8,665.2,461.5,665.2z"/>
	<path class="st59" d="M436.5,664.1c0,1.4,0,2.7,0,4.1c-0.1,2-1.1,3.1-3.1,3.2c-0.7,0-1.3,0-2,0c-2-0.1-3.1-1.2-3.1-3.2
		c-0.1-2.7-0.1-5.5,0-8.2c0-2,1.2-3.1,3.2-3.1c0.2,0,0.4,0,0.5,0c3.7,0,4.5,0.8,4.5,4.5C436.5,662.3,436.5,663.2,436.5,664.1
		C436.5,664.1,436.5,664.1,436.5,664.1z M434.6,664.2c0-0.9,0-1.8,0-2.6c0-2.8,0-2.7-2.7-2.8c-1.2,0-1.7,0.4-1.7,1.6
		c0.1,2.1,0,4.1,0,6.2c0,3,0,3,3,2.9c1,0,1.4-0.5,1.4-1.5C434.6,666.8,434.6,665.5,434.6,664.2z"/>
	<path class="st57" d="M419.4,671.3c-1.4-0.8-1.9-2-1.9-3.6c0.1-2.3,0.1-4.7,0-7c-0.1-1.6,0.5-2.8,1.9-3.6c1.1,0,2.3-0.1,3.4-0.1
		c1.7,0,2.9,1.2,2.9,2.8c0.1,2.9,0.1,5.9,0,8.9c0,1.5-1.1,2.5-2.5,2.8C422,671.6,420.7,671.5,419.4,671.3z M423.9,664.3
		c0-0.8,0-1.7,0-2.5c0-3,0-3-3-3c-1.1,0-1.5,0.5-1.5,1.5c0,2.1,0,4.2,0,6.4c0,3,0,3,3,2.9c1,0,1.5-0.5,1.4-1.4
		C423.9,666.8,423.9,665.6,423.9,664.3z"/>
	<path class="st60" d="M474.4,671.3c-0.5,0-1.2-0.2-1.2-1.1c0.1-0.9,0.9-1,1.6-1c0.7,0,1.4,0.2,1.3,1.1
		C476.1,671.3,475.3,671.3,474.4,671.3z"/>
	<path class="st60" d="M462.7,671.3c-0.5-0.1-1.3-0.1-1.2-1c0.1-0.9,0.8-1,1.6-1c0.7,0,1.4,0.2,1.4,1
		C464.4,671.3,463.6,671.3,462.7,671.3z"/>
	<path class="st60" d="M468.8,671.3c-0.7,0-1.4-0.2-1.4-1c0-0.9,0.8-1,1.5-1c0.7,0,1.4,0.1,1.4,1
		C470.3,671.2,469.5,671.3,468.8,671.3z"/>
	<path class="st60" d="M457.1,671.3c-0.7,0-1.4-0.1-1.5-1c0-1,0.8-1,1.5-1.1c0.7,0,1.4,0.1,1.5,1
		C458.6,671.2,457.8,671.3,457.1,671.3z"/>
	<path class="st60" d="M461.1,659.1c-0.9,0-1.7-0.1-1.7-1.1c0-0.8,0.8-1,1.5-0.9c0.7,0,1.5,0.1,1.5,1.1
		C462.3,659,461.6,659.1,461.1,659.1z"/>
	<path class="st60" d="M455,659.1c-0.8,0-1.5-0.1-1.5-1c0-0.9,0.8-1.1,1.5-1c0.7,0,1.4,0.2,1.4,1C456.4,659,455.7,659.1,455,659.1z"
		/>
	<path class="st60" d="M466.7,659.1c-0.7,0-1.4-0.2-1.4-1c0-0.9,0.8-1,1.6-1c0.7,0,1.4,0.1,1.4,1C468.2,659,467.4,659.1,466.7,659.1
		z"/>
	<path class="st60" d="M449.1,659.1c-0.8,0-1.5-0.1-1.5-1c0-0.9,0.8-1,1.4-1c0.8,0,1.5,0.2,1.5,1.1
		C450.6,659,449.8,659.1,449.1,659.1z"/>
	<path class="st60" d="M480.5,669.3c0.8,0,1.5,0.1,1.5,1c0,0.9-0.7,1-1.4,1c-0.8,0-1.5-0.1-1.5-1.1
		C479.2,669.3,479.9,669.3,480.5,669.3z"/>
	<path class="st60" d="M443.4,659.1c-0.9,0-1.6-0.1-1.6-0.9c-0.1-0.9,0.7-1.1,1.4-1.1c0.7,0,1.5,0,1.5,1
		C444.7,659.1,443.9,659,443.4,659.1z"/>
	<path class="st61" d="M434.6,687.9c0,1.3,0,2.7,0,4c0,0.9-0.4,1.3-1.3,1.4c-0.1,0-0.3,0-0.4,0c-2.7,0.1-2.7,0-2.7-2.7
		c0-2.2,0-4.3,0-6.5c0-1.1,0.4-1.6,1.5-1.6c2.9,0,2.9-0.1,2.9,2.8C434.6,686.2,434.6,687.1,434.6,687.9z"/>
	<path class="st61" d="M419.4,687.8c0-1.2,0-2.5,0-3.7c0-1.1,0.4-1.7,1.6-1.6c0.3,0,0.5,0,0.8,0c2,0,2.1,0.2,2.1,2.1
		c0,2.3,0,4.6,0,6.9c0,1.5-0.3,1.8-1.9,1.8c-0.4,0-0.7,0-1.1,0c-1,0-1.6-0.4-1.5-1.5C419.5,690.5,419.4,689.1,419.4,687.8z"/>
	<path class="st61" d="M434.6,711.6c0,1.3,0,2.6,0,3.8c0,1.1-0.4,1.6-1.5,1.5c-0.4,0-0.7,0-1.1,0c-1.7,0-1.8-0.2-1.8-1.8
		c0-2.4,0-4.9,0-7.3c0-1.2,0.4-1.7,1.6-1.7c0.3,0,0.6,0,0.9,0c1.6,0,1.8,0.2,1.8,1.8C434.6,709.2,434.6,710.4,434.6,711.6z"/>
	<path class="st61" d="M423.9,711.7c0,1.2,0,2.5,0,3.7c0,1.1-0.4,1.7-1.6,1.6c-0.4,0-0.7,0-1.1,0c-1.6,0-1.8-0.2-1.9-1.8
		c0-2.4,0-4.8,0-7.2c0-1.5,0.3-1.8,1.9-1.8c0.4,0,0.7,0,1.1,0c1,0,1.6,0.4,1.5,1.5C423.9,709,423.9,710.3,423.9,711.7z"/>
	<path class="st55" d="M434.6,735.3c0,1.4,0,2.7,0,4.1c0,0.9-0.4,1.2-1.3,1.3c-3.1,0.2-3.1,0.1-3.1-2.9c0-2.1,0-4.2,0-6.4
		c0-1,0.4-1.4,1.4-1.4c2.9-0.1,2.9-0.1,2.9,2.8C434.6,733.6,434.6,734.4,434.6,735.3z"/>
	<path class="st61" d="M419.4,735.2c0-1.2,0-2.5,0-3.7c0-1,0.4-1.5,1.5-1.6c3-0.1,3-0.1,3,2.9c0,2,0,4.1,0,6.1
		c0,1.2-0.4,1.8-1.7,1.8c-2.8,0-2.8,0-2.8-2.9C419.4,736.9,419.4,736.1,419.4,735.2z"/>
	<path class="st55" d="M434.6,664.2c0,1.3,0,2.6,0,3.8c0,1-0.3,1.4-1.4,1.5c-3,0.1-3,0.1-3-2.9c0-2.1,0-4.2,0-6.2
		c0-1.2,0.5-1.6,1.7-1.6c2.7,0,2.7,0,2.7,2.8C434.6,662.5,434.6,663.4,434.6,664.2z"/>
	<path class="st61" d="M423.9,664.3c0,1.3,0,2.6,0,3.8c0,1-0.4,1.4-1.4,1.4c-3,0.1-3,0.1-3-2.9c0-2.1,0-4.2,0-6.4
		c0-1.1,0.4-1.5,1.5-1.5c3,0,3-0.1,3,3C423.9,662.6,423.9,663.4,423.9,664.3z"/>
</g>
<g>
	<path class="st62" d="M92.2,42.7c15.5,0,31.1,0,46.6,0c1,0,1.3-0.2,1.4-1.2c0.6-7.7,7.5-13.4,15.1-12.7c7.6,0.7,13.3,7.4,12.8,15
		c-0.4,6.1-4.9,11.2-11,12.6c-0.8,0.2-0.9,0.5-0.9,1.2c0,12.4,0,24.8,0,37.2c0,0.8,0.3,1.2,0.8,1.7c9.7,8.8,13.4,19.7,10,32.4
		c-3.4,12.7-12,20.6-24.8,23.2c-18,3.7-35.3-9-37.7-27.2c-0.3-2.1-0.3-2.1-2.4-2.1c-18.9,0-37.7,0-56.6,0c-1,0-1.3-0.2-1.3-1.3
		c0-25.8,0-51.6,0-77.5c0-1,0.2-1.3,1.3-1.3C61,42.7,76.6,42.7,92.2,42.7z M152.1,93c0-12,0-23.8,0-35.6c0-0.6-0.1-0.9-0.8-1
		c-1.7-0.3-3.4-1-4.8-2c-0.6-0.4-0.9-0.3-1.4,0.2c-3.5,3.6-7.1,7.2-10.7,10.7c-0.6,0.6-0.8,1-0.5,1.9c0.7,2.5-0.1,4.6-2,6.2
		c-1.9,1.5-4.4,1.7-6.6,0.6c-2.1-1.2-3.7-3.6-3-5.8c0.6-2.1-0.4-3-1.5-4.1c-0.5-0.4-0.9-0.9-1.3-1.3c-0.4-0.5-0.8-0.7-1.5-0.4
		c-1.1,0.5-2.4,0.5-3.5,0c-0.7-0.3-1-0.1-1.5,0.4c-2.9,2.9-5.8,5.8-8.7,8.7c-0.5,0.5-0.6,0.8-0.4,1.5c0.8,2.7-0.3,5.5-2.6,6.9
		c-2.4,1.4-5.4,1-7.3-1c-1.9-2-2.3-4.9-0.9-7.2c1.4-2.4,4.2-3.5,6.9-2.6c0.8,0.2,1.1,0,1.6-0.5c2.8-2.8,5.6-5.6,8.4-8.4
		c0.6-0.6,0.8-1,0.5-1.9c-0.7-2.5,0.1-4.6,2-6.2c1.8-1.5,4.4-1.7,6.6-0.6c2.1,1.1,3.7,3.6,3,5.8c-0.6,2,0.4,3,1.5,4.1
		c0.5,0.4,0.9,0.9,1.3,1.3c0.4,0.5,0.8,0.7,1.5,0.4c1.1-0.5,2.4-0.5,3.5,0c0.7,0.3,1,0.1,1.5-0.4c3.6-3.6,7.2-7.3,10.9-10.9
		c0.5-0.5,0.7-0.8,0.2-1.4c-0.6-0.8-1-1.6-1.3-2.5c-0.3-1-0.8-1.1-1.7-1.1c-30,0-60,0-90,0c-1.1,0-1.3,0.3-1.3,1.3
		c0,23.1,0,46.2,0,69.4c0,1.1,0.3,1.3,1.4,1.3c17.5,0,34.9,0,52.4,0c2.3,0,2.3,0,2.6-2.2c0-0.3,0.1-0.6,0.2-0.9c0.2-0.7,0-1-0.8-0.9
		c-0.9,0.1-1.8,0-2.7,0c-0.8,0.1-1-0.1-1-0.9c0-7.4,0-14.7,0-22.1c0-0.8,0.2-1,1-1c3.3,0,6.7,0.1,10,0c0.9,0,1.1,0.2,1.1,1.1
		c-0.1,2.5,0,5,0,7.8c5.2-5.7,11.4-9.2,18.8-10.4C138.4,87.9,145.4,89.2,152.1,93z M136.1,148.6c0.5,0,1.1,0,1.6,0
		c0.7,0,1.3-0.1,2-0.2c7.9-1.1,14.3-4.9,19.1-11.3c0.5-0.6,0.3-0.9-0.3-1.2c-1.8-1-3.6-2-5.4-3.1c-0.6-0.3-0.9-0.3-1.3,0.2
		c-8.5,10.3-22.8,10.3-31.4,0c-0.4-0.5-0.7-0.5-1.2-0.2c-1.7,1-3.4,2.1-5.2,3c-1,0.5-0.9,0.9-0.3,1.7
		C119.4,144.7,126.9,148.4,136.1,148.6z M164.1,120.4c-0.1-4.3-1-8.5-3-12.4c-4.7-8.8-12-13.9-21.9-15.2c-0.8-0.1-1.1,0-1.1,0.9
		c0.1,2,0,4,0,6c0,0.7,0.1,1,0.9,1.1c12.8,1.9,20.4,15,15.7,27c-0.3,0.7-0.3,1.1,0.5,1.4c1.8,0.9,3.5,1.9,5.2,3
		c0.8,0.5,1.1,0.2,1.4-0.5C163.3,128.2,164.1,124.5,164.1,120.4z M134.1,96.7c0-1-0.1-1.9,0-2.9c0.1-0.9-0.3-1.1-1.1-1
		c-3.9,0.4-7.5,1.7-10.9,3.6c-12.2,7-17.3,22.4-11.7,35.2c0.3,0.7,0.5,1.3,1.5,0.7c1.6-1,3.2-2,4.9-2.8c0.9-0.4,1-0.8,0.7-1.8
		c-4.6-11.9,3.1-25,15.7-26.8c0.7-0.1,1-0.3,1-1.1C134.1,98.8,134.1,97.8,134.1,96.7z M136,136.6c8.8,0,16-7.1,16.1-15.8
		c0.1-8.9-7.1-16.1-15.9-16.2c-8.8,0-16,7.1-16.1,15.8C120.1,129.3,127.2,136.6,136,136.6z M144.1,42.6c0,5.5,4.5,10,10,10
		c5.5,0,10-4.5,10-9.9c0-5.5-4.4-10.1-9.9-10.1C148.6,32.6,144.1,37.1,144.1,42.6z M104.1,102.6c0,2.4,0,4.7,0,7.1
		c0,0.3-0.3,0.9,0.5,0.9c0.5,0,1,0.3,1.3-0.5c1.4-3.1,2.8-6.2,2.2-9.7c-0.1-0.9,0-1.8,0-2.7c0-3.1,0-3.1-3.1-3
		c-0.7,0-0.9,0.2-0.9,0.9C104.1,97.9,104.1,100.3,104.1,102.6z M116.1,58.7c1.1,0,2-0.9,2-2c0-1.1-0.9-2-2-2c-1.1,0-2.1,0.9-2,2.1
		C114.2,57.8,115.1,58.7,116.1,58.7z M130.1,68.7c0-1.1-0.9-2-2-2c-1.1,0-2,0.8-2,1.9c0,1.1,0.9,2.1,2,2.1
		C129.2,70.6,130.1,69.7,130.1,68.7z M100.1,74.7c0-1.1-0.8-2-1.9-2.1c-1.1-0.1-2,0.8-2.1,1.9c-0.1,1.1,0.8,2.1,2,2.1
		C99.2,76.7,100.1,75.8,100.1,74.7z"/>
	<path class="st63" d="M152.1,93c-6.7-3.7-13.7-5.1-21.2-3.9c-7.4,1.2-13.6,4.7-18.8,10.4c0-2.8,0-5.3,0-7.8c0-0.9-0.2-1.1-1.1-1.1
		c-3.3,0.1-6.7,0.1-10,0c-0.8,0-1,0.2-1,1c0,7.4,0,14.7,0,22.1c0,0.8,0.2,1,1,0.9c0.9-0.1,1.8,0,2.7,0c0.8-0.1,0.9,0.3,0.8,0.9
		c-0.1,0.3-0.1,0.6-0.2,0.9c-0.3,2.2-0.3,2.2-2.6,2.2c-17.5,0-34.9,0-52.4,0c-1.1,0-1.4-0.2-1.4-1.3c0-23.1,0-46.2,0-69.4
		c0-1.1,0.2-1.3,1.3-1.3c30,0,60,0,90,0c0.9,0,1.4,0.1,1.7,1.1c0.3,0.9,0.8,1.8,1.3,2.5c0.5,0.6,0.3,0.9-0.2,1.4
		c-3.6,3.6-7.3,7.2-10.9,10.9c-0.4,0.5-0.8,0.7-1.5,0.4c-1.1-0.5-2.4-0.5-3.5,0c-0.7,0.3-1.1,0.1-1.5-0.4c-0.4-0.5-0.9-0.9-1.3-1.3
		c-1.2-1.1-2.2-2-1.5-4.1c0.7-2.2-0.9-4.6-3-5.8c-2.1-1.2-4.7-1-6.6,0.6c-2,1.6-2.8,3.7-2,6.2c0.3,0.9,0.1,1.3-0.5,1.9
		c-2.8,2.8-5.6,5.6-8.4,8.4c-0.5,0.5-0.8,0.7-1.6,0.5c-2.7-0.9-5.5,0.3-6.9,2.6c-1.4,2.3-1,5.3,0.9,7.2c2,2,5,2.4,7.3,1
		c2.4-1.4,3.5-4.2,2.6-6.9c-0.2-0.7-0.1-1,0.4-1.5c2.9-2.9,5.8-5.8,8.7-8.7c0.4-0.5,0.8-0.7,1.5-0.4c1.1,0.5,2.4,0.5,3.5,0
		c0.7-0.3,1.1-0.1,1.5,0.4c0.4,0.5,0.9,0.9,1.3,1.3c1.2,1.1,2.2,2,1.5,4.1c-0.7,2.2,0.9,4.6,3,5.8c2.1,1.2,4.7,1,6.6-0.6
		c2-1.6,2.8-3.7,2-6.2c-0.3-0.9,0-1.3,0.5-1.9c3.6-3.5,7.2-7.1,10.7-10.7c0.5-0.5,0.8-0.6,1.4-0.2c1.4,1,3.1,1.7,4.8,2
		c0.7,0.1,0.8,0.4,0.8,1C152.1,69.2,152.1,81,152.1,93z M96.1,98.8c0-5,0-10.1,0-15.1c0-0.8-0.2-1-1-1c-3.3,0-6.7,0-10,0
		c-0.8,0-1,0.2-1,1c0,10,0,20,0,30c0,0.8,0.2,1,1,1c3.3,0,6.7,0,10,0c0.8,0,1-0.2,1-1C96.1,108.7,96.1,103.7,96.1,98.8z M52.1,104.6
		c0,3,0,6.1,0,9.1c0,0.7,0.2,0.9,0.9,0.9c3.4,0,6.8,0,10.2,0c0.7,0,0.9-0.2,0.9-0.9c0-6.1,0-12.2,0-18.2c0-0.7-0.2-0.9-0.9-0.9
		c-3.4,0-6.8,0-10.2,0c-0.7,0-0.9,0.2-0.9,0.9C52.2,98.6,52.1,101.6,52.1,104.6z M68.1,106.6c0,2.4,0,4.7,0,7.1
		c0,0.7,0.2,0.9,0.9,0.9c3.4,0,6.8,0,10.2,0c0.7,0,0.9-0.2,0.9-0.9c0-4.7,0-9.5,0-14.2c0-0.7-0.2-0.9-0.9-0.9c-3.4,0-6.8,0-10.2,0
		c-0.7,0-0.9,0.2-0.9,0.9C68.2,101.9,68.1,104.3,68.1,106.6z M74.1,54.7c3.7,0,7.4,0,11.1,0c2.9,0,2.8,0,2.9-2.9
		c0-0.9-0.2-1.2-1.2-1.1c-8,0-15.9,0-23.9,0c-3,0-3,0-3,3c0,0.8,0.2,1,1,1C65.5,54.6,69.8,54.7,74.1,54.7z M74.1,62.7
		c3.7,0,7.5,0,11.2,0c2.8,0,2.8,0,2.9-2.8c0-1-0.2-1.2-1.2-1.2c-8,0-15.9,0-23.9,0c-3,0-2.9,0-3,2.9c0,0.9,0.2,1.1,1.1,1.1
		C65.5,62.6,69.8,62.7,74.1,62.7z M74,70.7c3.7,0,7.5,0,11.2,0c2.9,0,2.9,0,2.9-2.9c0-0.9-0.2-1.2-1.2-1.2c-8,0-15.9,0-23.9,0
		c-3,0-3,0-3,3c0,0.8,0.2,1,1,1C65.4,70.6,69.7,70.7,74,70.7z M74.1,78.7c3.7,0,7.5,0,11.2,0c2.8,0,2.7,0,2.8-2.7
		c0-1-0.2-1.3-1.3-1.3c-8,0.1-15.9,0-23.9,0c-2.9,0-2.9,0-2.9,3c0,0.9,0.3,1.1,1.1,1C65.5,78.6,69.8,78.7,74.1,78.7z M54.2,50.7
		c-2.1,0-2.1,0-2.1,2c0,2,0,2,1.9,2c2.1,0,2.1,0,2.1-2C56.1,50.7,56.1,50.7,54.2,50.7z M56.1,60.7c0-2,0-2-2.1-2c-1.9,0-1.9,0-1.9,2
		c0,2,0,2,2.1,2C56.1,62.7,56.1,62.7,56.1,60.7z M56.1,68.6c0-1.9,0-1.9-2-1.9c-2,0-2,0-2,2.1c0,1.9,0,1.9,2,1.9
		C56.1,70.7,56.1,70.7,56.1,68.6z M56.1,76.5c0-1.9,0-1.9-1.9-1.9c-2.1,0-2.1,0-2.1,2.1c0,1.9,0,1.9,1.9,1.9
		C56.1,78.7,56.1,78.7,56.1,76.5z"/>
	<path class="st64" d="M136.1,148.6c-9.2-0.2-16.7-3.9-22.4-11.2c-0.6-0.8-0.7-1.2,0.3-1.7c1.8-0.9,3.5-2,5.2-3
		c0.5-0.3,0.8-0.3,1.2,0.2c8.6,10.3,22.9,10.3,31.4,0c0.4-0.5,0.7-0.6,1.3-0.2c1.8,1.1,3.6,2.1,5.4,3.1c0.6,0.3,0.7,0.6,0.3,1.2
		c-4.8,6.4-11.1,10.2-19.1,11.3c-0.7,0.1-1.3,0.2-2,0.2C137.2,148.6,136.6,148.6,136.1,148.6z"/>
	<path class="st65" d="M164.1,120.4c0,4-0.8,7.8-2.4,11.4c-0.3,0.8-0.6,1-1.4,0.5c-1.7-1.1-3.4-2.1-5.2-3c-0.7-0.4-0.7-0.7-0.5-1.4
		c4.7-12-2.9-25.1-15.7-27c-0.8-0.1-0.9-0.4-0.9-1.1c0-2,0.1-4,0-6c0-0.9,0.3-1,1.1-0.9c9.9,1.3,17.2,6.4,21.9,15.2
		C163.1,111.9,164.1,116.2,164.1,120.4z"/>
	<path class="st66" d="M134.1,96.7c0,1,0,2.1,0,3.1c0,0.8-0.3,1-1,1.1c-12.6,1.8-20.3,14.9-15.7,26.8c0.4,1,0.2,1.3-0.7,1.8
		c-1.7,0.9-3.3,1.8-4.9,2.8c-1,0.7-1.2,0.1-1.5-0.7c-5.6-12.8-0.6-28.2,11.7-35.2c3.4-2,7-3.2,10.9-3.6c0.8-0.1,1.2,0,1.1,1
		C134,94.8,134.1,95.8,134.1,96.7z"/>
	<path class="st67" d="M136,136.6c-8.8,0-15.9-7.3-15.9-16.2c0.1-8.7,7.3-15.9,16.1-15.8c8.8,0,16,7.3,15.9,16.2
		C152,129.6,144.8,136.7,136,136.6z M136.1,132.6c6.6,0,12-5.4,12-12c0-6.6-5.4-12-12-12c-6.6,0-12,5.4-12,12
		C124.1,127.2,129.5,132.6,136.1,132.6z"/>
	<path class="st68" d="M144.1,42.6c0-5.5,4.5-10,10.1-10c5.5,0,10,4.6,9.9,10.1c0,5.4-4.5,9.9-10,9.9
		C148.6,52.7,144.1,48.1,144.1,42.6z"/>
	<path class="st69" d="M104.1,102.6c0-2.4,0-4.7,0-7.1c0-0.7,0.2-0.9,0.9-0.9c3.1,0,3.1-0.1,3.1,3c0,0.9-0.1,1.8,0,2.7
		c0.6,3.6-0.8,6.6-2.2,9.7c-0.3,0.8-0.9,0.5-1.3,0.5c-0.7,0-0.5-0.6-0.5-0.9C104.1,107.4,104.1,105,104.1,102.6z"/>
	<path class="st70" d="M116.1,58.7c-1.1,0-2-0.8-2-1.9c0-1.1,0.9-2.1,2-2.1c1.1,0,2,0.9,2,2C118.1,57.7,117.2,58.6,116.1,58.7z"/>
	<path class="st70" d="M130.1,68.7c0,1.1-0.9,2-2,2c-1.1,0-2.1-0.9-2-2.1c0-1.1,1-1.9,2-1.9C129.2,66.7,130.1,67.6,130.1,68.7z"/>
	<path class="st70" d="M100.1,74.7c0,1.1-0.9,2-2,1.9c-1.1,0-2-1-2-2.1c0.1-1.1,1-1.9,2.1-1.9C99.3,72.7,100.1,73.6,100.1,74.7z"/>
	<path d="M96.1,98.8c0,5,0,9.9,0,14.9c0,0.8-0.2,1-1,1c-3.3,0-6.7,0-10,0c-0.8,0-1-0.2-1-1c0-10,0-20,0-30c0-0.8,0.2-1,1-1
		c3.3,0,6.7,0,10,0c0.8,0,1,0.2,1,1C96.1,88.7,96.1,93.7,96.1,98.8z M88.1,98.5c0,3.1,0,6.2,0,9.2c0,2.9,0,2.9,2.9,2.9
		c0.9,0,1.2-0.2,1.2-1.2c0-6.7,0-13.3,0-20c0-2.9,0-2.9-3-2.9c-0.8,0-1,0.2-1,1C88.1,91.3,88.1,94.9,88.1,98.5z"/>
	<path d="M52.1,104.6c0-3,0-6.1,0-9.1c0-0.7,0.2-0.9,0.9-0.9c3.4,0,6.8,0,10.2,0c0.7,0,0.9,0.2,0.9,0.9c0,6.1,0,12.2,0,18.2
		c0,0.7-0.2,0.9-0.9,0.9c-3.4,0-6.8,0-10.2,0c-0.7,0-0.9-0.2-0.9-0.9C52.2,110.7,52.1,107.7,52.1,104.6z M56.1,104.6
		c0,1,0,2.1,0,3.1c0,3,0,3,3,3c0.9,0,1-0.3,1-1.1c0-2.6,0-5.2,0-7.9c0-3.2,0-3.2-3.2-3.1c-0.8,0-0.9,0.3-0.9,0.9
		C56.2,101.2,56.1,102.9,56.1,104.6z"/>
	<path d="M68.1,106.6c0-2.4,0-4.7,0-7.1c0-0.7,0.2-0.9,0.9-0.9c3.4,0,6.8,0,10.2,0c0.7,0,0.9,0.2,0.9,0.9c0,4.7,0,9.5,0,14.2
		c0,0.7-0.2,0.9-0.9,0.9c-3.4,0-6.8,0-10.2,0c-0.7,0-0.9-0.2-0.9-0.9C68.1,111.4,68.1,109,68.1,106.6z M76.1,106.7c0-0.3,0-0.7,0-1
		c0-3.2,0-3.2-3.2-3.1c-0.8,0-0.9,0.3-0.9,0.9c0,1.4,0,2.8,0,4.2c0,2.9,0,2.8,2.9,2.9c0.8,0,1.2-0.1,1.1-1.1
		C76.1,108.7,76.1,107.7,76.1,106.7z"/>
	<path d="M74.1,54.7c-4.3,0-8.7,0-13,0c-0.8,0-1-0.2-1-1c0-3,0-3,3-3c8,0,15.9,0,23.9,0c0.9,0,1.2,0.2,1.2,1.1
		c-0.1,2.9,0,2.9-2.9,2.9C81.5,54.7,77.8,54.7,74.1,54.7z"/>
	<path d="M74.1,62.7c-4.3,0-8.6,0-12.9,0c-0.9,0-1.1-0.2-1.1-1.1c0-2.9,0-2.9,3-2.9c8,0,15.9,0,23.9,0c1,0,1.2,0.3,1.2,1.2
		c-0.1,2.8,0,2.8-2.9,2.8C81.5,62.7,77.8,62.7,74.1,62.7z"/>
	<path d="M74,70.7c-4.3,0-8.6,0-12.9,0c-0.8,0-1-0.2-1-1c0-3,0-3,3-3c8,0,15.9,0,23.9,0c0.9,0,1.2,0.2,1.2,1.2
		c-0.1,2.9,0,2.9-2.9,2.9C81.5,70.7,77.7,70.7,74,70.7z"/>
	<path d="M74.1,78.7c-4.3,0-8.6,0-12.9,0c-0.8,0-1.1-0.1-1.1-1c0-3,0-3,2.9-3c8,0,15.9,0,23.9,0c1.1,0,1.3,0.3,1.3,1.3
		c-0.1,2.7,0,2.7-2.8,2.7C81.6,78.7,77.8,78.7,74.1,78.7z"/>
	<path d="M54.2,50.7c1.9,0,1.9,0,1.9,2c0,2,0,2-2.1,2c-1.9,0-1.9,0-1.9-2C52.1,50.7,52.1,50.7,54.2,50.7z"/>
	<path d="M56.1,60.7c0,2,0,2-1.9,2c-2.1,0-2.1,0-2.1-2c0-2,0-2,1.9-2C56.1,58.7,56.1,58.7,56.1,60.7z"/>
	<path d="M56.1,68.6c0,2.1,0,2.1-2,2.1c-2,0-2,0-2-1.9c0-2.1,0-2.1,2-2.1C56.1,66.7,56.1,66.7,56.1,68.6z"/>
	<path d="M56.1,76.5c0,2.1,0,2.1-2.1,2.1c-1.9,0-1.9,0-1.9-1.9c0-2.1,0-2.1,2.1-2.1C56.1,74.7,56.1,74.7,56.1,76.5z"/>
	<path class="st32" d="M136.1,132.6c-6.6,0-12-5.4-12-12c0-6.6,5.4-12,12-12c6.6,0,12,5.4,12,12
		C148.1,127.3,142.7,132.6,136.1,132.6z M144.1,120.6c0-4.4-3.7-8-8.1-7.9c-4.3,0-7.9,3.6-7.9,8c0,4.4,3.6,8,8,8
		C140.5,128.6,144.1,125,144.1,120.6z"/>
	<path class="st71" d="M88.1,98.5c0-3.6,0-7.2,0-10.9c0-0.8,0.2-1,1-1c3,0,3,0,3,2.9c0,6.7,0,13.3,0,20c0,0.9-0.2,1.2-1.2,1.2
		c-2.9-0.1-2.9,0-2.9-2.9C88.1,104.7,88.1,101.6,88.1,98.5z"/>
	<path class="st71" d="M56.1,104.6c0-1.7,0-3.3,0-5c0-0.6,0.1-0.9,0.9-0.9c3.2-0.1,3.2-0.1,3.2,3.1c0,2.6,0,5.2,0,7.9
		c0,0.7-0.1,1.1-1,1.1c-3,0-3,0-3-3C56.1,106.6,56.1,105.6,56.1,104.6z"/>
	<path class="st71" d="M76.1,106.7c0,1-0.1,1.9,0,2.9c0.1,0.9-0.3,1.1-1.1,1.1c-2.9,0-2.9,0-2.9-2.9c0-1.4,0-2.8,0-4.2
		c0-0.7,0.1-0.9,0.9-0.9c3.2-0.1,3.2-0.1,3.2,3.1C76.1,106.1,76.1,106.4,76.1,106.7z"/>
	<path class="st72" d="M144.1,120.6c0,4.4-3.6,8-8,8.1c-4.4,0-8-3.6-8-8c0-4.4,3.6-8,7.9-8C140.4,112.6,144.1,116.2,144.1,120.6z"/>
</g>
<g>
	<path class="st73" d="M594.6,119.9c9.1,0,18.3,0.3,27.4-0.1c4.5-0.2,8.3,1.4,12.3,2.6c3,0.9,4.6,3.6,5.4,6.6c2,7.9-0.2,14.7-6,20.4
		c-1.3,1.3-3,2.7-4.7,2.5c-4.6-0.7-6.1,2.6-8.2,5.5c-1.5,1.9-3.2,3.7-5,5.4c-1.4,1.3-2.7,2.5-3.2,4.6c-0.5,2.4-2.2,3.7-4.7,3.7
		c-9.1,0-18.3-0.1-27.4,0c-2.8,0-4.2-1.7-4.5-3.8c-0.4-2.3-1.8-3.5-3.3-5c-9.1-8.6-13.4-19.3-13.4-31.8c0-3.3-1.4-7.6,0.6-9.7
		c2-2.2,6.3-0.7,9.6-0.7C577.8,119.8,586.2,119.9,594.6,119.9z M627,146.4c6.7-1.8,10.8-11.7,7.5-17.1c-0.6-1-1.5-1.8-2.7-2
		c-1.2-0.2-2.2,0.1-2.1,1.5C630,134.8,628.7,140.5,627,146.4z"/>
	<path class="st74" d="M596.5,172.5c14,0,28.1,0,42.1,0c3.4,0,3.9,0.8,2.5,3.8c-1.3,2.7-3.4,4.1-6.4,4.1c-25.6,0-51.2,0-76.9,0
		c-1.9,0-3.6-0.6-4.9-2c-1.3-1.4-2.7-3.2-1.9-5.1c0.7-1.7,2.8-0.8,4.2-0.8C568.9,172.4,582.7,172.5,596.5,172.5z"/>
	<path class="st75" d="M601.4,99.4c3-7.8,2.9-15.5-0.5-23.1c-1.1-2.4-2.1-5-3.3-7.4c-4.9-10.3-2.2-19.4,4.5-28.3
		c1.3,3.3-0.2,6.1-0.6,8.7c-1.1,7.8,0.2,15.1,3.7,22c1.8,3.6,3.2,7.3,4,11.2C610.5,88.6,606.3,97.6,601.4,99.4z"/>
	<path class="st76" d="M636,204.9c-1.5,2.8-2.7,4.9-3.8,7.1c-0.7,1.5-1.8,2-3.4,2c-1.9,0-2.8-0.6-1.6-2.5c0.3-0.4,0.4-1,0.7-1.4
		c4.7-5.5,4.8-11.1,0.2-16.8c-0.6-0.8-2.2-2.4-0.4-3.1c1.4-0.6,3.6-1,4.8,1.1c1.2,2.1,2.3,4.3,3.6,6.5c1.8-1.7,2.4-3.8,3.5-5.7
		c0.7-1.2,1.2-2.3,2.8-2.1c0.9,0.1,1.9-0.4,2.5,0.4c0.7,0.9-0.1,1.8-0.6,2.4c-4.8,5.9-4.6,11.6,0,17.5c0.6,0.8,2.2,2.3,0.6,3.2
		c-1.5,0.8-3.6,1.1-4.8-0.9C638.8,210.3,637.6,207.9,636,204.9z"/>
	<path class="st77" d="M587.9,105c1-7.5-1.3-13.8-5.3-19.9c-6.1-9.2-5.9-16.5,0.8-26c-0.8,3.6-0.9,6.4-0.9,9.2
		c0.2,5.2,1.2,10.1,4.2,14.5c1.8,2.5,3.5,5.1,4.5,8C593.1,96.3,591.7,100.9,587.9,105z"/>
	<path class="st78" d="M573.1,206.1c0,0.9,0,1.8,0,2.7c0.1,2.9,0.1,5.6-4.1,3.4c-1.1-0.6-1.9,0.5-2.8,0.8c-3.8,1.1-7.2-0.5-8-3.8
		c-0.8-3.3,1.3-5.8,5.3-6.6c0.6-0.1,1.3-0.1,1.9-0.2c1.2-0.2,2.9,0.4,2.9-1.6c-0.1-2-1.6-2.5-3.3-2.3c-1.1,0.1-2.2,0.5-3.4,0.8
		c-0.9,0.2-2,1.2-2.5-0.4c-0.4-1.3,0.1-2.3,1.3-2.8c3.2-1.3,6.5-1.9,9.7-0.4c3,1.4,2.9,4.3,3,7C573.1,203.7,573,204.9,573.1,206.1z
		 M568.4,206.8c-0.1-1.9-1.5-1.6-2.5-1.5c-1.6,0.1-3.2,0.4-3.3,2.4c-0.1,1.6,1.2,2.3,2.6,2.1C566.9,209.6,568.3,208.8,568.4,206.8z"
		/>
	<path class="st79" d="M611.6,202c0-3.1,0-6.2,0-9.3c0-1.9,0.5-2.9,2.6-2.8c2.8,0.1,5.7,0.1,8.5,0c1.4,0,2.2,0.4,2.2,1.9
		c0,1.5-0.7,2.1-2.1,2c-0.9,0-1.8,0.1-2.7,0c-2.4-0.2-3.7,0.1-3.7,3.1c0,3.1,1.4,3.4,3.7,3.2c0.9-0.1,1.8,0,2.7,0
		c1.4,0.1,1.6,1.1,1.5,2.2c0,1.1-0.5,1.5-1.6,1.7c-2,0.4-4.8-1.2-6,1c-0.8,1.7-0.3,4-0.3,6.1c0.1,1.8-0.7,2.6-2.5,2.6
		c-1.9,0-2.5-0.8-2.4-2.6C611.7,208.2,611.6,205.1,611.6,202z"/>
	<path class="st80" d="M608.2,205.4c0,0.8,0.1,1.5,0,2.3c-0.3,2.7,1.4,7.4-4.5,4.2c-0.5-0.3-1.6,0.7-2.4,1c-3.5,1.1-7.1-0.5-7.8-3.5
		c-0.9-3.4,1.1-6,5-6.8c0.9-0.2,1.8-0.2,2.7-0.3c1.2-0.1,2.5,0,2.3-1.7c-0.1-1.3-1-2-2.3-2.2c-1.4-0.1-2.8,0.1-4.1,0.6
		c-1,0.4-2.2,1.4-2.8-0.4c-0.4-1.3,0.4-2.2,1.5-2.8c6.3-3.6,12.4-0.3,12.5,6.9C608.2,203.6,608.2,204.5,608.2,205.4z M603.5,207.5
		c0.2-1.7-0.5-2.3-1.8-2.2c-1.6,0.1-3.5,0-3.8,2.3c-0.2,1.5,0.8,2.2,2,2.2C601.8,209.8,603.2,209.1,603.5,207.5z"/>
	<path class="st81" d="M584.1,206.7c1-3,2.1-6.1,2.8-9.1c0.6-2.3,2-3.1,4-2.4c2.1,0.7,0.8,2.4,0.4,3.5c-1.2,3.8-2.6,7.5-3.7,11.4
		c-0.6,2.1-1.7,2.9-3.8,2.9c-2.3,0-3.5-0.7-4.2-3c-1.2-3.9-2.6-7.8-3.8-11.7c-0.3-1.1-1.3-2.7,0.7-3.1c1.5-0.3,3.1-0.4,3.8,1.6
		c1,3.3,2.1,6.6,3.1,9.9C583.6,206.7,583.8,206.7,584.1,206.7z"/>
	<path class="st82" d="M553.9,199.5c0,3,0.2,5.9-0.1,8.9c-0.4,3.7-4.3,5.8-7.8,4.6c-1.5-0.5-1.8-1.6-1.7-3c0.1-1.6,1.1-1.3,2.2-1.2
		c2.5,0.3,2.7-1.4,2.7-3.2c0-4.5,0-9,0-13.5c0-1.7,0-3.1,2.3-3.1c2.5-0.1,2.6,1.4,2.6,3.2c-0.1,2.4,0,4.9,0,7.3
		C554,199.5,554,199.5,553.9,199.5z"/>
</g>
</svg>
